<svg id="Layer_1" data-name="Layer 1" xmlns="http://www.w3.org/2000/svg" viewBox="0 0 100 100"><defs><style>.cls-1{fill:#3692cc;fill-opacity:0.5;}</style></defs><title>connections</title><g id="Icons"><g id="icons-_-mi_empty-connections" data-name="icons-/-mi_empty-connections"><g id="connections"><g id="lines_-bottom" data-name="lines,-bottom"><path id="Line-Copy-3" d="M59.87,64.09l-3.75-6.5a1,1,0,1,0-1.73,1l3.75,6.5a1,1,0,1,0,1.73-1Z"/><path id="Line-Copy-4" d="M61.7,59l6.5,3.75a1,1,0,0,0,1-1.73l-6.5-3.75a1,1,0,1,0-1,1.73Z"/><path id="Line-Copy-5" d="M50.8,64.1l-.22,7.63a1,1,0,1,0,2,.06l.22-7.63a1,1,0,0,0-2-.06Z"/></g><g id="lines_-top" data-name="lines,-top"><path id="Line" d="M45.37,39l-3.75-6.5a1,1,0,1,0-1.73,1L43.63,40a1,1,0,0,0,1.73-1Z"/><path id="Line-Copy" d="M48.94,33.44v-7.5a1,1,0,0,0-2,0v7.5a1,1,0,1,0,2,0Z"/><path id="Line-Copy-2" d="M38,38.56l-6.71-3.62a1,1,0,0,0-1,1.76l6.71,3.62a1,1,0,0,0,1-1.76Z"/></g><path id="Rectangle-5-Copy" class="cls-1" d="M32.91,55.4l8.66-5A4,4,0,0,1,47,51.87h0a4,4,0,0,1-1.46,5.46l-8.66,5a4,4,0,0,1-5.46-1.46h0A4,4,0,0,1,32.91,55.4Z"/><path id="Rectangle-5-Copy-2" data-name="Rectangle-5-Copy" class="cls-1" d="M52,44.4l8.66-5a4,4,0,0,1,5.46,1.46h0a4,4,0,0,1-1.46,5.46l-8.66,5a4,4,0,0,1-5.46-1.46h0A4,4,0,0,1,52,44.4Z"/><path id="Combined-Shape" d="M37.3,51.22l1.3.9-1.37.79-3.9,2.25a2.47,2.47,0,0,0-.7.6l-.41.51-.63-.17a5,5,0,0,0-3.77.5L16.58,63.1a5,5,0,1,0,5,8.66l11.25-6.5a5,5,0,0,0,2.48-4.8l-.06-.65.56-.32,5.64-3.25.36,1.22a11.51,11.51,0,0,1-5.29,13.18l-12.12,7a11.5,11.5,0,1,1-11.5-19.92l12.12-7A11.5,11.5,0,0,1,37.3,51.22ZM26,52.46l-12.12,7a9.5,9.5,0,1,0,9.5,16.45l12.12-7a9.51,9.51,0,0,0,4.65-9.61l-2.83,1.64A7,7,0,0,1,33.83,67l-11.25,6.5a7,7,0,1,1-7-12.12l11.25-6.5A7,7,0,0,1,31.51,54a4.49,4.49,0,0,1,.83-.61L34.73,52A9.5,9.5,0,0,0,26,52.46Z"/><path id="Combined-Shape-2" data-name="Combined-Shape" d="M61.8,36.42a4.47,4.47,0,0,1,1.69-.57,7,7,0,0,1,3.19-4l11.25-6.5a7,7,0,1,1,7,12.12L73.67,44a7,7,0,0,1-7,0l-.35.23-2.46,1.42a9.51,9.51,0,0,0,10.65.78l12.12-7A9.5,9.5,0,1,0,77.11,23L65,30a9.5,9.5,0,0,0-4.71,7.34Zm-3.53,2.69A11.5,11.5,0,0,1,64,28.22l12.12-7a11.5,11.5,0,1,1,11.5,19.92l-12.12,7a11.5,11.5,0,0,1-14.06-2l-.88-.92,4.75-2.74a2.48,2.48,0,0,0,.55-.43l.61-.64.71.53a5,5,0,0,0,5.5.33l11.25-6.5a5,5,0,1,0-5-8.66L67.67,33.6A5,5,0,0,0,65.26,37l-.16.87-.89-.06a2.47,2.47,0,0,0-1.41.33l-4.4,2.54Z"/><path id="Rectangle-5-Copy-3" data-name="Rectangle-5-Copy" d="M33.3,58.07A2.5,2.5,0,0,0,36.7,59l9.54-5.51a2.5,2.5,0,0,0-2.5-4.33L34.2,54.66A2.5,2.5,0,0,0,33.3,58.07Zm-1.73,1a4.5,4.5,0,0,1,1.64-6.14l9.54-5.51a4.5,4.5,0,0,1,4.5,7.79L37.7,60.72A4.5,4.5,0,0,1,31.56,59.07Z"/><path id="Rectangle-5-Copy-2-2" data-name="Rectangle-5-Copy-2" d="M52.35,47.07a2.5,2.5,0,0,0,3.41.92l9.54-5.51a2.5,2.5,0,0,0-2.5-4.33l-9.54,5.51A2.5,2.5,0,0,0,52.35,47.07Zm-1.73,1a4.5,4.5,0,0,1,1.64-6.14l9.54-5.51a4.5,4.5,0,0,1,4.5,7.79l-9.54,5.51A4.5,4.5,0,0,1,50.62,48.07Z"/></g></g></g></svg>