<svg id="Layer_1" data-name="Layer 1" xmlns="http://www.w3.org/2000/svg" viewBox="0 0 100 100"><defs><style>.cls-1{fill:#3692cc;fill-opacity:0.5;}</style></defs><title>search</title><g id="Icons"><g id="icons-_-mi_empty-search" data-name="icons-/-mi_empty-search"><g id="search_filter" data-name="search/filter"><circle id="Oval-7" class="cls-1" cx="34.74" cy="38.95" r="22.63"/><path id="Oval-7-2" data-name="Oval-7" d="M37.89,61.53A23.63,23.63,0,1,1,61.53,37.89,23.63,23.63,0,0,1,37.89,61.53Zm0-2A21.63,21.63,0,1,0,16.26,37.89,21.63,21.63,0,0,0,37.89,59.53Z"/><path id="Oval-7-3" data-name="Oval-7" d="M37.89,66.79A28.89,28.89,0,1,1,66.79,37.89,28.89,28.89,0,0,1,37.89,66.79Zm0-2A26.89,26.89,0,1,0,11,37.89,26.89,26.89,0,0,0,37.89,64.79Z"/><path id="Rectangle-14" d="M58.43,55.85l27,27a2.69,2.69,0,0,1-3.8,3.8l-27-27-1.41,1.41,27,27a4.69,4.69,0,0,0,6.62-6.62l-27-27Z"/><polygon id="Line" points="70.31 77.15 76.19 71.27 74.78 69.86 68.9 75.73 70.31 77.15"/><path id="Oval-6" d="M23.87,48.4c2.28,3.89,4.42,5.54,9.29,6.2a1,1,0,1,0,.27-2c-4.2-.57-5.84-1.83-7.83-5.23a1,1,0,0,0-1.73,1Z"/></g></g></g></svg>