<svg id="Layer_1" data-name="Layer 1" xmlns="http://www.w3.org/2000/svg" viewBox="0 0 100 100"><defs><style>.cls-1{fill:#3692cc;fill-opacity:0.5;}</style></defs><title>detail_public-transportation</title><g id="Icons"><g id="icons-_-mi_public-transportation" data-name="icons-/-mi_public-transportation"><g id="Group"><circle id="Oval" class="cls-1" cx="23.5" cy="64.5" r="5.5"/><circle id="Oval-Copy" class="cls-1" cx="35.5" cy="64.5" r="5.5"/><circle id="Oval-2" data-name="Oval" class="cls-1" cx="61.5" cy="64.5" r="5.5"/><circle id="Oval-Copy-2" data-name="Oval-Copy" class="cls-1" cx="73.5" cy="64.5" r="5.5"/><circle id="Oval-14-Copy-23" cx="13" cy="14" r="1"/><circle id="Oval-14-Copy-24" cx="16" cy="20" r="1"/><circle id="Oval-14-Copy-25" cx="11" cy="20" r="1"/><path id="Rectangle-26" d="M20,63H12a1,1,0,0,1-1-1V28a1,1,0,0,1,1-1H79a1,1,0,0,1,1,1v3a1,1,0,0,1-1,1H74a3,3,0,0,0-3,3v9a3,3,0,0,0,3,3H89a1,1,0,0,1,1,1V62a1,1,0,0,1-1,1H81v2h8a3,3,0,0,0,3-3V48a3,3,0,0,0-3-3H74a1,1,0,0,1-1-1V35a1,1,0,0,1,1-1h5a3,3,0,0,0,3-3V28a3,3,0,0,0-3-3H12a3,3,0,0,0-3,3V62a3,3,0,0,0,3,3h8Zm39,0H42v2H59Z"/><polygon id="Line" points="77 33 77 46.5 79 46.5 79 33 77 33"/><path id="Oval-3" data-name="Oval" d="M25.5,70A6.5,6.5,0,1,1,32,63.5,6.5,6.5,0,0,1,25.5,70Zm0-2A4.5,4.5,0,1,0,21,63.5,4.5,4.5,0,0,0,25.5,68Z"/><path id="Oval-Copy-3" data-name="Oval-Copy" d="M37.5,70A6.5,6.5,0,1,1,44,63.5,6.5,6.5,0,0,1,37.5,70Zm0-2A4.5,4.5,0,1,0,33,63.5,4.5,4.5,0,0,0,37.5,68Z"/><path id="Oval-Copy-2-2" data-name="Oval-Copy-2" d="M63.5,70A6.5,6.5,0,1,1,70,63.5,6.5,6.5,0,0,1,63.5,70Zm0-2A4.5,4.5,0,1,0,59,63.5,4.5,4.5,0,0,0,63.5,68Z"/><path id="Oval-Copy-3-2" data-name="Oval-Copy-3" d="M75.5,70A6.5,6.5,0,1,1,82,63.5,6.5,6.5,0,0,1,75.5,70Zm0-2A4.5,4.5,0,1,0,71,63.5,4.5,4.5,0,0,0,75.5,68Z"/><path id="Line-2" d="M9,71H91a1,1,0,0,0,0-2H9a1,1,0,0,0,0,2Z"/><path id="Line-2-Copy-5" d="M20,79H80a1,1,0,0,0,0-2H20a1,1,0,0,0,0,2Z"/><path id="Line-2-Copy-4" d="M10,52H90a1,1,0,0,0,0-2H10a1,1,0,0,0,0,2Z"/><path id="Line-2-Copy" d="M9,87H91a1,1,0,0,0,0-2H9a1,1,0,0,0,0,2Z"/><path id="Line-2-Copy-2" d="M20,21H30a1,1,0,0,0,0-2H20a1,1,0,0,0,0,2Z"/><path id="Line-2-Copy-3" d="M17,15H27a1,1,0,0,0,0-2H17a1,1,0,0,0,0,2Z"/><path id="Rectangle-27" d="M20,35a1,1,0,0,0-1,1v6a1,1,0,0,0,1,1H34a1,1,0,0,0,1-1V36a1,1,0,0,0-1-1Zm0-2H34a3,3,0,0,1,3,3v6a3,3,0,0,1-3,3H20a3,3,0,0,1-3-3V36A3,3,0,0,1,20,33Z"/><path id="Rectangle-27-Copy" d="M44,35a1,1,0,0,0-1,1v6a1,1,0,0,0,1,1H58a1,1,0,0,0,1-1V36a1,1,0,0,0-1-1Zm0-2H58a3,3,0,0,1,3,3v6a3,3,0,0,1-3,3H44a3,3,0,0,1-3-3V36A3,3,0,0,1,44,33Z"/><polygon id="Line-3" points="26 33.5 26 44.5 28 44.5 28 33.5 26 33.5"/><polygon id="Line-3-Copy" points="50 33.5 50 44.5 52 44.5 52 33.5 50 33.5"/></g></g></g></svg>