<svg id="Layer_1" data-name="Layer 1" xmlns="http://www.w3.org/2000/svg" viewBox="0 0 100 100"><defs><style>.cls-1{fill:#3692cc;fill-opacity:0.5;}.cls-2{fill:#fff;}</style></defs><title>detail_pre-theology</title><g id="Icons"><g id="icons-_-mi_pre-theology" data-name="icons-/-mi_pre-theology"><g id="pre-theology"><rect id="bg" class="cls-1" x="40.25" y="38.35" width="26.33" height="15.19" rx="1" ry="1"/><g id="book"><path id="Rectangle-48" d="M79.75,88H25.91a4.05,4.05,0,0,1,0-8.1h50.8a1,1,0,0,0,0-2H25.91a6.08,6.08,0,0,0,0,12.15H79.75a1,1,0,1,0,0-2Z"/><path id="Rectangle-49" d="M25.06,12a3,3,0,0,0-3,3V77.85H78.73V12Zm0-2H78.73a2,2,0,0,1,2,2V77.85a2,2,0,0,1-2,2H22a2,2,0,0,1-2-2V15.06A5.06,5.06,0,0,1,25.06,10Z"/><polygon id="Line" points="20 77.34 20 83.92 22.02 83.92 22.02 77.34 20 77.34"/><polygon id="Line-2" points="31.14 10.51 31.14 79.38 33.16 79.38 33.16 10.51 31.14 10.51"/><polygon id="Line-3" points="20.51 23.16 32.66 23.16 32.66 21.14 20.51 21.14 20.51 23.16"/><polygon id="Line-4" points="75.7 78.35 75.7 89.49 77.72 89.49 77.72 78.35 75.7 78.35"/><path id="Line-5" d="M39.24,84.94h37a1,1,0,1,0,0-2h-37a1,1,0,1,0,0,2Z"/><path id="curve" class="cls-2" d="M22,79.87v-2h4.05a5.81,5.81,0,0,0-3,1A3.45,3.45,0,0,0,22,79.87Z"/></g><g id="title"><path id="Rectangle-50" d="M44.3,37.34V50.51H67.59V37.34Zm0-2H67.59a2,2,0,0,1,2,2V50.51a2,2,0,0,1-2,2H44.3a2,2,0,0,1-2-2V37.34A2,2,0,0,1,44.3,35.32Z"/><path id="Line-6-Copy" d="M47.85,47.47h16.2a1,1,0,1,0,0-2H47.85a1,1,0,1,0,0,2Z"/><path id="Line-6" d="M47.85,42.41h16.2a1,1,0,1,0,0-2H47.85a1,1,0,0,0,0,2Z"/></g><path id="bookmark" d="M53.78,26a1,1,0,0,0,1.66-.78V11h-2V23L49,19.35a1,1,0,0,0-1.3,0L43.29,23V11h-2V25.19a1,1,0,0,0,1.66.78l5.43-4.52Z"/></g></g></g></svg>