<svg id="Layer_1" data-name="Layer 1" xmlns="http://www.w3.org/2000/svg" viewBox="0 0 100 100"><defs><style>.cls-1{fill:#3692cc;fill-opacity:0.5;}</style></defs><title>detail_pre-optometry</title><g id="Icons"><g id="icons-_-mi_pre-optometry" data-name="icons-/-mi_pre-optometry"><g id="Group-2"><ellipse id="bg" class="cls-1" cx="48.88" cy="51.08" rx="17.25" ry="17.3"/><path id="Oval-12" d="M50.5,73.78q-20.41,0-40-22.15a3.25,3.25,0,0,1,0-4.34q19.1-21,39.94-21.08T90.44,47.29a3.25,3.25,0,0,1,0,4.34Q70.91,73.74,50.5,73.78Zm0-2.16q19.37,0,38.35-21.43a1.08,1.08,0,0,0,0-1.45Q70.31,28.34,50.5,28.38T12.16,48.75a1.08,1.08,0,0,0,0,1.45Q31.14,71.67,50.5,71.62Z"/><path id="Oval-13" d="M51,68.38A18.38,18.38,0,1,1,69.36,50,18.35,18.35,0,0,1,51,68.38Zm0-2.16A16.22,16.22,0,1,0,34.87,50,16.19,16.19,0,0,0,51,66.22Z"/><path id="Oval-13-2" data-name="Oval-13" d="M51,60.81A10.81,10.81,0,1,1,61.82,50,10.8,10.8,0,0,1,51,60.81Zm0-2.16A8.65,8.65,0,1,0,42.42,50,8.64,8.64,0,0,0,51,58.65Z"/><path id="Oval-6" d="M50.78,43.83c-3.17,1.49-4.62,3.07-5.46,6.8a1.08,1.08,0,0,0,2.11.47c.68-3,1.67-4.09,4.28-5.32a1.08,1.08,0,1,0-.92-1.95Z"/><circle id="Oval-14" cx="51.04" cy="20.81" r="1.08"/><circle id="Oval-14-Copy-12" cx="59.66" cy="21.89" r="1.08"/><circle id="Oval-14-Copy-21" cx="74.75" cy="24.05" r="1.08"/><circle id="Oval-14-Copy-15" cx="42.42" cy="21.89" r="1.08"/><circle id="Oval-14-Copy-18" cx="27.32" cy="24.05" r="1.08"/><circle id="Oval-14-Copy-13" cx="60.74" cy="16.49" r="1.08"/><circle id="Oval-14-Copy-22" cx="75.83" cy="18.65" r="1.08"/><circle id="Oval-14-Copy-16" cx="41.34" cy="16.49" r="1.08"/><circle id="Oval-14-Copy-19" cx="26.25" cy="18.65" r="1.08"/><circle id="Oval-14-Copy-14" cx="61.82" cy="11.08" r="1.08"/><circle id="Oval-14-Copy-23" cx="76.91" cy="13.24" r="1.08"/><circle id="Oval-14-Copy-17" cx="40.26" cy="11.08" r="1.08"/><circle id="Oval-14-Copy-20" cx="25.17" cy="13.24" r="1.08"/><circle id="Oval-14-Copy-6" cx="34.87" cy="22.97" r="1.08"/><circle id="Oval-14-Copy-4" cx="67.21" cy="22.97" r="1.08"/><circle id="Oval-14-Copy" cx="51.04" cy="15.41" r="1.08"/><circle id="Oval-14-Copy-7" cx="33.79" cy="17.57" r="1.08"/><circle id="Oval-14-Copy-5" cx="68.29" cy="17.57" r="1.08"/><g id="Group"><circle id="Oval-14-2" data-name="Oval-14" cx="51.04" cy="79.19" r="1.08"/><circle id="Oval-14-Copy-12-2" data-name="Oval-14-Copy-12" cx="42.42" cy="78.11" r="1.08"/><circle id="Oval-14-Copy-21-2" data-name="Oval-14-Copy-21" cx="27.32" cy="75.95" r="1.08"/><circle id="Oval-14-Copy-15-2" data-name="Oval-14-Copy-15" cx="59.66" cy="78.11" r="1.08"/><circle id="Oval-14-Copy-18-2" data-name="Oval-14-Copy-18" cx="74.75" cy="75.95" r="1.08"/><circle id="Oval-14-Copy-13-2" data-name="Oval-14-Copy-13" cx="41.34" cy="83.51" r="1.08"/><circle id="Oval-14-Copy-22-2" data-name="Oval-14-Copy-22" cx="26.25" cy="81.35" r="1.08"/><circle id="Oval-14-Copy-16-2" data-name="Oval-14-Copy-16" cx="60.74" cy="83.51" r="1.08"/><circle id="Oval-14-Copy-19-2" data-name="Oval-14-Copy-19" cx="75.83" cy="81.35" r="1.08"/><circle id="Oval-14-Copy-14-2" data-name="Oval-14-Copy-14" cx="40.26" cy="88.92" r="1.08"/><circle id="Oval-14-Copy-23-2" data-name="Oval-14-Copy-23" cx="25.17" cy="86.76" r="1.08"/><circle id="Oval-14-Copy-17-2" data-name="Oval-14-Copy-17" cx="61.82" cy="88.92" r="1.08"/><circle id="Oval-14-Copy-20-2" data-name="Oval-14-Copy-20" cx="76.91" cy="86.76" r="1.08"/><circle id="Oval-14-Copy-6-2" data-name="Oval-14-Copy-6" cx="67.21" cy="77.03" r="1.08"/><circle id="Oval-14-Copy-4-2" data-name="Oval-14-Copy-4" cx="34.87" cy="77.03" r="1.08"/><circle id="Oval-14-Copy-2" data-name="Oval-14-Copy" cx="51.04" cy="84.59" r="1.08"/><circle id="Oval-14-Copy-7-2" data-name="Oval-14-Copy-7" cx="68.29" cy="82.43" r="1.08"/><circle id="Oval-14-Copy-5-2" data-name="Oval-14-Copy-5" cx="33.79" cy="82.43" r="1.08"/></g></g></g></g></svg>