<svg id="Layer_1" data-name="Layer 1" xmlns="http://www.w3.org/2000/svg" viewBox="0 0 100 100"><defs><style>.cls-1{fill:#3692cc;fill-opacity:0.5;}.cls-2{fill:none;stroke:#3692cc;stroke-linecap:round;stroke-linejoin:round;stroke-opacity:0.5;}</style></defs><title>detail_pre-law</title><g id="Icons"><g id="icons-_-mi_pre-law" data-name="icons-/-mi_pre-law"><g id="balanced"><g id="Oval-5"><path id="path-1" class="cls-1" d="M60.4,38.64c0,7,5.31,12.76,11.85,12.76S84.1,45.69,84.1,38.64Z"/><path class="cls-2" d="M59.9,38.14H84.6v.5c0,7.32-5.52,13.26-12.35,13.26S59.9,46,59.9,38.64Z"/></g><g id="Oval-5-2" data-name="Oval-5"><path id="path-2" class="cls-1" d="M12,48.52c0,7,5.31,12.76,11.85,12.76S35.7,55.57,35.7,48.52Z"/><path class="cls-2" d="M11.5,48H36.2v.5c0,7.32-5.52,13.26-12.35,13.26S11.5,55.84,11.5,48.52Z"/></g><g id="Group"><path id="Line" d="M16.64,25.3l31.11-6.22a1,1,0,1,0-.39-2L16.25,23.34a1,1,0,1,0,.39,2Zm40-8,29.75-5.95a1,1,0,1,0-.39-2L56.23,15.34a1,1,0,1,0,.39,2Z"/><path id="Oval-4" d="M51.51,21.86a5,5,0,1,1,5-5A5,5,0,0,1,51.51,21.86Zm0-2a3,3,0,1,0-3-3A3,3,0,0,0,51.51,19.86Z"/><polygon id="Line-2" data-name="Line" points="50.51 21.35 50.51 59.4 52.51 59.4 52.51 21.35 50.51 21.35"/><path id="Combined-Shape" d="M55.47,83.07h14.8a4,4,0,1,1,0,7.93H31.76a4,4,0,1,1,0-7.93H47.54V61.35a4,4,0,0,1,7.93,0Zm-2-21.72a2,2,0,0,0-3.93,0V85.07H31.76a2,2,0,1,0,0,3.93H70.27a2,2,0,1,0,0-3.93H53.47Z"/><path id="Triangle" d="M19.4,46.53H36.2l-8.4-21Zm9.33-24.06,9.88,24.69a1,1,0,0,1-.93,1.37H17.93A1,1,0,0,1,17,47.16l9.88-24.69A1,1,0,0,1,28.73,22.47Z"/><path id="Triangle-2" data-name="Triangle" d="M66.81,36.65h16.8l-8.4-21Zm9.33-24.06L86,37.28a1,1,0,0,1-.93,1.37H65.33a1,1,0,0,1-.93-1.37l9.88-24.69A1,1,0,0,1,76.14,12.59Z"/><path id="Oval-5-3" data-name="Oval-5" d="M13.47,47.53a1,1,0,0,1,1-1H40.15a1,1,0,0,1,1,1c0,8.17-6.18,14.83-13.84,14.83S13.47,55.7,13.47,47.53ZM27.31,60.36c6.21,0,11.33-5.2,11.8-11.83H15.5C16,55.16,21.1,60.36,27.31,60.36Z"/><path id="Oval-5-4" data-name="Oval-5" d="M61.37,37.65a1,1,0,0,1,1-1H88a1,1,0,0,1,1,1c0,8.17-6.18,14.83-13.84,14.83S61.37,45.83,61.37,37.65ZM75.21,50.48c6.21,0,11.33-5.2,11.8-11.83H63.41C63.88,45.28,69,50.48,75.21,50.48Z"/><path id="Oval-6" d="M21,54a6.8,6.8,0,0,0,5.79,3.87,1,1,0,1,0,.27-2A4.88,4.88,0,0,1,22.74,53,1,1,0,0,0,21,54Z"/><path id="Oval-6-2" data-name="Oval-6" d="M69.41,44.08A6.8,6.8,0,0,0,75.2,48a1,1,0,1,0,.27-2,4.88,4.88,0,0,1-4.33-2.89,1,1,0,1,0-1.73,1Z"/></g></g></g></g></svg>