<svg id="Layer_1" data-name="Layer 1" xmlns="http://www.w3.org/2000/svg" viewBox="0 0 100 100"><defs><style>.cls-1{fill:#3692cc;fill-opacity:0.5;}</style></defs><title>detail_pre-dentistry</title><g id="Icons"><g id="icons-_-mi_pre-medicine" data-name="icons-/-mi_pre-medicine"><g id="pre-medicine"><circle id="bg" class="cls-1" cx="81" cy="50" r="8"/><g id="bg-2" data-name="bg"><path id="Shape" class="cls-1" d="M30.47,46.38,29.1,45.14C24.22,40.71,21,37.79,21,34.21A5.15,5.15,0,0,1,26.21,29a5.69,5.69,0,0,1,4.26,2,5.69,5.69,0,0,1,4.26-2,5.15,5.15,0,0,1,5.21,5.21c0,3.58-3.22,6.5-8.1,10.93Z"/></g><g id="heart"><path id="Shape-2" data-name="Shape" d="M37.11,28a5.84,5.84,0,0,0-4.38,2,5.84,5.84,0,0,0-4.38-2A5.29,5.29,0,0,0,23,33.35C23,37,26.31,40,31.32,44.57l1.41,1.28,1.41-1.28c5-4.55,8.32-7.55,8.32-11.22A5.29,5.29,0,0,0,37.11,28ZM32.83,43.13l-.1.09-.1-.09c-4.63-4.2-7.68-7-7.68-9.78a3.33,3.33,0,0,1,3.41-3.41,3.8,3.8,0,0,1,3.47,2.3h1.81a3.81,3.81,0,0,1,3.47-2.3,3.33,3.33,0,0,1,3.41,3.41C40.51,36.16,37.46,38.94,32.83,43.13Z"/></g><path id="Rectangle-32" d="M85,56V79c0,5.56-3.09,9-9,9H40a9,9,0,0,1-9-9V59.4H29V79A11,11,0,0,0,40,90H76c7.07,0,11-4.38,11-11V56Z"/><path id="Rectangle-32-2" data-name="Rectangle-32" d="M79,56V75.27A6.79,6.79,0,0,1,72.14,82H43.86A6.79,6.79,0,0,1,37,75.27V58.85H35V75.27A8.79,8.79,0,0,0,43.86,84H72.14A8.79,8.79,0,0,0,81,75.27V56Z"/><path id="Oval-15" d="M83,58a9,9,0,1,1,9-9A9,9,0,0,1,83,58Zm0-2a7,7,0,1,0-7-7A7,7,0,0,0,83,56Z"/><path id="Oval-15-2" data-name="Oval-15" d="M83,54a5,5,0,1,1,5-5A5,5,0,0,1,83,54Zm0-2a3,3,0,1,0-3-3A3,3,0,0,0,83,52Z"/><path id="Rectangle-33" d="M45,15h5a4,4,0,0,1,4,4V43.18a10.71,10.71,0,0,1-2.3,3.15,62,62,0,0,1-6,5.62c-5.24,4.34-10.2,7.24-12.7,7.24-2,0-7-3-12.29-7.24a70.12,70.12,0,0,1-6.27-5.63A11.23,11.23,0,0,1,12,43.18V19a4,4,0,0,1,4-4h5V13H16a6,6,0,0,0-6,6V43.18c0,3.7,17.8,18,23,18,6,0,23-14,23-18V19a6,6,0,0,0-6-6H45Z"/><path id="Line" d="M23,17V10a1,1,0,0,0-2,0v7a1,1,0,0,0,2,0Z"/><path id="Line-2" data-name="Line" d="M45,17V10a1,1,0,0,0-2,0v7a1,1,0,0,0,2,0Z"/></g></g></g></svg>