<svg id="Layer_1" data-name="Layer 1" xmlns="http://www.w3.org/2000/svg" viewBox="0 0 100 100"><defs><style>.cls-1{fill:#3692cc;fill-opacity:0.5;}</style></defs><title>detail_airport</title><g id="Icons"><g id="icons-_-mi_airport" data-name="icons-/-mi_airport"><g id="airport"><path id="bg" class="cls-1" d="M45.7,12.57l3.61,1.2h0a2,2,0,0,1,1.08.86L67,42H51L44.41,13.74h0a1,1,0,0,1,1.29-1.18Z"/><path id="bg-2" data-name="bg" class="cls-1" d="M44.7,89.43l3.61-1.2h0a2,2,0,0,0,1.08-.86L66,60H50L43.41,88.26h0a1,1,0,0,0,1.29,1.18Z"/><circle id="Oval-14-Copy-23" cx="75" cy="46" r="1"/><circle id="Oval-14-Copy-27" cx="75" cy="54" r="1"/><circle id="Oval-14-Copy-24" cx="70" cy="46" r="1"/><circle id="Oval-14-Copy-28" cx="70" cy="54" r="1"/><circle id="Oval-14-Copy-25" cx="65" cy="46" r="1"/><circle id="Oval-14-Copy-29" cx="65" cy="54" r="1"/><circle id="Oval-14-Copy-26" cx="60" cy="46" r="1"/><circle id="Oval-14-Copy-30" cx="60" cy="54" r="1"/><path id="Oval-6" d="M85.72,54.2c1.58-3.13,1.75-5.27.12-8.72a1.08,1.08,0,0,0-2,.93c1.32,2.79,1.2,4.25-.1,6.83a1.08,1.08,0,1,0,1.93,1Z"/><path id="Rectangle" d="M36.91,42.41l-.16,0,.08,0Zm.24,2L23,45A1,1,0,0,1,23,43l13.87-.58,10.06-2.06L84.17,40A9.85,9.85,0,0,1,94,49.87V50a9.93,9.93,0,0,1-9.82,10H47.09L36.85,57.92H23a1,1,0,0,1,0-2H37L47.19,58h37A7.93,7.93,0,0,0,92,50v-.07A7.85,7.85,0,0,0,84.19,42l-37,.33Z"/><path id="Line" d="M19.5,49H9.5a1,1,0,0,0,0,2h10a1,1,0,0,0,0-2Z"/><g id="Group"><path id="Line-2" data-name="Line" d="M40,16H20a1,1,0,0,0,0,2H40a1,1,0,0,0,0-2Z"/><path id="Line-Copy" d="M40,22H25a1,1,0,0,0,0,2H40a1,1,0,0,0,0-2Z"/></g><g id="Group-2"><path id="Line-Copy-2" d="M40,82H20a1,1,0,0,0,0,2H40a1,1,0,0,0,0-2Z"/><path id="Line-Copy-3" d="M40,76H25a1,1,0,0,0,0,2H40a1,1,0,0,0,0-2Z"/></g><path id="Rectangle-4" d="M51.53,14.15a1,1,0,0,0-.54-.43l-3.61-1.2L53.79,40H67.22Zm.09-2.33a3,3,0,0,1,1.62,1.29L70.78,42H52.21L45.43,13A2,2,0,0,1,48,10.62Z"/><path id="Rectangle-4-2" data-name="Rectangle-4" d="M51.53,86.37a1,1,0,0,1-.54.43L47.38,88l6.41-27.49H67.22ZM48,89.9l3.61-1.2a3,3,0,0,0,1.62-1.29L70.78,58.51H52.21l-6.77,29A2,2,0,0,0,48,89.9Z"/><path id="Rectangle-5" d="M59,25h9a1,1,0,0,1,1,1v3a1,1,0,0,1-1,1H63v2h5a3,3,0,0,0,3-3V26a3,3,0,0,0-3-3H59Z"/><path id="Rectangle-5-2" data-name="Rectangle-5" d="M59,75h9a1,1,0,0,0,1-1V71a1,1,0,0,0-1-1H63V68h5a3,3,0,0,1,3,3v3a3,3,0,0,1-3,3H59Z"/><path id="Rectangle-4-3" data-name="Rectangle-4" d="M14.14,45.71,10,32l1.67.33a1,1,0,0,1,.52.3l10,12a1,1,0,0,0,1.53-1.28l-10.06-12a3,3,0,0,0-1.59-.93L10.43,30a2,2,0,0,0-2.32,2.62l4.12,13.65a1,1,0,1,0,1.91-.58Z"/><path id="Rectangle-4-4" data-name="Rectangle-4" d="M14.14,55.26,10,69l1.67-.33a1,1,0,0,0,.52-.3l10-12a1,1,0,0,1,1.53,1.28l-10.06,12a3,3,0,0,1-1.59.93L10.43,71a2,2,0,0,1-2.32-2.62l4.12-13.65a1,1,0,1,1,1.91.58Z"/></g></g></g></svg>