<svg id="Layer_1" data-name="Layer 1" xmlns="http://www.w3.org/2000/svg" viewBox="0 0 100 100"><defs><style>.cls-1{fill:#3692cc;fill-opacity:0.5;}</style></defs><title>detail_pre-veterinary</title><g id="Icons"><g id="icons-_-mi_pre-veterinary-science" data-name="icons-/-mi_pre-veterinary-science"><g id="pre-medicine"><circle id="bg" class="cls-1" cx="81" cy="50" r="8"/><g id="bg-2" data-name="bg"><circle id="Oval" class="cls-1" cx="23.5" cy="34.5" r="2.5"/><circle id="Oval-2" data-name="Oval" class="cls-1" cx="28" cy="30.5" r="2.5"/><circle id="Oval-3" data-name="Oval" class="cls-1" cx="34" cy="30.5" r="2.5"/><circle id="Oval-4" data-name="Oval" class="cls-1" cx="38.5" cy="34.5" r="2.5"/><path id="Shape" class="cls-1" d="M36.34,39.86c-.87-1-1.6-1.89-2.48-2.91a4.24,4.24,0,0,0-1.75-1.32,2,2,0,0,0-.33-.09,5,5,0,0,0-.78,0,4.19,4.19,0,0,0-.79.05,2,2,0,0,0-.33.09A4.31,4.31,0,0,0,28.13,37c-.87,1-1.6,1.89-2.48,2.91-1.31,1.31-2.92,2.76-2.62,4.79A3.14,3.14,0,0,0,25.36,47c.73.15,3.06-.44,5.54-.44h.18c2.48,0,4.81.58,5.54.44A3.15,3.15,0,0,0,39,44.66c.31-2-1.3-3.49-2.61-4.8Z"/></g><path id="Rectangle-32" d="M85,56V79c0,5.56-3.09,9-9,9H40a9,9,0,0,1-9-9V59.4H29V79A11,11,0,0,0,40,90H76c7.07,0,11-4.38,11-11V56Z"/><path id="Rectangle-32-2" data-name="Rectangle-32" d="M79,56V75.27A6.79,6.79,0,0,1,72.14,82H43.86A6.79,6.79,0,0,1,37,75.27V58.85H35V75.27A8.79,8.79,0,0,0,43.86,84H72.14A8.79,8.79,0,0,0,81,75.27V56Z"/><path id="Oval-15" d="M83,58a9,9,0,1,1,9-9A9,9,0,0,1,83,58Zm0-2a7,7,0,1,0-7-7A7,7,0,0,0,83,56Z"/><path id="Oval-15-2" data-name="Oval-15" d="M83,54a5,5,0,1,1,5-5A5,5,0,0,1,83,54Zm0-2a3,3,0,1,0-3-3A3,3,0,0,0,83,52Z"/><path id="Rectangle-33" d="M45,15h5a4,4,0,0,1,4,4V43.18a10.71,10.71,0,0,1-2.3,3.15,62,62,0,0,1-6,5.62c-5.24,4.34-10.2,7.24-12.7,7.24-2,0-7-3-12.29-7.24a70.12,70.12,0,0,1-6.27-5.63A11.23,11.23,0,0,1,12,43.18V19a4,4,0,0,1,4-4h5V13H16a6,6,0,0,0-6,6V43.18c0,3.7,17.8,18,23,18,6,0,23-14,23-18V19a6,6,0,0,0-6-6H45Z"/><g id="ic_pets_black_48px" data-name="ic pets black 48px"><circle id="Oval-5" data-name="Oval" cx="25.5" cy="33.5" r="2.5"/><circle id="Oval-6" data-name="Oval" cx="30" cy="29.5" r="2.5"/><circle id="Oval-7" data-name="Oval" cx="36" cy="29.5" r="2.5"/><circle id="Oval-8" data-name="Oval" cx="40.5" cy="33.5" r="2.5"/><path id="Shape-2" data-name="Shape" d="M33.23,36.5h-.7a2.47,2.47,0,0,0-.88.73l-1.19,1.4,0,0-1.25,1.47-.1.11-.54.54C27.37,42,27,42.63,27,43.25a1.09,1.09,0,0,0,.77.78c-.08,0,.08,0,.34,0l.65-.08.82-.11a25.6,25.6,0,0,1,3.34-.25h.18a26,26,0,0,1,3.35.25,12,12,0,0,1,1.76.24,1.12,1.12,0,0,0,.8-.79c0-.62-.36-1.27-1.52-2.43l-.54-.54-.11-.12-1.2-1.41,0,0-1.24-1.45a2.38,2.38,0,0,0-.91-.74ZM41,43.66A3.15,3.15,0,0,1,38.62,46c-.73.14-3.06-.44-5.54-.44H32.9c-2.48,0-4.81.59-5.54.44A3.14,3.14,0,0,1,25,43.66c-.3-2,1.31-3.48,2.62-4.79.88-1,1.61-1.89,2.48-2.91a4.31,4.31,0,0,1,1.75-1.32,2,2,0,0,1,.33-.09A4.19,4.19,0,0,1,33,34.5a5,5,0,0,1,.78,0,2,2,0,0,1,.33.09,4.24,4.24,0,0,1,1.75,1.32c.88,1,1.61,1.89,2.48,2.91C39.65,40.17,41.26,41.62,41,43.66Z"/></g><path id="Line" d="M23,17V10a1,1,0,0,0-2,0v7a1,1,0,0,0,2,0Z"/><path id="Line-2" data-name="Line" d="M45,17V10a1,1,0,0,0-2,0v7a1,1,0,0,0,2,0Z"/></g></g></g></svg>