<svg id="Layer_1" data-name="Layer 1" xmlns="http://www.w3.org/2000/svg" viewBox="0 0 100 100"><defs><style>.cls-1{fill:#3692cc;fill-opacity:0.5;}</style></defs><title>detail_pre-dentistry</title><g id="Icons"><g id="icons-_-mi_pre-dentistry" data-name="icons-/-mi_pre-dentistry"><g id="Group"><path id="Oval-33" class="cls-1" d="M85.07,38.64c0-5.93,0-21.73-17.78-21.73-9,0-10.86,4.94-15.8,4.94s-6.91-4.94-15.8-4.94c-17.78,0-17.78,15.8-17.78,21.73s1,9.88,3,13.83S31.74,67.28,31.74,73.19,31.74,90,40.63,90,38.44,64.32,51.49,64.32,54.46,90,63.35,90s8.89-9.92,8.89-16.81,7.9-16.77,9.88-20.72S85.07,44.57,85.07,38.64Z"/><path id="Line-2" d="M24.83,15.43v-4a1,1,0,0,0-2,0v4a1,1,0,0,0,2,0Z"/><path id="Line-3" d="M16.43,21.85h-4a1,1,0,0,0,0,2h4a1,1,0,0,0,0-2Z"/><path id="Oval-33-2" data-name="Oval-33" d="M85,50.94c-.58,1.17-4.64,7.52-4.76,7.72a58.43,58.43,0,0,0-3,5.39,17.62,17.62,0,0,0-2,7.17c0,2.52,0,3.73-.12,5.22-.51,8-3.2,12.57-9.76,12.57-2.38,0-3.84-1.46-4.55-4-.5-1.8-.63-3.57-.74-7.86,0-1,0-1.37-.05-1.89-.29-8.48-1.75-11.89-6.5-11.89s-6,3.39-6,11.85c0,.5,0,.92,0,1.81.05,4.37,0,6.1-.43,7.91C46.43,87.52,45,89,42.6,89c-4.5,0-7.32-2.51-8.72-6.88-.95-3-1.16-5.76-1.16-10.92,0-2-1.17-4.89-3.36-8.63-.62-1.05-1.3-2.16-2.1-3.39-.48-.74-1-1.48-1.61-2.45l-.39-.58-.38-.57-.73-1.09A37.12,37.12,0,0,1,22,50.94,29.71,29.71,0,0,1,18.9,36.67a35.33,35.33,0,0,1,1-10C22.1,18.7,27.65,14,37.67,14a18.53,18.53,0,0,1,9.86,2.59c-.07,0,2,1.12,2.48,1.39a7.24,7.24,0,0,0,3.46,1,7.13,7.13,0,0,0,3.45-1c.51-.26,2.43-1.37,2.44-1.38A18.53,18.53,0,0,1,69.27,14c10,0,15.57,4.75,17.72,12.7a35.33,35.33,0,0,1,1,10A29.71,29.71,0,0,1,85,50.94Zm.11-23.77C83.16,20,78.35,15.93,69.27,15.93a16.59,16.59,0,0,0-8.95,2.34s-1.94,1.12-2.5,1.41a9,9,0,0,1-4.36,1.18,9.14,9.14,0,0,1-4.36-1.18c-.57-.29-2.65-1.48-2.54-1.42a16.6,16.6,0,0,0-8.9-2.34c-9.08,0-13.89,4.12-15.81,11.24a33.65,33.65,0,0,0-1,9.5,27.76,27.76,0,0,0,2.86,13.39,36,36,0,0,0,2.06,3.36l.72,1.08.38.57.39.59c.65,1,1.14,1.72,1.63,2.47.81,1.26,1.52,2.39,2.15,3.47,2.36,4,3.64,7.18,3.64,9.63,0,5,.2,7.63,1.06,10.32,1.16,3.61,3.28,5.5,6.84,5.5,1.35,0,2.09-.77,2.52-2.59.37-1.59.43-3.25.38-7.44,0-.89,0-1.31,0-1.82,0-4.29.24-7,1.11-9.19a6.79,6.79,0,0,1,6.88-4.64,7.06,7.06,0,0,1,7,4.61c1,2.23,1.31,4.9,1.46,9.18,0,.53,0,.91.06,1.91.2,7.66.84,10,3.32,10,5.2,0,7.34-3.59,7.79-10.73.09-1.44.11-2.62.11-5.1a19.37,19.37,0,0,1,2.23-8,60.3,60.3,0,0,1,3.07-5.58c.18-.29,4.15-6.51,4.68-7.57a27.76,27.76,0,0,0,2.86-13.39A33.65,33.65,0,0,0,85.08,27.16Z"/><g id="Group-2"><circle id="Oval-Copy-16" cx="77.17" cy="23.83" r="1"/><circle id="Oval-Copy-20" cx="77.17" cy="28.77" r="1"/><circle id="Oval-Copy-46" cx="82.11" cy="28.77" r="1"/><circle id="Oval-Copy-23" cx="77.17" cy="33.7" r="1"/><circle id="Oval-Copy-45" cx="82.11" cy="33.7" r="1"/><circle id="Oval-Copy-27" cx="72.23" cy="33.7" r="1"/><circle id="Oval-Copy-28" cx="67.3" cy="33.7" r="1"/><circle id="Oval-Copy-29" cx="62.36" cy="33.7" r="1"/><circle id="Oval-Copy-24" cx="77.17" cy="38.64" r="1"/><circle id="Oval-Copy-44" cx="82.11" cy="38.64" r="1"/><circle id="Oval-Copy-30" cx="72.23" cy="38.64" r="1"/><circle id="Oval-Copy-31" cx="67.3" cy="38.64" r="1"/><circle id="Oval-Copy-25" cx="77.17" cy="43.58" r="1"/><circle id="Oval-Copy-32" cx="72.23" cy="43.58" r="1"/><circle id="Oval-Copy-33" cx="67.3" cy="43.58" r="1"/><circle id="Oval-Copy-34" cx="62.36" cy="43.58" r="1"/><circle id="Oval-Copy-26" cx="77.17" cy="48.52" r="1"/><circle id="Oval-Copy-35" cx="72.23" cy="48.52" r="1"/><circle id="Oval-Copy-36" cx="67.3" cy="48.52" r="1"/><circle id="Oval-Copy-37" cx="67.3" cy="53.46" r="1"/><circle id="Oval-Copy-43" cx="62.36" cy="53.46" r="1"/><circle id="Oval-Copy-41" cx="72.23" cy="53.46" r="1"/><circle id="Oval-Copy-42" cx="72.23" cy="58.4" r="1"/><circle id="Oval-Copy-38" cx="67.3" cy="58.4" r="1"/><circle id="Oval-Copy-39" cx="67.3" cy="63.33" r="1"/><circle id="Oval-Copy-40" cx="67.3" cy="68.27" r="1"/><circle id="Oval-Copy-21" cx="72.23" cy="28.77" r="1"/><circle id="Oval-Copy-22" cx="67.3" cy="28.77" r="1"/><circle id="Oval-Copy-17" cx="72.23" cy="23.83" r="1"/><circle id="Oval-Copy-18" cx="67.3" cy="23.83" r="1"/><circle id="Oval-Copy-19" cx="62.36" cy="23.83" r="1"/></g><path id="Line" d="M20.59,18.19l-5.43-5.43a1,1,0,0,0-1.4,1.4l5.43,5.43a1,1,0,0,0,1.4-1.4Z"/></g></g></g></svg>