<svg id="Layer_1" data-name="Layer 1" xmlns="http://www.w3.org/2000/svg" viewBox="0 0 100 100"><defs><style>.cls-1{fill:#3692cc;fill-opacity:0.5;}</style></defs><title>detail_pre-pharmacy</title><g id="Icons"><g id="icons-_-mi_pre-pharmacy" data-name="icons-/-mi_pre-pharmacy"><g id="pre-pharmacy"><path id="bg" class="cls-1" d="M52.77,63.33v9.23H44.56V63.33H35.33V56.15h9.23V46.92h8.21v9.23H62v7.18Z"/><path id="cross" d="M52.77,61.28a1,1,0,0,1,1-1H62V55.13H53.79a1,1,0,0,1-1-1V45.9H46.62V54.1a1,1,0,0,1-1,1H37.38v5.13h8.21a1,1,0,0,1,1,1v8.21h6.15Zm2.05,9.23a1,1,0,0,1-1,1H45.59a1,1,0,0,1-1-1V62.31H36.36a1,1,0,0,1-1-1V54.1a1,1,0,0,1,1-1h8.21V44.87a1,1,0,0,1,1-1h8.21a1,1,0,0,1,1,1v8.21H63a1,1,0,0,1,1,1v7.18a1,1,0,0,1-1,1H54.82Z"/><g id="bottle"><g id="top"><path id="Rectangle-47" d="M73.28,21.28V15.64a3.59,3.59,0,0,0-3.59-3.59h-40a3.59,3.59,0,0,0-3.59,3.59v5.64ZM29.69,10h40a5.64,5.64,0,0,1,5.64,5.64v7.69H24.05V15.64A5.64,5.64,0,0,1,29.69,10Z"/><polygon id="Line" points="30.2 10.51 30.2 22.82 32.26 22.82 32.26 10.51 30.2 10.51"/><polygon id="Line-Copy" points="36.36 10.51 36.36 22.82 38.41 22.82 38.41 10.51 36.36 10.51"/><polygon id="Line-Copy-2" points="42.51 10.51 42.51 22.82 44.56 22.82 44.56 10.51 42.51 10.51"/><polygon id="Line-Copy-3" points="48.67 10.51 48.67 22.82 50.72 22.82 50.72 10.51 48.67 10.51"/><polygon id="Line-Copy-4" points="54.82 10.51 54.82 22.82 56.87 22.82 56.87 10.51 54.82 10.51"/><polygon id="Line-Copy-5" points="60.97 10.51 60.97 22.82 63.03 22.82 63.03 10.51 60.97 10.51"/><polygon id="Line-Copy-6" points="67.13 10.51 67.13 22.82 69.18 22.82 69.18 10.51 67.13 10.51"/></g><g id="lines"><path id="Line-2-Copy-2" d="M23.54,79.74H75.33a1,1,0,1,0,0-2.05H23.54a1,1,0,1,0,0,2.05Z"/><path id="Line-2" d="M23.54,38.72H57.38a1,1,0,0,0,0-2.05H23.54a1,1,0,0,0,0,2.05Z"/><path id="Line-2-2" data-name="Line-2" d="M63,38.72H66.1a1,1,0,0,0,0-2.05H63a1,1,0,1,0,0,2.05Z"/><path id="Line-2-Copy" d="M70.21,38.72h6.15a1,1,0,1,0,0-2.05H70.21a1,1,0,1,0,0,2.05Z"/></g><path d="M29.48,25.69c.44-.44.73-1.57.73-3.38v-1h39v1c0,1.8.28,2.93.73,3.38a3.21,3.21,0,0,0,2.35.73,5.16,5.16,0,0,1,3.8,1.33,5.16,5.16,0,0,1,1.33,3.8V84.87A5.13,5.13,0,0,1,72.26,90H27.13A5.13,5.13,0,0,1,22,84.87V31.54a5.16,5.16,0,0,1,1.33-3.8A5.11,5.11,0,0,1,27,26.41,6.43,6.43,0,0,0,29.48,25.69Zm1.45,1.45c-.61.61-1.78,1-3.63,1.31h-.17a3.21,3.21,0,0,0-2.35.73,3.21,3.21,0,0,0-.73,2.35V84.87a3.08,3.08,0,0,0,3.08,3.08H72.26a3.08,3.08,0,0,0,3.08-3.08V31.54a3.21,3.21,0,0,0-.73-2.35,3.21,3.21,0,0,0-2.35-.73,5.16,5.16,0,0,1-3.8-1.33,5.74,5.74,0,0,1-1.3-3.8H32.23A5.74,5.74,0,0,1,30.93,27.14Z"/></g></g></g></g></svg>