<svg id="Layer_1" data-name="Layer 1" xmlns="http://www.w3.org/2000/svg" viewBox="0 0 100 100"><defs><style>.cls-1{fill:#3692cc;fill-opacity:0.5;}</style></defs><title>setting_rural</title><g id="Icons"><g id="icons-_-mi_rural" data-name="icons-/-mi_rural"><g id="Group"><path id="bg" class="cls-1" d="M42.86,33.42,74,85H10L41.14,33.42h0a1,1,0,0,1,1.71,0Z"/><path id="Line-2" d="M24,77H39a1,1,0,0,0,0-2H24a1,1,0,0,0,0,2Z"/><path id="Line-2-Copy" d="M32,72H42a1,1,0,0,0,0-2H32a1,1,0,0,0,0,2Z"/><path id="Triangle-2" d="M44,32.93,13.77,83H74.23ZM77.77,85H10.23L42.29,31.9a2,2,0,0,1,3.42,0Z"/><path id="Line" d="M8,85H92a1,1,0,0,0,0-2H8a1,1,0,0,0,0,2Z"/><path id="Line-Copy" d="M13,90H88a1,1,0,0,0,0-2H13a1,1,0,0,0,0,2Z"/><path id="Path-7" d="M33.29,48.71,37.55,53a2,2,0,0,0,2.83,0l.07-.07L44,49l3.55,3.92a2,2,0,0,0,2.82.14l.07-.07,4.26-4.26-1.41-1.41L49,51.55l-3.55-3.92-.14-.14a2,2,0,0,0-2.82.14L39,51.55l-4.26-4.26Z"/><path id="Combined-Shape" d="M63,20H73a4,4,0,1,0-3.41-6.08l-.47.77-.81-.39a3,3,0,0,0-3.92,1.24l-.35.61-.7-.12L63,16a2,2,0,0,0,0,4ZM73,10a6,6,0,0,1,0,12H63a4,4,0,0,1,0-8,5,5,0,0,1,5.37-1.81A6,6,0,0,1,73,10Z"/><path id="Path-6" d="M59.85,55.53,64,48.86,87.16,84.54l1.68-1.09L65.69,47.77a2,2,0,0,0-3.37,0l-4.17,6.67Z"/></g></g></g></svg>