<svg id="Layer_1" data-name="Layer 1" xmlns="http://www.w3.org/2000/svg" viewBox="0 0 100 100"><defs><style>.cls-1{fill:#3692cc;fill-opacity:0.5;}</style></defs><title>setting_town</title><g id="Icons"><g id="icons-_-mi_town" data-name="icons-/-mi_town"><g id="Group"><path id="bg" class="cls-1" d="M30,12H54a2,2,0,0,1,2,2v4H28V14h0A2,2,0,0,1,30,12Z"/><path id="bg-2" data-name="bg" class="cls-1" d="M55.55,46H87.45a1,1,0,0,1,1,.7l3.18,10h0a1,1,0,0,1-1,1.3H52.37a1,1,0,0,1-1-1.3l3.18-10h0A1,1,0,0,1,55.55,46Z"/><path id="Line-3-Copy-3" d="M14.86,85h4.29a1,1,0,0,0,0-2H14.86a1,1,0,0,0,0,2Z"/><path id="Line-3-Copy-4" d="M10.86,82h4.29a1,1,0,0,0,0-2H10.86a1,1,0,0,0,0,2Z"/><g id="building"><path id="Line-Copy" d="M43.73,23.83v-3a1,1,0,0,0-2,0v3a1,1,0,1,0,2,0Z"/><path id="Line-Copy-13" d="M36.81,23.83v-3a1,1,0,0,0-2,0v3a1,1,0,1,0,2,0Z"/><path id="Line-Copy-14" d="M36.81,33.7v-3a1,1,0,1,0-2,0v3a1,1,0,0,0,2,0Z"/><path id="Line-Copy-7" d="M50.64,23.83v-3a1,1,0,1,0-2,0v3a1,1,0,1,0,2,0Z"/><path id="Line-Copy-8" d="M50.64,33.7v-3a1,1,0,1,0-2,0v3a1,1,0,0,0,2,0Z"/><path id="Line-Copy-9" d="M50.64,43.58v-3a1,1,0,1,0-2,0v3a1,1,0,1,0,2,0Z"/><path id="Line-Copy-2" d="M43.73,33.7v-3a1,1,0,1,0-2,0v3a1,1,0,0,0,2,0Z"/></g><polygon id="Line" points="27.93 16.91 57.56 16.91 57.56 14.94 27.93 14.94 27.93 16.91"/><path id="Rectangle-15" d="M28.91,43.93V13h0a1,1,0,0,1,1-1H55.58a1,1,0,0,1,1,1V45.62h2V13a3,3,0,0,0-3-3H29.9a3,3,0,0,0-3,3V44"/><path id="Line-2" data-name="Line" d="M7.14,89H94.86a1,1,0,1,0,0-2H7.14a1,1,0,1,0,0,2Z"/><path id="Rectangle-9" d="M39,51V46h3V56h2V46a2,2,0,0,0-2-2H39a2,2,0,0,0-2,2v5Z"/><path id="Line-3" d="M54,75V87.5a1,1,0,0,0,2,0V75a1,1,0,0,0-2,0Z"/><path id="Line-3-2" data-name="Line-3" d="M54,56v3a1,1,0,0,0,2,0V56a1,1,0,0,0-2,0Z"/><path id="Rectangle-10" d="M8.91,61.67,28.49,44.21,46.64,60,48,58.49,28.47,41.55,7.58,60.18A2,2,0,0,0,7.38,63l.68.81a2,2,0,0,0,2.82.17l17.64-15.7,15.1,12.9,1.3-1.52-16.43-14L9.56,62.44Z"/><g id="tree"><path id="Oval-8" d="M50.15,77.16A9.88,9.88,0,1,1,60,67.28,9.88,9.88,0,0,1,50.15,77.16Zm0-2a7.9,7.9,0,1,0-7.9-7.9A7.9,7.9,0,0,0,50.15,75.19Z"/><path id="Line-2-2" data-name="Line-2" d="M49.16,68.27V88a1,1,0,0,0,2,0V68.27a1,1,0,0,0-2,0Z"/><path id="Oval-9" d="M45.21,68.27a4.94,4.94,0,1,0,9.88,0,1,1,0,0,0-2,0,3,3,0,1,1-5.93,0,1,1,0,0,0-2,0Z"/></g><polygon id="Line-4" points="10 63 10 89 12 89 12 63 10 63"/><polygon id="Line-4-2" data-name="Line-4" points="91 55 91 88 93 88 93 55 91 55"/><polygon id="Line-4-Copy" points="46 75 46 89 48 89 48 75 46 75"/><path id="Rectangle-23" d="M18,69v8h8V69Zm0-2h8a2,2,0,0,1,2,2v8a2,2,0,0,1-2,2H18a2,2,0,0,1-2-2V69A2,2,0,0,1,18,67Z"/><path id="Rectangle-23-Copy" d="M35,75V87h6V75Zm0-2h6a2,2,0,0,1,2,2V87a2,2,0,0,1-2,2H35a2,2,0,0,1-2-2V75A2,2,0,0,1,35,73Z"/><polygon id="Line-5" points="21 68.5 21 78.5 23 78.5 23 68.5 21 68.5"/><polygon id="Line-6" points="17 74 28 74 28 72 17 72 17 74"/><circle id="Oval-10" cx="39" cy="82" r="1"/><path id="Rectangle-23-Copy-2" data-name="Rectangle-23-Copy" d="M80,73V87h7V73Zm0-2h7a2,2,0,0,1,2,2V87a2,2,0,0,1-2,2H80a2,2,0,0,1-2-2V73A2,2,0,0,1,80,71Z"/><circle id="Oval-10-2" data-name="Oval-10" cx="85" cy="82" r="1"/><path id="Rectangle-24" d="M57.44,47l-2.67,8H92.23l-2.67-8Zm-.72-2H90.28a1,1,0,0,1,.95.68l3.33,10A1,1,0,0,1,93.61,57H53.39a1,1,0,0,1-.95-1.32l3.33-10A1,1,0,0,1,56.72,45Z"/><path id="Rectangle-25" d="M59,72v8H74V72Zm0-2H74a2,2,0,0,1,2,2v8a2,2,0,0,1-2,2H59a2,2,0,0,1-2-2V72A2,2,0,0,1,59,70Z"/><path id="Line-3-Copy-4-2" data-name="Line-3-Copy-4" d="M60.86,75h4.29a1,1,0,0,0,0-2H60.86a1,1,0,0,0,0,2Z"/><path id="Line-3-Copy-3-2" data-name="Line-3-Copy-3" d="M81.86,65h4.29a1,1,0,0,0,0-2H81.86a1,1,0,0,0,0,2Z"/><path id="Line-3-Copy-4-3" data-name="Line-3-Copy-4" d="M87.86,62h4.29a1,1,0,0,0,0-2H87.86a1,1,0,0,0,0,2Z"/></g></g></g></svg>