<svg id="Layer_1" data-name="Layer 1" xmlns="http://www.w3.org/2000/svg" viewBox="0 0 100 100"><defs><style>.cls-1{fill:#3692cc;fill-opacity:0.5;}</style></defs><title>setting_city</title><g id="Icons"><g id="icons-_-mi_city" data-name="icons-/-mi_city"><g id="great-value"><path id="bg" class="cls-1" d="M71,88c0,1.1-.9,1-2,1H43c-1.1,0-2,.1-2-1V43a2,2,0,0,1,2-2H69a2,2,0,0,1,2,2Z"/><path id="Line-Copy" d="M32.73,23.83v-3a1,1,0,0,0-2,0v3a1,1,0,0,0,2,0Z"/><path id="Line-Copy-13" d="M25.81,23.83v-3a1,1,0,1,0-2,0v3a1,1,0,0,0,2,0Z"/><path id="Line-Copy-14" d="M25.81,33.7v-3a1,1,0,0,0-2,0v3a1,1,0,1,0,2,0Z"/><path id="Line-Copy-15" d="M25.81,43.58v-3a1,1,0,1,0-2,0v3a1,1,0,1,0,2,0Z"/><path id="Line-Copy-16" d="M25.81,53.46v-3a1,1,0,1,0-2,0v3a1,1,0,0,0,2,0Z"/><path id="Line-Copy-17" d="M25.81,63.33v-3a1,1,0,0,0-2,0v3a1,1,0,1,0,2,0Z"/><path id="Line-Copy-18" d="M25.81,73.21v-3a1,1,0,1,0-2,0v3a1,1,0,1,0,2,0Z"/><path id="Line-Copy-7" d="M39.64,23.83v-3a1,1,0,0,0-2,0v3a1,1,0,0,0,2,0Z"/><path id="Line-Copy-8" d="M39.64,33.7v-3a1,1,0,0,0-2,0v3a1,1,0,1,0,2,0Z"/><path id="Line-Copy-9" d="M39.64,43.58v-3a1,1,0,1,0-2,0v3a1,1,0,1,0,2,0Z"/><path id="Line-Copy-10" d="M39.64,53.46v-3a1,1,0,1,0-2,0v3a1,1,0,0,0,2,0Z"/><path id="Line-Copy-11" d="M39.64,63.33v-3a1,1,0,0,0-2,0v3a1,1,0,1,0,2,0Z"/><path id="Line-Copy-12" d="M39.64,73.21v-3a1,1,0,1,0-2,0v3a1,1,0,1,0,2,0Z"/><path id="Line-Copy-2" d="M32.73,33.7v-3a1,1,0,0,0-2,0v3a1,1,0,1,0,2,0Z"/><path id="Line-Copy-3" d="M32.73,43.58v-3a1,1,0,1,0-2,0v3a1,1,0,1,0,2,0Z"/><path id="Line-Copy-19" d="M59.4,53.46v-3a1,1,0,1,0-2,0v3a1,1,0,0,0,2,0Z"/><path id="Line-Copy-20" d="M52.48,53.46v-3a1,1,0,1,0-2,0v3a1,1,0,0,0,2,0Z"/><path id="Line-Copy-21" d="M52.48,63.33v-3a1,1,0,0,0-2,0v3a1,1,0,1,0,2,0Z"/><path id="Line-Copy-22" d="M52.48,73.21v-3a1,1,0,1,0-2,0v3a1,1,0,1,0,2,0Z"/><path id="Line-Copy-23" d="M66.31,53.46v-3a1,1,0,1,0-2,0v3a1,1,0,0,0,2,0Z"/><path id="Line-Copy-24" d="M66.31,63.33v-3a1,1,0,0,0-2,0v3a1,1,0,1,0,2,0Z"/><path id="Line-Copy-25" d="M66.31,73.21v-3a1,1,0,0,0-2,0v3a1,1,0,0,0,2,0Z"/><path id="Line-Copy-26" d="M59.4,63.33v-3a1,1,0,0,0-2,0v3a1,1,0,1,0,2,0Z"/><path id="Line-Copy-27" d="M59.4,73.21v-3a1,1,0,1,0-2,0v3a1,1,0,1,0,2,0Z"/><path id="Line-Copy-4" d="M32.73,53.46v-3a1,1,0,1,0-2,0v3a1,1,0,0,0,2,0Z"/><path id="Line-Copy-5" d="M32.73,63.33v-3a1,1,0,0,0-2,0v3a1,1,0,1,0,2,0Z"/><path id="Line-Copy-6" d="M32.73,73.21v-3a1,1,0,1,0-2,0v3a1,1,0,1,0,2,0Z"/><path id="Line-Copy-28" d="M32.73,88V79.14a1,1,0,1,0-2,0V88a1,1,0,1,0,2,0Z"/><path id="Rectangle-15" d="M17.91,13a1,1,0,0,1,1-1H44.58a1,1,0,0,1,1,1V40.62h2V13a3,3,0,0,0-3-3H18.9a3,3,0,0,0-3,3V87a1.79,1.79,0,0,0,1.12,1.79,3.74,3.74,0,0,0,1.6.18H45.57V87H18.64a6.66,6.66,0,0,1-.72,0Z"/><path id="Rectangle-15-Copy" d="M71.51,87H45.3a6.66,6.66,0,0,1-.72,0V42.59a1,1,0,0,1,1-1H71.25a1,1,0,0,1,1,1V60.37h2V42.59a3,3,0,0,0-3-3H45.57a3,3,0,0,0-3,3V87a1.79,1.79,0,0,0,1.12,1.79,3.74,3.74,0,0,0,1.6.18H71.5a3.74,3.74,0,0,0,1.6-.18A1.79,1.79,0,0,0,74.21,87V74.2h-2V87A6.66,6.66,0,0,1,71.51,87Z"/><polygon id="Line" points="16.93 16.91 46.56 16.91 46.56 14.94 16.93 14.94 16.93 16.91"/><polygon id="Line-2" data-name="Line" points="43.59 46.54 73.22 46.54 73.22 44.57 43.59 44.57 43.59 46.54"/><path id="Line-3" data-name="Line" d="M12,89H88a1,1,0,0,0,0-2H12a1,1,0,1,0,0,2Z"/><path id="Oval-8" d="M79.15,77.16A9.88,9.88,0,1,1,89,67.28,9.88,9.88,0,0,1,79.15,77.16Zm0-2a7.9,7.9,0,1,0-7.9-7.9A7.9,7.9,0,0,0,79.15,75.19Z"/><path id="Line-2-2" data-name="Line-2" d="M78.16,68.27V88a1,1,0,0,0,2,0V68.27a1,1,0,0,0-2,0Z"/><path id="Oval-9" d="M74.21,68.27a4.94,4.94,0,0,0,9.88,0,1,1,0,1,0-2,0,3,3,0,0,1-5.93,0,1,1,0,0,0-2,0Z"/><path id="Rectangle-16" d="M24.83,80.12V87H38.65V80.12Zm0-2H38.65a2,2,0,0,1,2,2V87a2,2,0,0,1-2,2H24.83a2,2,0,0,1-2-2V80.12A2,2,0,0,1,24.83,78.15Z"/><path id="Line-Copy-28-2" data-name="Line-Copy-28" d="M59.4,88V79.14a1,1,0,1,0-2,0V88a1,1,0,1,0,2,0Z"/><path id="Rectangle-16-2" data-name="Rectangle-16" d="M51.49,80.12V87H65.32V80.12Zm0-2H65.32a2,2,0,0,1,2,2V87a2,2,0,0,1-2,2H51.49a2,2,0,0,1-2-2V80.12A2,2,0,0,1,51.49,78.15Z"/></g></g></g></svg>