<svg id="Layer_1" data-name="Layer 1" xmlns="http://www.w3.org/2000/svg" viewBox="0 0 100 100"><defs><style>.cls-1{fill:#3692cc;fill-opacity:0.5;}</style></defs><title>setting_suburb</title><g id="Icons"><g id="icons-_-mi_suburb" data-name="icons-/-mi_suburb"><g id="Group"><path id="bg" class="cls-1" d="M17.4,21.07H79.05a2,2,0,0,1,1.87,1.28l5.4,14.11h0a2,2,0,0,1-1.87,2.72H12a2,2,0,0,1-1.87-2.72l5.4-14.11h0A2,2,0,0,1,17.4,21.07Z"/><path id="Line-3" d="M17,73.66h7a1.16,1.16,0,0,0,0-2.29H17a1.16,1.16,0,0,0,0,2.29Z"/><path id="Line-3-Copy" d="M22.07,78.69h4a1.16,1.16,0,0,0,0-2.29h-4a1.16,1.16,0,0,0,0,2.29Z"/><path id="Line-3-Copy-2" d="M75.39,74.66h4a1.16,1.16,0,0,0,0-2.29h-4a1.16,1.16,0,0,0,0,2.29Z"/><path id="Line-3-Copy-3" d="M70.36,79.69h5a1.16,1.16,0,0,0,0-2.29h-5a1.16,1.16,0,0,0,0,2.29Z"/><path id="Rectangle-17" d="M25.09,12v7h7V12Zm0-2h7a2,2,0,0,1,2,2v7a2,2,0,0,1-2,2h-7a2,2,0,0,1-2-2V12A2,2,0,0,1,25.09,10Z"/><path id="Rectangle-18" d="M19.49,21.07,14,35.15H87.46L82,21.07Zm0-2H82a2,2,0,0,1,1.88,1.28l5.47,14.08a2,2,0,0,1-1.88,2.74H14a2,2,0,0,1-1.88-2.74l5.47-14.08A2,2,0,0,1,19.49,19.05Z"/><polygon id="Line" points="15.03 31.41 86.45 31.41 86.45 29.11 15.03 29.11 15.03 31.41"/><path id="Rectangle-19" d="M18,37.16V82.43H83.43V37.16Zm-2-2H85.45V84.44H16Z"/><path id="Rectangle-20" d="M14,84.44v3H87.46v-3Zm0-2H87.46a2,2,0,0,1,2,2v3a2,2,0,0,1-2,2H14a2,2,0,0,1-2-2v-3A2,2,0,0,1,14,82.43Z"/><path id="Rectangle-21" d="M24.08,49.23V61.3H36.15V49.23Zm0-2H36.15a2,2,0,0,1,2,2V61.3a2,2,0,0,1-2,2H24.08a2,2,0,0,1-2-2V49.23A2,2,0,0,1,24.08,47.22Z"/><polygon id="Line-2" points="29.11 47.22 29.11 63.31 31.41 63.31 31.41 47.22 29.11 47.22"/><polygon id="Line-2-2" data-name="Line-2" points="22.07 56.55 38.17 56.55 38.17 54.26 22.07 54.26 22.07 56.55"/><path id="Rectangle-21-2" data-name="Rectangle-21" d="M65.33,49.23V61.3H77.4V49.23Zm0-2H77.4a2,2,0,0,1,2,2V61.3a2,2,0,0,1-2,2H65.33a2,2,0,0,1-2-2V49.23A2,2,0,0,1,65.33,47.22Z"/><polygon id="Line-2-3" data-name="Line-2" points="70.36 47.22 70.36 63.31 72.65 63.31 72.65 47.22 70.36 47.22"/><polygon id="Line-2-4" data-name="Line-2" points="63.31 56.55 79.41 56.55 79.41 54.26 63.31 54.26 63.31 56.55"/><path id="Rectangle-22" d="M44.2,62.31V82.43H57.28V62.31Zm0-2H57.28a2,2,0,0,1,2,2V82.43a2,2,0,0,1-2,2H44.2a2,2,0,0,1-2-2V62.31A2,2,0,0,1,44.2,60.3Z"/><circle id="Oval" cx="53.4" cy="72.51" r="1.15"/></g></g></g></svg>