<?xml version="1.0" standalone="no"?><!-- Generator: Gravit.io --><svg xmlns="http://www.w3.org/2000/svg" xmlns:xlink="http://www.w3.org/1999/xlink" style="isolation:isolate" viewBox="0 0 100 100" width="100" height="100"><defs><clipPath id="_clipPath_0kUKBNOdEqA6BmIiXMjX4UxfZBq0Fvzy"><rect width="100" height="100"/></clipPath></defs><g clip-path="url(#_clipPath_0kUKBNOdEqA6BmIiXMjX4UxfZBq0Fvzy)"><clipPath id="_clipPath_A0f6Tg6V3MMJkoTvNTIvk8Y9Osp3UxNB"><rect x="0" y="0" width="100" height="100" transform="matrix(1,0,0,1,0,0)" fill="rgb(255,255,255)"/></clipPath><g clip-path="url(#_clipPath_A0f6Tg6V3MMJkoTvNTIvk8Y9Osp3UxNB)"><path d=" M 91.172 83.329 C 91.172 84.231 90.441 84.963 89.545 84.963 L 51.838 84.963 C 49.128 84.955 46.935 82.756 46.934 80.046 L 46.934 39.084 C 46.934 36.369 49.13 34.169 51.838 34.169 L 89.546 34.169 C 89.979 34.167 90.394 34.339 90.7 34.645 C 91.006 34.952 91.176 35.368 91.173 35.8 L 91.173 83.328 L 91.172 83.329 L 91.172 83.329 Z " fill-rule="evenodd" fill="rgb(54,146,204)" fill-opacity="0.5"/><path d=" M 60.443 72.895 C 60.443 73.446 59.995 73.894 59.443 73.894 C 58.891 73.894 58.443 73.446 58.443 72.895 C 58.443 72.343 58.891 71.895 59.443 71.895 C 59.995 71.895 60.443 72.343 60.443 72.895 Z " fill="rgb(0,0,0)"/><path d=" M 76.808 40.125 C 76.808 40.677 76.36 41.125 75.807 41.125 C 75.255 41.125 74.808 40.677 74.808 40.125 C 74.808 39.573 75.255 39.125 75.807 39.125 C 76.36 39.125 76.808 39.573 76.808 40.125 Z " fill="rgb(0,0,0)"/><path d=" M 6 46.607 C 4.716 47.81 3.913 49.574 3.913 51.519 C 3.913 53.915 5.125 56.035 6.953 57.174 C 6.078 58.317 5.551 59.774 5.551 61.35 C 5.551 63.746 6.763 65.866 8.591 67.005 C 7.717 68.148 7.19 69.605 7.19 71.181 C 7.19 74.766 9.903 77.407 13.324 77.407 L 52.129 77.407 L 52.129 78.684 C 52.129 79.788 53.025 80.684 54.129 80.684 L 92.087 80.684 C 93.191 80.684 94.087 79.788 94.087 78.684 L 94.087 32.892 C 94.087 31.788 93.191 30.892 92.087 30.892 L 53.848 30.892 C 52.744 30.892 51.848 31.788 51.848 32.892 L 51.848 36.053 L 42.044 35.941 L 28.457 17.566 L 28.457 17.566 C 26.491 14.758 23.75 13.75 20.557 16.283 C 16.75 18.563 17 21.875 18.648 24.982 L 24.468 35.807 L 10.052 35.807 C 6.639 35.807 3.913 38.105 3.913 41.688 C 3.913 43.637 4.715 45.404 6 46.607 Z  M 9.052 45.638 L 9.052 45.638 L 22.356 45.638 L 22.356 45.638 L 22.356 45.638 L 22.356 45.638 C 23.26 45.638 23.994 45.702 23.994 46.607 L 23.994 46.607 L 23.994 46.607 C 23.994 47.512 23.26 47.915 22.356 47.915 L 9.052 47.915 L 9.052 47.915 C 7.515 47.915 6.19 49.685 6.19 51.519 C 6.19 53.356 7.506 55.469 9.047 55.469 L 10.691 55.469 L 22.356 55.469 C 23.26 55.469 23.994 55.533 23.994 56.438 L 23.994 56.438 L 23.994 56.438 C 23.994 57.343 23.26 57.746 22.356 57.746 L 10.691 57.746 C 9.154 57.746 7.828 59.516 7.828 61.35 C 7.828 63.186 9.144 65.3 10.686 65.3 L 12.329 65.3 L 12.329 65.3 L 22.356 65.3 L 22.356 65.3 C 23.26 65.3 23.994 65.364 23.994 66.269 L 23.994 66.269 C 23.994 67.174 23.26 67.577 22.356 67.577 L 12.329 67.577 L 12.329 67.577 C 10.792 67.577 9.467 69.347 9.467 71.181 C 9.467 73.017 11.782 75.13 13.324 75.13 L 51.848 75.13 L 51.848 38.33 L 41.302 38.197 L 26.468 18.563 C 24.714 15.911 22.911 16.814 20.875 18.5 C 18.969 20.078 19.583 22.421 20.125 23.469 Q 20.419 24.038 26.468 35.327 C 26.742 35.62 26.91 36.013 26.91 36.446 C 26.91 37.35 26.176 38.084 25.271 38.084 L 9.052 38.084 C 7.515 38.084 6.19 39.854 6.19 41.688 C 6.19 43.525 7.506 45.638 9.047 45.638 L 9.052 45.638 Z  M 67.233 33.169 L 91.81 33.169 L 91.81 78.407 L 67.233 78.407 L 67.233 33.169 L 67.233 33.169 L 67.233 33.169 L 67.233 33.169 Z  M 64.956 33.169 L 54.125 33.169 L 54.125 78.407 L 64.956 78.407 L 64.956 33.169 L 64.956 33.169 L 64.956 33.169 L 64.956 33.169 Z " fill-rule="evenodd" fill="rgb(0,0,0)"/><path d=" M 74.808 46.457 L 74.808 54.65 C 74.808 55.554 75.255 56.288 75.807 56.288 C 76.36 56.288 76.808 55.554 76.808 54.65 L 76.808 46.457 C 76.808 45.552 76.36 44.819 75.807 44.819 C 75.255 44.819 74.808 45.552 74.808 46.457 Z " fill="rgb(0,0,0)"/></g></g></svg>