<svg width="100" height="100" xmlns="http://www.w3.org/2000/svg"><g transform="translate(10 10)" fill="none" fill-rule="evenodd"><path d="M36.82 1.194c-7.251 0-13.133 6.47-13.133 14.448 0 10.836 13.134 26.831 13.134 26.831s13.134-15.995 13.134-26.831c0-7.977-5.882-14.448-13.134-14.448z" fill-opacity=".5" fill="#3692CC"/><g transform="translate(0 22)" fill-rule="nonzero" fill="#000"><path d="M39.945 58.889a1 1 0 0 0 .916 0l19.243-9.913 19.244 9.913A1 1 0 0 0 80.806 58V11.433a1 1 0 0 0-.542-.89L60.562.396a1 1 0 0 0-.905-.006l-5.97 2.985a1 1 0 1 0 .895 1.79l5.516-2.759 18.708 9.638V56.36l-18.244-9.398a1 1 0 0 0-.915 0l-19.244 9.913-19.244-9.913a1 1 0 0 0-.915 0L2 56.36V12.043l18.708-9.638 5.516 2.758a1 1 0 0 0 .895-1.789L21.149.39a1 1 0 0 0-.905.006L.542 10.544a1 1 0 0 0-.542.889V58a1 1 0 0 0 1.458.889l19.243-9.913 19.244 9.913z"/><path d="M19.701 2v46a1 1 0 0 0 2 0V2a1 1 0 1 0-2 0zm39.403 0v46a1 1 0 0 0 2 0V2a1 1 0 1 0-2 0zM39.403 26.955V58a1 1 0 1 0 2 0V26.955a1 1 0 1 0-2 0z"/></g><path d="M40.403-1C47.9-1 53.94 5.644 53.94 13.791c0 2.514-.683 5.375-1.945 8.526-1.107 2.764-2.633 5.684-4.47 8.682a91.672 91.672 0 0 1-5.796 8.344c-.262.335-.45.57-.553.695a1 1 0 0 1-1.546 0c-.103-.126-.291-.36-.553-.695a91.672 91.672 0 0 1-5.795-8.345c-1.838-2.997-3.364-5.917-4.471-8.68-1.262-3.152-1.945-6.013-1.945-8.527C26.866 5.644 32.906-1 40.403-1zm1.154 37.262a89.696 89.696 0 0 0 4.262-6.31c1.784-2.907 3.259-5.73 4.32-8.379 1.175-2.934 1.801-5.558 1.801-7.782C51.94 6.709 46.75 1 40.403 1c-6.348 0-11.537 5.709-11.537 12.791 0 2.224.626 4.848 1.802 7.782 1.06 2.649 2.535 5.472 4.319 8.38a89.696 89.696 0 0 0 5.416 7.838c.356-.46.743-.972 1.154-1.53zm-1.154-18.158a4.972 4.972 0 0 0 4.97-4.97 4.972 4.972 0 0 0-4.97-4.97 4.972 4.972 0 0 0-4.97 4.97 4.972 4.972 0 0 0 4.97 4.97zm0 2a6.972 6.972 0 0 1-6.97-6.97 6.972 6.972 0 0 1 6.97-6.97 6.972 6.972 0 0 1 6.97 6.97 6.972 6.972 0 0 1-6.97 6.97z" fill-rule="nonzero" fill="#000"/></g></svg>