<svg width="100" height="100" xmlns="http://www.w3.org/2000/svg" xmlns:xlink="http://www.w3.org/1999/xlink"><defs><path d="M48.395 28.642c0 7.05 5.306 12.764 11.852 12.764s11.852-5.715 11.852-12.764H48.395z" id="a"/><path d="M0 38.519c0 7.049 5.306 12.763 11.852 12.763 6.545 0 11.852-5.714 11.852-12.763H0z" id="b"/></defs><g transform="translate(12 10)" fill="none" fill-rule="evenodd"><g stroke-linecap="round" stroke-linejoin="round"><use fill-opacity=".5" fill="#3692CC" xlink:href="#a"/><path stroke-opacity=".5" stroke="#3692CC" d="M47.895 28.142H72.6v.5c0 7.317-5.522 13.264-12.352 13.264s-12.352-5.947-12.352-13.264v-.5z"/></g><g stroke-linecap="round" stroke-linejoin="round"><use fill-opacity=".5" fill="#3692CC" xlink:href="#b"/><path stroke-opacity=".5" stroke="#3692CC" d="M-.5 38.019h24.704v.5c0 7.317-5.522 13.263-12.352 13.263S-.5 45.836-.5 38.52v-.5z"/></g><g transform="translate(1.975)" fill-rule="nonzero" fill="#000"><path d="M2.665 15.302L33.773 9.08a1 1 0 0 0-.393-1.961L2.273 13.34a1 1 0 1 0 .392 1.962zM42.65 7.305l29.746-5.95a1 1 0 1 0-.392-1.96L42.257 5.343a1 1 0 1 0 .392 1.96z"/><path d="M37.53 11.864a4.95 4.95 0 1 1 0-9.901 4.95 4.95 0 0 1 0 9.901zm0-2a2.95 2.95 0 1 0 0-5.901 2.95 2.95 0 0 0 0 5.901z"/><path d="M36.5308642 11.345679L36.5308642 49.3950617 38.5308642 49.3950617 38.5308642 11.345679z"/><path d="M41.494 73.074H56.29a3.968 3.968 0 0 1 3.968 3.963A3.966 3.966 0 0 1 56.291 81H17.783a3.968 3.968 0 0 1-3.968-3.963 3.966 3.966 0 0 1 3.968-3.963h15.785v-21.72a3.963 3.963 0 0 1 3.963-3.959 3.957 3.957 0 0 1 3.963 3.96v21.72zm-2-21.72a1.963 1.963 0 0 0-3.926 0v23.72H17.783c-1.087 0-1.968.88-1.968 1.963 0 1.082.882 1.963 1.968 1.963H56.29c1.087 0 1.968-.88 1.968-1.963a1.968 1.968 0 0 0-1.968-1.963H39.494v-23.72zM5.428 36.531h16.799l-8.4-20.999-8.4 20.999zm9.328-24.063l9.876 24.691a1 1 0 0 1-.928 1.372H3.95a1 1 0 0 1-.929-1.372L12.9 12.47c.335-.839 1.521-.839 1.857 0zm38.08 14.186h16.798l-8.4-20.998-8.399 20.998zm9.327-24.062l9.877 24.69a1 1 0 0 1-.929 1.372H51.358a1 1 0 0 1-.928-1.371l9.876-24.691c.335-.839 1.522-.839 1.857 0z"/><path d="M-.506 37.53a1 1 0 0 1 1-1h25.679a1 1 0 0 1 1 1c0 8.174-6.18 14.828-13.84 14.828S-.507 45.704-.507 37.531zm13.84 12.828c6.212 0 11.332-5.197 11.803-11.827H1.53c.472 6.63 5.592 11.827 11.804 11.827zm34.061-22.704a1 1 0 0 1 1-1h25.68a1 1 0 0 1 1 1c0 8.173-6.18 14.827-13.84 14.827-7.661 0-13.84-6.654-13.84-14.827zm13.84 12.827c6.212 0 11.332-5.196 11.804-11.827H49.43c.472 6.63 5.592 11.827 11.805 11.827z"/><path d="M7.038 43.961c1.405 2.405 2.777 3.46 5.792 3.866a1 1 0 0 0 .267-1.982c-2.349-.317-3.217-.984-4.332-2.893a1 1 0 1 0-1.727 1.01zm48.395-9.876c1.405 2.404 2.777 3.459 5.792 3.866a1 1 0 0 0 .267-1.982c-2.349-.317-3.217-.985-4.332-2.893a1 1 0 1 0-1.727 1.009z"/></g></g></svg>