<svg id="Layer_1" data-name="Layer 1" xmlns="http://www.w3.org/2000/svg" viewBox="0 0 100 100"><defs><style>.cls-1{fill:#3692cc;fill-opacity:0.5;}</style></defs><title>tile-custom_lightbulb</title><g id="Icons"><g id="icons-_-mi_lightbulb" data-name="icons-/-mi_lightbulb"><g id="lightbulb"><g id="bulb"><path id="bg" class="cls-1" d="M60.32,76.66V70.51c5-5,13.38-8.57,13.38-22.9a26.27,26.27,0,1,0-52.54,0c0,14.33,8.36,17.91,13.13,22.9v6.15h0a2,2,0,0,0,2,2h22A2,2,0,0,0,60.32,76.66Z"/><circle id="Oval" cx="66.54" cy="46.42" r="1.19"/><circle id="Oval-Copy-15" cx="40.27" cy="26.12" r="1.19"/><circle id="Oval-Copy" cx="66.54" cy="51.19" r="1.19"/><circle id="Oval-Copy-2" cx="66.54" cy="55.97" r="1.19"/><circle id="Oval-Copy-3" cx="61.76" cy="55.97" r="1.19"/><circle id="Oval-Copy-6" cx="61.76" cy="60.75" r="1.19"/><circle id="Oval-Copy-7" cx="56.99" cy="60.75" r="1.19"/><circle id="Oval-Copy-8" cx="56.99" cy="65.52" r="1.19"/><circle id="Oval-Copy-9" cx="56.99" cy="70.3" r="1.19"/><circle id="Oval-Copy-10" cx="52.21" cy="70.3" r="1.19"/><circle id="Oval-Copy-11" cx="52.21" cy="65.52" r="1.19"/><circle id="Oval-Copy-13" cx="47.43" cy="65.52" r="1.19"/><circle id="Oval-Copy-14" cx="47.43" cy="70.3" r="1.19"/><circle id="Oval-Copy-12" cx="52.21" cy="60.75" r="1.19"/><circle id="Oval-Copy-5" cx="56.99" cy="55.97" r="1.19"/><circle id="Oval-Copy-4" cx="61.76" cy="51.19" r="1.19"/><path id="Oval-23" d="M63.9,73.88a3.58,3.58,0,0,1-3.58,3.58H39.07a3.58,3.58,0,0,1-3.58-3.58V68.61c-.4-.4-.85-.81-1.38-1.28s-2.54-2.19-3.17-2.75c-5.83-5.22-8.59-10.44-8.59-19.35a27.46,27.46,0,0,1,54.93,0c0,9.09-2.85,14.31-9,19.59-.61.53-2.65,2.23-3,2.52-.56.48-1,.89-1.44,1.29Zm-2.39-5.76a1.19,1.19,0,0,1,.35-.85c.55-.55,1.16-1.1,1.92-1.75.35-.3,2.39-2,3-2.51,5.62-4.86,8.13-9.46,8.13-17.79a25.07,25.07,0,0,0-50.15,0c0,8.17,2.44,12.78,7.79,17.57.61.54,2.75,2.38,3.16,2.74.73.65,1.32,1.2,1.85,1.76a1.19,1.19,0,0,1,.33.83v5.76a1.19,1.19,0,0,0,1.19,1.19H60.32a1.19,1.19,0,0,0,1.19-1.19Z"/><path id="Rectangle-41" d="M41.46,77.46v4.78a6,6,0,0,0,6,6h4.78a6,6,0,0,0,6-6V77.46Zm19.1-2.39v7.16a8.36,8.36,0,0,1-8.36,8.36H47.43a8.36,8.36,0,0,1-8.36-8.36V75.07Z"/><path id="Line" d="M58.78,79.85H50.42a1.19,1.19,0,0,0,0,2.39h8.36a1.19,1.19,0,1,0,0-2.39Z"/><path id="Line-Copy" d="M58.78,83.43H50.42a1.19,1.19,0,1,0,0,2.39h8.36a1.19,1.19,0,1,0,0-2.39Z"/><path id="Path-12" d="M29.52,45.22a20,20,0,0,1,2.26-9,16.85,16.85,0,0,1,5.56-6.7,1.19,1.19,0,0,0-1.32-2,19.2,19.2,0,0,0-6.38,7.62,22.38,22.38,0,0,0-2.51,10.09,1.19,1.19,0,1,0,2.39,0Z"/></g><g id="rays"><path id="Line-2" d="M26.44,65.67,24,68.25a1.19,1.19,0,0,0,1.72,1.66l2.49-2.58a1.19,1.19,0,1,0-1.72-1.66Z"/><path id="Line-3" d="M19.51,54.49l-3.32,1.35a1.19,1.19,0,1,0,.9,2.21l3.32-1.35a1.19,1.19,0,0,0-.9-2.21Z"/><path id="Line-4" d="M17.58,42.24H14a1.19,1.19,0,1,0,0,2.39h3.58a1.19,1.19,0,1,0,0-2.39Z"/><path id="Line-5" d="M20.46,30.06l-3.31-1.38a1.19,1.19,0,0,0-.92,2.2l3.31,1.38a1.19,1.19,0,0,0,.92-2.2Z"/><path id="Line-6" d="M23.65,18.95l2.53,2.53a1.19,1.19,0,0,0,1.69-1.69l-2.53-2.53a1.19,1.19,0,0,0-1.69,1.69Z"/><path id="Line-7" d="M37.81,15.39,36.62,12a1.19,1.19,0,0,0-2.25.79l1.19,3.4a1.19,1.19,0,1,0,2.25-.79Z"/><path id="Line-8" d="M49.82,13.58V10a1.19,1.19,0,0,0-2.39,0v3.58a1.19,1.19,0,0,0,2.39,0Z"/><path id="Line-9" d="M61.7,16.16l1.13-3.4A1.19,1.19,0,1,0,60.57,12l-1.13,3.4a1.19,1.19,0,0,0,2.27.76Z"/><path id="Line-10" d="M74,17l-2.49,2.58a1.19,1.19,0,0,0,1.72,1.66l2.49-2.58A1.19,1.19,0,1,0,74,17Z"/><path id="Line-11" d="M82.53,28.82l-3.31,1.37a1.19,1.19,0,0,0,.91,2.21L83.44,31a1.19,1.19,0,0,0-.91-2.21Z"/><path id="Line-12" d="M85.64,42.24H82.06a1.19,1.19,0,1,0,0,2.39h3.58a1.19,1.19,0,1,0,0-2.39Z"/><path id="Line-13" d="M79.23,56.8l3.31,1.37A1.19,1.19,0,1,0,83.45,56l-3.31-1.37a1.19,1.19,0,0,0-.91,2.21Z"/><path id="Line-14" d="M71.77,67.07l2.53,2.53A1.19,1.19,0,1,0,76,67.92l-2.53-2.53a1.19,1.19,0,0,0-1.69,1.69Z"/></g></g></g></g></svg>