<svg width="100" height="100" xmlns="http://www.w3.org/2000/svg"><g transform="translate(19 10)" fill="none" fill-rule="evenodd"><path d="M46.439 1.951c.55 0 .994.45.994.996v22.54c0 10.17-8.65 18.415-19.326 18.415-10.674 0-19.327-8.238-19.327-18.415V2.947c0-.55.448-.996.995-.996h36.664z" fill-opacity=".5" fill="#3692CC"/><path d="M13.474 1.951v22.693c0 9.689 8.055 17.545 18.01 17.545 9.952 0 18.008-7.86 18.008-17.545V1.951H13.474zm37.97-.975v23.668c0 10.774-8.94 19.496-19.96 19.496-11.022 0-19.961-8.719-19.961-19.496V.976c0-.54.437-.976.975-.976h37.97c.539 0 .976.437.976.976z" fill="#000" fill-rule="nonzero"/><path d="M19.646 31.712c2.116 3.62 4.116 5.158 8.643 5.769a.976.976 0 1 0 .26-1.934c-3.876-.523-5.385-1.683-7.219-4.82a.976.976 0 0 0-1.684.985zm-11.68-8.508L3.235 6.17h9.263V4.22H1.951a.976.976 0 0 0-.94 1.237L6.285 24.44a.976.976 0 0 0 .94.715h5.273v-1.951H7.966z" fill="#000" fill-rule="nonzero"/><path d="M58.755 6.17h-9.263V4.22h10.547a.976.976 0 0 1 .94 1.237L55.705 24.44a.976.976 0 0 1-.94.715h-5.273v-1.951h4.532L58.755 6.17z" fill="#000" fill-rule="nonzero"/><path fill="#000" fill-rule="nonzero" d="M12.0500989 11.4436388L50.9162821 11.4436388 50.9162821 9.49241925 12.0500989 9.49241925z"/><path d="M25.304 42.802l-.11.27a102.093 102.093 0 0 1-1.23 2.897c-.096.217-.19.425-.283.625-.377.82-.7 1.463-.945 1.87-.265.442-.716 1.07-1.302 1.824l-.308.393a74.886 74.886 0 0 1-1.982 2.39.976.976 0 0 0 1.474 1.28l.177-.206a82.294 82.294 0 0 0 2.18-2.66c.63-.811 1.12-1.493 1.434-2.018.29-.481.64-1.178 1.044-2.056a92.924 92.924 0 0 0 1.662-3.885.976.976 0 0 0-1.811-.724z" fill="#000" fill-rule="nonzero"/><path d="M37.663 42.802l.109.27a102.093 102.093 0 0 0 1.23 2.897c.097.217.191.425.283.625.378.82.702 1.463.945 1.87.266.442.716 1.07 1.303 1.824.1.128.202.26.308.393a74.886 74.886 0 0 0 1.981 2.39.976.976 0 0 1-1.474 1.28 82.29 82.29 0 0 1-2.356-2.865c-.63-.812-1.12-1.494-1.435-2.019-.288-.481-.639-1.178-1.044-2.056a92.924 92.924 0 0 1-1.662-3.885.976.976 0 0 1 1.812-.724z" fill="#000" fill-rule="nonzero"/><path d="M10.665 72.775h41.636l-5.712-18.088H16.378l-5.713 18.088zm4.997-20.04h31.642c.426 0 .802.277.93.682l6.328 20.04a.976.976 0 0 1-.93 1.27H9.334a.976.976 0 0 1-.93-1.27l6.328-20.04a.976.976 0 0 1 .93-.681z" fill="#000" fill-rule="nonzero"/><path d="M2.927 76.187v.401c0 .806.655 1.46 1.461 1.46h53.135c.806 0 1.462-.654 1.462-1.46v-.401c0-.805-.655-1.46-1.462-1.46H4.388c-.805 0-1.461.655-1.461 1.46zm-1.951 0a3.414 3.414 0 0 1 3.412-3.412h53.135a3.413 3.413 0 0 1 3.413 3.412v.401A3.414 3.414 0 0 1 57.523 80H4.388a3.413 3.413 0 0 1-3.412-3.412v-.401zm19.96-14.117H42.03a.976.976 0 0 0 0-1.951H20.936a.976.976 0 0 0 0 1.95zm1.055 5.273h18.985a.976.976 0 0 0 0-1.95H21.99a.976.976 0 1 0 0 1.95z" fill="#000" fill-rule="nonzero"/></g></svg>