<svg id="Layer_1" data-name="Layer 1" xmlns="http://www.w3.org/2000/svg" viewBox="0 0 100 100"><defs><style>.cls-1,.cls-4,.cls-5,.cls-6{fill:none;stroke:#fafafa;stroke-width:2px;}.cls-1,.cls-6{stroke-linecap:round;}.cls-1{stroke-linejoin:round;}.cls-2{fill:#fafafa;}.cls-3{fill:#3692cc;fill-opacity:0.5;}.cls-5{stroke-linecap:square;}</style></defs><title>tile_create</title><g id="Icons"><g id="icons-_-mi_create-inverse" data-name="icons-/-mi_create-inverse"><g id="create-inverse"><g id="extra"><path id="Rectangle-11" class="cls-1" d="M96.71,58V83.59A6.7,6.7,0,0,1,89.77,90H9.95A6.69,6.69,0,0,1,3,83.59V58"/><circle id="Oval-Copy" class="cls-2" cx="54.43" cy="15.71" r="1.14"/><circle id="Oval-Copy-2" data-name="Oval-Copy" class="cls-2" cx="46.43" cy="23.71" r="1.14"/><circle id="Oval-Copy-3" data-name="Oval-Copy" class="cls-2" cx="43" cy="11.14" r="1.14"/><circle id="Oval-Copy-4" data-name="Oval-Copy" class="cls-2" cx="83" cy="12.29" r="1.14"/><circle id="Oval-Copy-5" data-name="Oval-Copy" class="cls-2" cx="23.57" cy="21.43" r="1.14"/><circle id="Oval-Copy-6" data-name="Oval-Copy" class="cls-2" cx="75" cy="21.43" r="2.29"/><circle id="Oval-Copy-7" data-name="Oval-Copy" class="cls-2" cx="16.71" cy="13.43" r="2.29"/></g><g id="_3" data-name="3"><path id="Rectangle-12" class="cls-3" d="M86.29,37V74.72a9.14,9.14,0,0,1-18.29,0V37"/><path id="Rectangle-12-Copy-2" class="cls-4" d="M88.71,36.29V74a9.14,9.14,0,0,1-18.29,0V36.29"/><rect id="Rectangle-13-Copy-2" class="cls-4" x="67" y="29.43" width="25.14" height="6.86" rx="2" ry="2"/><path id="Line" class="cls-5" d="M71.57,55.71H88.71"/><circle id="Oval-Copy-8" data-name="Oval-Copy" class="cls-2" cx="80.71" cy="74" r="1.14"/><circle id="Oval-Copy-9" data-name="Oval-Copy" class="cls-2" cx="77.29" cy="62.57" r="1.14"/></g><g id="_2" data-name="2"><path id="Rectangle-12-2" data-name="Rectangle-12" class="cls-3" d="M56.54,37V74.72a9.14,9.14,0,0,1-18.29,0V37"/><path id="Rectangle-12-3" data-name="Rectangle-12" class="cls-4" d="M59,36.29V74a9.14,9.14,0,0,1-18.29,0V36.29"/><rect id="Rectangle-13" class="cls-4" x="37.29" y="29.43" width="25.14" height="6.86" rx="2" ry="2"/><circle id="Oval-Copy-10" data-name="Oval-Copy" class="cls-2" cx="52.14" cy="53.43" r="1.14"/><circle id="Oval-Copy-11" data-name="Oval-Copy" class="cls-2" cx="52.14" cy="74" r="1.14"/><circle id="Oval-Copy-12" data-name="Oval-Copy" class="cls-2" cx="46.43" cy="63.71" r="1.14"/><path id="Line-2" data-name="Line" class="cls-5" d="M41.86,46.57H59"/></g><g id="_1" data-name="1"><path id="Rectangle-12-4" data-name="Rectangle-12" class="cls-3" d="M26.86,37V74.72a9.14,9.14,0,0,1-18.29,0V37"/><path id="Rectangle-12-5" data-name="Rectangle-12" class="cls-4" d="M29.29,36.29V74A9.14,9.14,0,0,1,11,74V36.29"/><circle id="Oval" class="cls-2" cx="17.61" cy="74.44" r="1.11"/><circle id="Oval-2" data-name="Oval" class="cls-2" cx="23.57" cy="71.71" r="1.14"/><rect id="Rectangle-13-2" data-name="Rectangle-13" class="cls-4" x="7.57" y="29.43" width="25.14" height="6.86" rx="2" ry="2"/><path id="Line-Copy" class="cls-6" d="M17,50.93V42.4"/><path id="Line-3" data-name="Line" class="cls-5" d="M11.57,66H28.71"/></g></g></g></g></svg>