<svg id="Layer_1" data-name="Layer 1" xmlns="http://www.w3.org/2000/svg" viewBox="0 0 100 100"><defs><style>.cls-1{fill:#3692cc;fill-opacity:0.5;}</style></defs><title>tile-custom_camera</title><g id="Icons"><g id="icons-_-mi_camera" data-name="icons-/-mi_camera"><g id="camera"><circle id="bg" class="cls-1" cx="50.48" cy="54.77" r="17.35"/><path id="Rectangle" d="M13.65,29.71a1,1,0,0,0-1,1V75a1,1,0,0,0,1,1H86.91a1,1,0,0,0,1-1V30.67a1,1,0,0,0-1-1Zm0-1.93H86.91a2.89,2.89,0,0,1,2.89,2.89V75a2.89,2.89,0,0,1-2.89,2.89H13.65A2.89,2.89,0,0,1,10.76,75V30.67A2.89,2.89,0,0,1,13.65,27.78Z"/><path id="Oval-18" d="M52.41,71.16A18.31,18.31,0,1,1,70.72,52.84,18.31,18.31,0,0,1,52.41,71.16Zm0-1.93A16.39,16.39,0,1,0,36,52.84,16.39,16.39,0,0,0,52.41,69.23Z"/><path id="Oval-18-2" data-name="Oval-18" d="M52.41,65.37A12.53,12.53,0,1,1,64.94,52.84,12.53,12.53,0,0,1,52.41,65.37Zm0-1.93a10.6,10.6,0,1,0-10.6-10.6A10.6,10.6,0,0,0,52.41,63.45Z"/><path id="Oval-18-3" data-name="Oval-18" d="M34.1,39.35A3.86,3.86,0,1,1,38,35.49,3.86,3.86,0,0,1,34.1,39.35Zm0-1.93a1.93,1.93,0,1,0-1.93-1.93A1.93,1.93,0,0,0,34.1,37.42Z"/><path id="Rectangle-38" d="M72.65,33.57a1.93,1.93,0,1,0,0,3.86H79.4a1.93,1.93,0,1,0,0-3.86Zm0-1.93H79.4a3.86,3.86,0,1,1,0,7.71H72.65a3.86,3.86,0,1,1,0-7.71Z"/><path id="Rectangle-39" d="M12.89,36.46V68.27H24.46a1,1,0,0,0,1-1V37.42a1,1,0,0,0-1-1Zm11.57-1.93a2.89,2.89,0,0,1,2.89,2.89V67.3a2.89,2.89,0,0,1-2.89,2.89H11V34.53Z"/><path id="Rectangle-40" d="M34.1,24.89a1,1,0,0,0-1-1H24.46a1,1,0,0,0-1,1v2.89H34.1ZM24.46,22h8.67A2.89,2.89,0,0,1,36,24.89v4.82H21.57V24.89A2.89,2.89,0,0,1,24.46,22Z"/><circle id="Oval-19" cx="16.27" cy="40.8" r="1.45"/><circle id="Oval-19-Copy" cx="16.27" cy="45.61" r="1.45"/><circle id="Oval-19-Copy-2" cx="16.27" cy="50.43" r="1.45"/><circle id="Oval-19-Copy-3" cx="16.27" cy="55.25" r="1.45"/><circle id="Oval-19-Copy-4" cx="16.27" cy="60.07" r="1.45"/><circle id="Oval-19-Copy-5" cx="16.27" cy="64.89" r="1.45"/><circle id="Oval-19-Copy-6" cx="22.05" cy="64.89" r="1.45"/><circle id="Oval-19-Copy-7" cx="22.05" cy="60.07" r="1.45"/><circle id="Oval-19-Copy-8" cx="22.05" cy="55.25" r="1.45"/><circle id="Oval-19-Copy-9" cx="22.05" cy="50.43" r="1.45"/><circle id="Oval-19-Copy-10" cx="22.05" cy="45.61" r="1.45"/><circle id="Oval-19-Copy-11" cx="22.05" cy="40.8" r="1.45"/><path id="Oval-6" d="M49.44,45.11c-3.05,1.44-4.46,3-5.27,6.55a1,1,0,0,0,2,.46c.66-2.91,1.61-3.94,4.12-5.13a1,1,0,1,0-.89-1.88Z"/></g></g></g></svg>