<svg id="Layer_1" data-name="Layer 1" xmlns="http://www.w3.org/2000/svg" viewBox="0 0 100 100"><defs><style>.cls-1{fill:#3692cc;fill-opacity:0.5;}</style></defs><title>tile-custom_planet</title><g id="Icons"><g id="icons-_-mi_planet" data-name="icons-/-mi_planet"><g id="planet"><circle id="bg" class="cls-1" cx="49.42" cy="51.58" r="33.89"/><path id="Oval-20" d="M51.58,84.39a35,35,0,1,1,35-35A35,35,0,0,1,51.58,84.39Zm0-2.15A32.82,32.82,0,1,0,18.76,49.42,32.82,32.82,0,0,0,51.58,82.24Z"/><path id="Oval-21" d="M20.3,64.32c-5.41,9.16-7.49,16-4.65,18.85S24.72,84.63,33,79.82C40.83,75.27,50.07,67.89,58.93,59c9.21-9.21,16.82-18.84,21.32-26.85,4.39-7.82,5.6-13.65,2.83-16.43-3-3-8.53-2.24-16.17,2.19L68,19.8c6.89-4,11.47-4.63,13.57-2.53,1.8,1.8.75,6.84-3.18,13.85C74,39,66.49,48.43,57.41,57.51c-8.73,8.73-17.83,16-25.5,20.46-7.45,4.33-12.85,5.57-14.74,3.69s.13-8,5-16.24Z"/><path id="Oval-22" d="M39.74,43.51a4.84,4.84,0,1,1,4.84-4.84A4.84,4.84,0,0,1,39.74,43.51Zm0-2.15a2.69,2.69,0,1,0-2.69-2.69A2.69,2.69,0,0,0,39.74,41.35Z"/><path id="Oval-22-Copy" d="M38.13,63.95a3.23,3.23,0,1,1,3.23-3.23A3.23,3.23,0,0,1,38.13,63.95Zm0-2.15a1.08,1.08,0,1,0-1.08-1.08A1.08,1.08,0,0,0,38.13,61.8Z"/><path id="Oval-22-Copy-2" d="M61.8,33.82A3.23,3.23,0,1,1,65,30.59,3.23,3.23,0,0,1,61.8,33.82Zm0-2.15a1.08,1.08,0,1,0-1.08-1.08A1.08,1.08,0,0,0,61.8,31.67Z"/><circle id="Oval-19-Copy-11" cx="23.06" cy="41.35" r="1.08"/><circle id="Oval-19-Copy-14" cx="65.03" cy="71.48" r="1.08"/><circle id="Oval-19-Copy-40" cx="65.03" cy="75.78" r="1.08"/><circle id="Oval-19-Copy-15" cx="65.03" cy="67.18" r="1.08"/><circle id="Oval-19-Copy-16" cx="65.03" cy="62.87" r="1.08"/><circle id="Oval-19-Copy-17" cx="65.03" cy="58.57" r="1.08"/><circle id="Oval-19-Copy-18" cx="69.33" cy="62.87" r="1.08"/><circle id="Oval-19-Copy-21" cx="69.33" cy="67.18" r="1.08"/><circle id="Oval-19-Copy-22" cx="69.33" cy="71.48" r="1.08"/><circle id="Oval-19-Copy-23" cx="60.72" cy="71.48" r="1.08"/><circle id="Oval-19-Copy-26" cx="60.72" cy="75.78" r="1.08"/><circle id="Oval-19-Copy-27" cx="56.42" cy="75.78" r="1.08"/><circle id="Oval-19-Copy-28" cx="52.11" cy="75.78" r="1.08"/><circle id="Oval-19-Copy-44" cx="47.81" cy="75.78" r="1.08"/><circle id="Oval-19-Copy-43" cx="52.11" cy="71.48" r="1.08"/><circle id="Oval-19-Copy-25" cx="60.72" cy="67.18" r="1.08"/><circle id="Oval-19-Copy-41" cx="56.42" cy="67.18" r="1.08"/><circle id="Oval-19-Copy-42" cx="56.42" cy="71.48" r="1.08"/><circle id="Oval-19-Copy-24" cx="60.72" cy="62.87" r="1.08"/><circle id="Oval-19-Copy-20" cx="73.63" cy="67.18" r="1.08"/><circle id="Oval-19-Copy-38" cx="73.63" cy="62.87" r="1.08"/><circle id="Oval-19-Copy-29" cx="73.63" cy="58.57" r="1.08"/><circle id="Oval-19-Copy-30" cx="73.63" cy="54.27" r="1.08"/><circle id="Oval-19-Copy-39" cx="69.33" cy="54.27" r="1.08"/><circle id="Oval-19-Copy-31" cx="73.63" cy="49.96" r="1.08"/><circle id="Oval-19-Copy-32" cx="77.94" cy="45.66" r="1.08"/><circle id="Oval-19-Copy-33" cx="77.94" cy="41.35" r="1.08"/><circle id="Oval-19-Copy-34" cx="77.94" cy="49.96" r="1.08"/><circle id="Oval-19-Copy-35" cx="77.94" cy="54.27" r="1.08"/><circle id="Oval-19-Copy-36" cx="77.94" cy="58.57" r="1.08"/><circle id="Oval-19-Copy-37" cx="77.94" cy="62.87" r="1.08"/><circle id="Oval-19-Copy-19" cx="69.33" cy="58.57" r="1.08"/><circle id="Oval-19-Copy-12" cx="25.22" cy="37.05" r="1.08"/><circle id="Oval-19-Copy-45" cx="28.44" cy="17.68" r="1.08"/><circle id="Oval-19-Copy-48" cx="81.16" cy="72.56" r="1.08"/><circle id="Oval-19-Copy-46" cx="19.84" cy="16.61" r="1.08"/><circle id="Oval-19-Copy-49" cx="83.32" cy="79.01" r="1.08"/><circle id="Oval-19-Copy-47" cx="20.91" cy="24.14" r="2.15"/><circle id="Oval-19-Copy-50" cx="74.71" cy="81.16" r="2.15"/><circle id="Oval-19-Copy-13" cx="44.58" cy="20.91" r="1.08"/></g></g></g></svg>