<svg id="Layer_1" data-name="Layer 1" xmlns="http://www.w3.org/2000/svg" viewBox="0 0 100 100"><defs><style>.cls-1{fill:#3692cc;fill-opacity:0.5;}</style></defs><title>tile-custom_drafting</title><g id="Icons"><g id="icons-_-mi_drafting" data-name="icons-/-mi_drafting"><g id="drafting"><g id="circles"><circle id="Oval-28" cx="48" cy="16" r="1"/><circle id="Oval-28-Copy" cx="48" cy="21" r="1"/><circle id="Oval-28-Copy-2" cx="48" cy="26" r="1"/><circle id="Oval-28-Copy-3" cx="48" cy="31" r="1"/><g id="Group-2"><circle id="Oval-28-2" data-name="Oval-28" cx="81.5" cy="49.5" r="1"/><circle id="Oval-28-Copy-2-2" data-name="Oval-28-Copy" cx="76.5" cy="49.5" r="1"/><circle id="Oval-28-Copy-2-3" data-name="Oval-28-Copy-2" cx="71.5" cy="49.5" r="1"/><circle id="Oval-28-Copy-3-2" data-name="Oval-28-Copy-3" cx="66.5" cy="49.5" r="1"/></g><g id="Group-2-2" data-name="Group-2"><circle id="Oval-28-3" data-name="Oval-28" cx="29.5" cy="49.5" r="1"/><circle id="Oval-28-Copy-3-3" data-name="Oval-28-Copy" cx="24.5" cy="49.5" r="1"/><circle id="Oval-28-Copy-2-4" data-name="Oval-28-Copy-2" cx="19.5" cy="49.5" r="1"/><circle id="Oval-28-Copy-3-4" data-name="Oval-28-Copy-3" cx="14.5" cy="49.5" r="1"/></g><circle id="Oval-28-4" data-name="Oval-28" cx="48" cy="68" r="1"/><circle id="Oval-28-Copy-4" data-name="Oval-28-Copy" cx="48" cy="73" r="1"/><circle id="Oval-28-Copy-2-5" data-name="Oval-28-Copy-2" cx="48" cy="78" r="1"/><circle id="Oval-28-Copy-3-5" data-name="Oval-28-Copy-3" cx="48" cy="83" r="1"/></g><g id="tools"><path id="bg" class="cls-1" d="M14.47,23.29,18.72,19h0a6,6,0,0,1,8.49,0l52,52h0a2,2,0,0,1,.51.87L84,87.29h0a1,1,0,0,1-1.23,1.24L67.31,84.24h0a2,2,0,0,1-.88-.51l-52-52h0A6,6,0,0,1,14.47,23.29Z"/><path id="Rectangle-43" d="M78.71,69.14a1,1,0,0,0-.26-.44l-52-52a5,5,0,0,0-7.07,0L15.18,21a5,5,0,0,0,0,7.07l52,52a1,1,0,0,0,.44.26l15.48,4.29ZM13.77,19.58,18,15.34a7,7,0,0,1,9.9,0l52,52a3,3,0,0,1,.77,1.31l4.83,17.13A1,1,0,0,1,84.23,87L67,82.2a3,3,0,0,1-1.32-.77l-52-52A7,7,0,0,1,13.77,19.58Z"/><path id="Rectangle-43-2" data-name="Rectangle-43" d="M48.7,37.61,71.38,14.93a1,1,0,0,1,1.43,0l9.9,9.9a1,1,0,0,1,0,1.43L60,48.93l1.41,1.41L84.11,27.66a3,3,0,0,0,0-4.25l-9.9-9.9a3,3,0,0,0-4.25,0L47.29,36.2ZM46.91,62,25,84a1,1,0,0,1-1.43,0l-9.9-9.9a1,1,0,0,1,0-1.43L35.59,50.72l-1.41-1.41L12.24,71.25a3,3,0,0,0,0,4.25l9.9,9.9a3,3,0,0,0,4.25,0L48.32,63.45Z"/><polygon id="Line" points="15.5 28.71 28.21 16 26.79 14.59 14.09 27.29 15.5 28.71"/><polygon id="Line-Copy" points="17.5 32.71 30.21 20 28.79 18.59 16.09 31.29 17.5 32.71"/><polygon id="Line-Copy-2" points="68.5 82 80.5 70 79.08 68.59 67.09 80.58 68.5 82"/><polygon id="Line-Copy-3" points="76.5 84 82.84 77.66 81.43 76.24 75.09 82.58 76.5 84"/><polygon id="Line-2" points="20.59 27.5 71.29 78.21 72.71 76.79 22 26.09 20.59 27.5"/><polygon id="Line-2-Copy" points="24.59 23.5 75.29 74.21 76.71 72.79 26 22.09 24.59 23.5"/><path id="Line-3" d="M16.29,69.21l4,4a1,1,0,1,0,1.41-1.41l-4-4a1,1,0,0,0-1.41,1.41Z"/><path id="Line-3-Copy" d="M21.29,64.21l4,4a1,1,0,1,0,1.41-1.41l-4-4a1,1,0,0,0-1.41,1.41Z"/><path id="Line-3-Copy-2" d="M26.29,59.21l4,4a1,1,0,1,0,1.41-1.41l-4-4a1,1,0,0,0-1.41,1.41Z"/><path id="Line-3-Copy-3" d="M31.29,54.21l4,4a1,1,0,0,0,1.41-1.41l-4-4a1,1,0,1,0-1.41,1.41Z"/><path id="Line-3-Copy-3-2" data-name="Line-3-Copy-3" d="M51.29,34.21l4,4a1,1,0,0,0,1.41-1.41l-4-4a1,1,0,0,0-1.41,1.41Z"/><path id="Line-3-Copy-4" d="M56.29,29.21l4,4a1,1,0,0,0,1.41-1.41l-4-4a1,1,0,0,0-1.41,1.41Z"/><path id="Line-3-Copy-5" d="M61.29,24.21l4,4a1,1,0,1,0,1.41-1.41l-4-4a1,1,0,0,0-1.41,1.41Z"/><path id="Line-3-Copy-6" d="M66.29,19.21l4,4a1,1,0,0,0,1.41-1.41l-4-4a1,1,0,0,0-1.41,1.41Z"/></g></g></g></g></svg>