<svg width="100" height="100" xmlns="http://www.w3.org/2000/svg"><g transform="translate(14 8)" fill="none" fill-rule="evenodd"><circle fill-opacity=".5" fill="#3692CC" cx="34.418" cy="43.519" r="5.063"/><path d="M56.113 76.131c-6.3 3.638-19.808-9.136-30.835-28.237C14.25 28.794 9.94 10.71 16.24 7.072c6.301-3.638 19.808 9.136 30.836 28.237 11.027 19.1 15.337 37.185 9.036 40.822zm-1-1.732c4.782-2.76.672-20.007-9.768-38.09C34.905 18.225 22.023 6.043 17.24 8.804c-4.781 2.76-.672 20.007 9.769 38.09C37.45 64.978 50.33 77.16 55.113 74.4z" fill="#000" fill-rule="nonzero"/><path d="M16.434 76.426c-6.3-3.638-1.991-21.722 9.036-40.823C36.498 16.503 50.005 3.73 56.305 7.366c6.301 3.638 1.992 21.723-9.036 40.823-11.027 19.1-24.534 31.875-30.835 28.237zm1-1.732c4.782 2.76 17.663-9.421 28.103-27.505 10.44-18.084 14.55-35.33 9.768-38.09-4.781-2.761-17.662 9.42-28.103 27.504-10.44 18.084-14.55 35.33-9.768 38.091z" fill="#000" fill-rule="nonzero"/><path d="M.002 42.205c0-7.175 16.087-12.444 35.937-12.444 19.85 0 35.936 5.27 35.936 12.444 0 7.174-16.086 12.443-35.936 12.443S.002 49.378.002 42.205zm2 0c0 5.465 15.197 10.443 33.937 10.443s33.936-4.978 33.936-10.443c0-5.466-15.196-10.444-33.936-10.444-18.74 0-33.937 4.978-33.937 10.444z" fill="#000" fill-rule="nonzero"/><path d="M35.937 47.307a5.307 5.307 0 1 1 0-10.614 5.307 5.307 0 0 1 0 10.614zm0-1.5a3.807 3.807 0 1 0 0-7.614 3.807 3.807 0 0 0 0 7.614z" fill="#000" fill-rule="nonzero"/><g fill="#000"><g transform="translate(35.43 2)"><circle cx=".987" cy="9.089" r="1"/><path d="M2.013 5.57V.506a1 1 0 1 0-2 0V5.57a1 1 0 0 0 2 0z" fill-rule="nonzero"/></g><g transform="rotate(-180 18.728 41)"><circle cx=".987" cy="9.089" r="1"/><path d="M2.013 5.57V.506a1 1 0 1 0-2 0V5.57a1 1 0 0 0 2 0z" fill-rule="nonzero"/></g><g transform="translate(60.747 54.658)"><circle cx=".987" cy=".987" r="1"/><circle cx="5.038" cy="3.013" r="1"/><circle cx="9.089" cy="5.038" r="1"/></g><g transform="rotate(-60 55.857 -36.726)"><circle cx=".987" cy=".987" r="1"/><circle cx="5.038" cy="3.013" r="1"/><circle cx="9.089" cy="5.038" r="1"/></g><g transform="rotate(-60 53.676 29.835)"><circle cx=".987" cy=".987" r="1"/><circle cx="5.038" cy="3.013" r="1"/><circle cx="9.089" cy="5.038" r="1"/></g><g transform="translate(1.1 22.081)"><circle cx=".987" cy=".987" r="1"/><circle cx="5.038" cy="3.013" r="1"/><circle cx="9.089" cy="5.038" r="1"/></g></g></g></svg>