<?xml version="1.0" standalone="no"?><!-- Generator: Gravit.io --><svg xmlns="http://www.w3.org/2000/svg" xmlns:xlink="http://www.w3.org/1999/xlink" style="isolation:isolate" viewBox="0 0 100 100" width="100" height="100"><defs><clipPath id="_clipPath_0p3ldR9sNnWwgDZQ4511StqEMq8x6Bbw"><rect width="100" height="100"/></clipPath></defs><g clip-path="url(#_clipPath_0p3ldR9sNnWwgDZQ4511StqEMq8x6Bbw)"><clipPath id="_clipPath_glPmKKjluNHy6OhPDby6qp1H9ZmEC75A"><rect x="0" y="0" width="100" height="100" transform="matrix(1,0,0,1,0,0)" fill="rgb(255,255,255)"/></clipPath><g clip-path="url(#_clipPath_glPmKKjluNHy6OhPDby6qp1H9ZmEC75A)"><g><g><g opacity="0.5"><path d=" M 3.963 69.136 L 74.062 69.136 C 74.614 69.136 75.062 69.584 75.062 70.136 L 75.062 78.013 C 75.062 78.565 74.614 79.013 74.062 79.013 L 3.963 79.013 C 3.411 79.013 2.963 78.565 2.963 78.013 L 2.963 70.136 C 2.963 69.584 3.411 69.136 3.963 69.136 Z " fill="rgb(54,146,204)"/></g><circle vector-effect="non-scaling-stroke" cx="39.012" cy="15.308999999999997" r="6.420000000000002" fill="rgb(54,146,204)" fill-opacity="0.5"/><path d=" M 3.95 19.627 L 3.95 24.695 L 78.025 24.695 L 78.025 19.627 L 40.988 2.867 L 3.95 19.627 L 3.95 19.627 L 3.95 19.627 Z  M 41.396 0.883 L 79.42 18.09 C 79.773 18.25 80 18.602 80 18.99 L 80 25.682 C 80 26.228 79.558 26.67 79.012 26.67 L 2.963 26.67 C 2.417 26.67 1.975 26.228 1.975 25.682 L 1.975 18.99 C 1.975 18.602 2.202 18.25 2.555 18.09 L 40.58 0.883 C 40.839 0.766 41.136 0.766 41.395 0.883 L 41.396 0.883 L 41.396 0.883 Z  M 5.925 76.049 L 76.05 76.049 L 76.05 68.149 L 5.926 68.149 L 5.926 76.049 L 5.925 76.049 L 5.925 76.049 Z  M 4.938 66.173 L 77.037 66.173 C 77.583 66.173 78.025 66.615 78.025 67.16 L 78.025 77.037 C 78.025 77.583 77.583 78.025 77.037 78.025 L 4.938 78.025 C 4.393 78.024 3.951 77.582 3.951 77.037 L 3.951 67.16 C 3.951 66.615 4.393 66.173 4.938 66.173 Z " fill="rgb(0,0,0)"/><path d=" M 0.988 78.025 L 80 78.025 C 80.546 78.025 80.988 77.583 80.988 77.037 C 80.988 76.491 80.546 76.049 80 76.049 L 0.988 76.049 C 0.635 76.049 0.309 76.237 0.132 76.543 C -0.044 76.849 -0.044 77.225 0.132 77.531 C 0.309 77.837 0.635 78.025 0.988 78.025 L 0.988 78.025 L 0.988 78.025 Z " fill="rgb(0,0,0)"/><circle vector-effect="non-scaling-stroke" cx="28.148" cy="14.321" r="1.4810000000000016" fill="rgb(0,0,0)"/><circle vector-effect="non-scaling-stroke" cx="53.827" cy="14.321" r="1.4810000000000016" fill="rgb(0,0,0)"/><path d=" M 40.988 21.728 C 36.897 21.728 33.581 18.412 33.581 14.321 C 33.581 10.23 36.897 6.914 40.988 6.914 C 45.079 6.914 48.395 10.23 48.395 14.321 C 48.395 18.412 45.079 21.728 40.988 21.728 Z  M 40.988 19.753 C 43.988 19.753 46.42 17.321 46.42 14.321 C 46.42 11.321 43.988 8.889 40.988 8.889 C 37.988 8.889 35.556 11.321 35.556 14.321 C 35.556 17.321 37.988 19.753 40.988 19.753 Z " fill="rgb(0,0,0)"/><g><path d=" M 7.902 26.667 L 7.902 30.617 L 19.754 30.617 L 19.754 26.667 L 7.902 26.667 L 7.902 26.667 Z  M 6.914 24.691 L 20.741 24.691 C 21.287 24.691 21.729 25.134 21.729 25.679 L 21.729 31.605 C 21.729 32.151 21.287 32.593 20.741 32.593 L 6.914 32.593 C 6.368 32.593 5.926 32.151 5.926 31.605 L 5.926 25.679 C 5.926 25.134 6.369 24.691 6.914 24.691 Z  M 7.902 66.173 L 19.754 66.173 L 19.754 62.223 L 7.902 62.223 L 7.902 66.173 L 7.902 66.173 Z  M 6.914 60.247 L 20.741 60.247 C 21.287 60.247 21.729 60.689 21.729 61.235 L 21.729 67.16 C 21.729 67.706 21.287 68.148 20.741 68.148 L 6.914 68.148 C 6.368 68.148 5.926 67.706 5.926 67.16 L 5.926 61.235 C 5.926 60.689 6.369 60.247 6.914 60.247 Z " fill="rgb(0,0,0)"/><path d=" M 10.864 32.593 L 10.864 60.247 L 16.791 60.247 L 16.791 32.593 L 10.864 32.593 L 10.864 32.593 Z  M 18.766 30.617 L 18.766 62.222 L 8.889 62.222 L 8.889 30.617 L 18.766 30.617 L 18.766 30.617 Z " fill="rgb(0,0,0)"/></g><g><path d=" M 26.008 66.173 L 37.86 66.173 L 37.86 62.223 L 26.008 62.223 L 26.008 66.173 L 26.008 66.173 Z  M 25.02 60.247 L 38.847 60.247 C 39.393 60.247 39.835 60.689 39.835 61.235 L 39.835 67.16 C 39.835 67.706 39.393 68.148 38.847 68.148 L 25.02 68.148 C 24.474 68.148 24.032 67.706 24.032 67.16 L 24.032 61.235 C 24.032 60.689 24.475 60.247 25.02 60.247 Z  M 26.008 26.667 L 26.008 30.617 L 37.86 30.617 L 37.86 26.667 L 26.008 26.667 L 26.008 26.667 Z  M 25.02 24.691 L 38.847 24.691 C 39.393 24.691 39.835 25.134 39.835 25.679 L 39.835 31.605 C 39.835 32.151 39.393 32.593 38.847 32.593 L 25.02 32.593 C 24.474 32.593 24.032 32.151 24.032 31.605 L 24.032 25.679 C 24.032 25.134 24.475 24.691 25.02 24.691 Z " fill="rgb(0,0,0)"/><path d=" M 28.97 32.593 L 28.97 60.247 L 34.897 60.247 L 34.897 32.593 L 28.97 32.593 L 28.97 32.593 Z  M 36.872 30.617 L 36.872 62.222 L 26.995 62.222 L 26.995 30.617 L 36.872 30.617 L 36.872 30.617 Z " fill="rgb(0,0,0)"/></g><g><path d=" M 44.116 66.173 L 55.968 66.173 L 55.968 62.223 L 44.116 62.223 L 44.116 66.173 L 44.116 66.173 Z  M 43.128 60.247 L 56.955 60.247 C 57.501 60.247 57.943 60.689 57.943 61.235 L 57.943 67.16 C 57.943 67.706 57.501 68.148 56.955 68.148 L 43.128 68.148 C 42.582 68.148 42.14 67.706 42.14 67.16 L 42.14 61.235 C 42.14 60.689 42.583 60.247 43.128 60.247 Z  M 44.116 26.667 L 44.116 30.617 L 55.968 30.617 L 55.968 26.667 L 44.116 26.667 L 44.116 26.667 Z  M 43.128 24.691 L 56.955 24.691 C 57.501 24.691 57.943 25.134 57.943 25.679 L 57.943 31.605 C 57.943 32.151 57.501 32.593 56.955 32.593 L 43.128 32.593 C 42.582 32.593 42.14 32.151 42.14 31.605 L 42.14 25.679 C 42.14 25.134 42.583 24.691 43.128 24.691 Z " fill="rgb(0,0,0)"/><path d=" M 47.078 32.593 L 47.078 60.247 L 53.005 60.247 L 53.005 32.593 L 47.078 32.593 L 47.078 32.593 Z  M 54.98 30.617 L 54.98 62.222 L 45.103 62.222 L 45.103 30.617 L 54.98 30.617 L 54.98 30.617 Z " fill="rgb(0,0,0)"/></g><g><path d=" M 62.223 66.173 L 74.075 66.173 L 74.075 62.223 L 62.223 62.223 L 62.223 66.173 L 62.223 66.173 Z  M 61.235 60.247 L 75.062 60.247 C 75.608 60.247 76.05 60.689 76.05 61.235 L 76.05 67.16 C 76.05 67.706 75.608 68.148 75.062 68.148 L 61.235 68.148 C 60.689 68.148 60.247 67.706 60.247 67.16 L 60.247 61.235 C 60.247 60.689 60.69 60.247 61.235 60.247 Z  M 62.223 26.667 L 62.223 30.617 L 74.075 30.617 L 74.075 26.667 L 62.223 26.667 L 62.223 26.667 Z  M 61.235 24.691 L 75.062 24.691 C 75.608 24.691 76.05 25.134 76.05 25.679 L 76.05 31.605 C 76.05 32.151 75.608 32.593 75.062 32.593 L 61.235 32.593 C 60.689 32.593 60.247 32.151 60.247 31.605 L 60.247 25.679 C 60.247 25.134 60.69 24.691 61.235 24.691 Z " fill="rgb(0,0,0)"/><path d=" M 65.185 32.593 L 65.185 60.247 L 71.112 60.247 L 71.112 32.593 L 65.185 32.593 L 65.185 32.593 Z  M 73.087 30.617 L 73.087 62.222 L 63.21 62.222 L 63.21 30.617 L 73.087 30.617 L 73.087 30.617 Z " fill="rgb(0,0,0)"/></g></g><g><path d=" M 46.895 69.526 C 33.843 69.526 23.263 58.946 23.263 45.895 C 23.263 32.843 33.843 22.263 46.895 22.263 C 59.946 22.263 70.526 32.843 70.526 45.895 C 70.526 58.946 59.946 69.526 46.895 69.526 Z " fill="rgb(255,255,255)"/><path d=" M 29 24 L 43 22 C 44.105 22 45 22.895 45 24 L 45 70 C 45 71.105 44.105 72 43 72 L 29 67.588 C 27.895 67.588 27 65.958 27 64.853 L 27 26 C 27 24.895 27.895 24 29 24 Z " fill="rgb(0,0,0)"/><path d=" M 29 24 L 29 70 L 43 70 L 43 24 L 29 24 L 29 24 Z " fill="rgb(255,255,255)"/><path d=" M 51 22 L 65 24 C 66.105 24 67 24.895 67 26 L 67 64.853 C 67 65.958 66.105 67.588 65 67.588 L 51 72 C 49.895 72 49 71.105 49 70 L 49 24 C 49 22.895 49.895 22 51 22 Z " fill="rgb(0,0,0)"/><path d=" M 51 24 L 51 70 L 65 70 L 65 24 L 51 24 L 51 24 Z " fill="rgb(255,255,255)"/></g><g><path d=" M 68.888 63.112 L 95.56 89.783 C 97.122 91.345 97.122 93.878 95.56 95.44 C 93.998 97.002 91.465 97.002 89.903 95.44 L 63.231 68.77 L 68.888 63.113 L 68.888 63.112 L 68.888 63.112 Z " fill-rule="evenodd" fill="rgb(255,255,255)"/><path d=" M 19 46 C 19 30.546 31.546 18 47 18 C 62.454 18 75 30.546 75 46 C 75 61.454 62.454 74 47 74 C 31.546 74 19 61.454 19 46 Z  M 46.895 67.526 C 58.842 67.526 68.526 57.842 68.526 45.895 C 68.526 33.948 58.842 24.263 46.895 24.263 C 34.948 24.263 25.263 33.948 25.263 45.895 C 25.263 57.842 34.948 67.526 46.895 67.526 Z " fill-rule="evenodd" fill="rgb(255,255,255)"/><circle vector-effect="non-scaling-stroke" cx="43.736999999999995" cy="46.947" r="22.632000000000005" fill="rgb(54,147,205)" fill-opacity="0.4980392156862745"/><path d=" M 67.434 63.847 L 94.47 90.883 C 95.443 91.856 95.404 93.505 94.35 94.559 C 93.298 95.611 91.644 95.649 90.674 94.679 L 63.638 67.643 L 62.224 69.057 L 89.26 96.093 C 91.025 97.858 93.945 97.793 95.764 95.973 C 97.584 94.153 97.654 91.239 95.884 89.469 L 68.848 62.433 L 67.434 63.847 L 67.434 63.847 Z " fill="rgb(0,0,0)"/><path d=" M 79.312 85.149 L 85.192 79.269 L 83.778 77.855 L 77.898 83.735 L 79.312 85.149 L 79.312 85.149 Z " fill="rgb(0,0,0)"/><path d=" M 46.895 69.526 C 33.843 69.526 23.263 58.946 23.263 45.895 C 23.263 32.843 33.843 22.263 46.895 22.263 C 59.946 22.263 70.526 32.843 70.526 45.895 C 70.526 58.946 59.946 69.526 46.895 69.526 Z  M 46.895 67.526 C 58.842 67.526 68.526 57.842 68.526 45.895 C 68.526 33.948 58.842 24.263 46.895 24.263 C 34.948 24.263 25.263 33.948 25.263 45.895 C 25.263 57.842 34.948 67.526 46.895 67.526 Z " fill="rgb(0,0,0)"/><path d=" M 46.895 74.79 C 30.937 74.79 18 61.852 18 45.894 C 18 29.936 30.937 17 46.895 17 C 62.853 17 75.789 29.937 75.789 45.895 C 75.789 61.853 62.853 74.789 46.895 74.789 L 46.895 74.79 L 46.895 74.79 Z  M 46.895 72.79 C 61.748 72.79 73.789 60.748 73.789 45.895 C 73.79 31.04 61.75 19 46.895 19 C 32.04 19 20 31.041 20 45.895 C 20 60.748 32.041 72.789 46.895 72.789 L 46.895 72.79 L 46.895 72.79 Z " fill="rgb(0,0,0)"/></g></g></g></g></svg>