<svg id="Layer_1" data-name="Layer 1" xmlns="http://www.w3.org/2000/svg" viewBox="0 0 100 100"><defs><style>.cls-1{fill:#3692cc;fill-opacity:0.5;}</style></defs><title>tile-custom_create</title><g id="Icons"><g id="icons-_-mi_create" data-name="icons-/-mi_create"><g id="create"><g id="extra"><path id="Rectangle-11" d="M95.71,58V83.59A5.7,5.7,0,0,1,89.77,89H9.95A5.7,5.7,0,0,1,4,83.59V58a1,1,0,0,0-2,0V83.59A7.69,7.69,0,0,0,9.95,91H89.77a7.7,7.7,0,0,0,7.95-7.41V58a1,1,0,0,0-2,0Z"/><circle id="Oval-Copy" cx="54.43" cy="15.71" r="1.14"/><circle id="Oval-Copy-2" data-name="Oval-Copy" cx="46.43" cy="23.71" r="1.14"/><circle id="Oval-Copy-3" data-name="Oval-Copy" cx="43" cy="11.14" r="1.14"/><circle id="Oval-Copy-4" data-name="Oval-Copy" cx="83" cy="12.29" r="1.14"/><circle id="Oval-Copy-5" data-name="Oval-Copy" cx="23.57" cy="21.43" r="1.14"/><circle id="Oval-Copy-6" data-name="Oval-Copy" cx="75" cy="21.43" r="2.29"/><circle id="Oval-Copy-7" data-name="Oval-Copy" cx="16.71" cy="13.43" r="2.29"/></g><g id="_3" data-name="3"><path id="Rectangle-12" class="cls-1" d="M86.29,37V74.72a9.14,9.14,0,0,1-18.29,0V37"/><path id="Rectangle-12-Copy-2" d="M87.71,36.29V74a8.14,8.14,0,0,1-16.29,0V36.29h-2V74a10.14,10.14,0,0,0,20.29,0V36.29Z"/><path id="Rectangle-13-Copy-2" d="M68,31.43v2.85a1,1,0,0,0,1,1H90.15a1,1,0,0,0,1-1V31.43a1,1,0,0,0-1-1H69A1,1,0,0,0,68,31.43Zm-2,0a3,3,0,0,1,3-3H90.15a3,3,0,0,1,3,3v2.85a3,3,0,0,1-3,3H69a3,3,0,0,1-3-3Z"/><polygon id="Line" points="70.57 56.71 89.71 56.71 89.71 54.71 70.57 54.71 70.57 56.71"/><circle id="Oval-Copy-8" data-name="Oval-Copy" cx="80.71" cy="74" r="1.14"/><circle id="Oval-Copy-9" data-name="Oval-Copy" cx="77.29" cy="62.57" r="1.14"/></g><g id="_2" data-name="2"><path id="Rectangle-12-2" data-name="Rectangle-12" class="cls-1" d="M56.54,37V74.72a9.14,9.14,0,0,1-18.29,0V37"/><path id="Rectangle-12-3" data-name="Rectangle-12" d="M58,36.29V74a8.14,8.14,0,0,1-16.29,0V36.29h-2V74A10.14,10.14,0,0,0,60,74V36.29Z"/><path id="Rectangle-13" d="M38.29,31.43v2.85a1,1,0,0,0,1,1H60.43a1,1,0,0,0,1-1V31.43a1,1,0,0,0-1-1H39.28A1,1,0,0,0,38.29,31.43Zm-2,0a3,3,0,0,1,3-3H60.43a3,3,0,0,1,3,3v2.85a3,3,0,0,1-3,3H39.28a3,3,0,0,1-3-3Z"/><circle id="Oval-Copy-10" data-name="Oval-Copy" cx="52.14" cy="53.43" r="1.14"/><circle id="Oval-Copy-11" data-name="Oval-Copy" cx="52.14" cy="74" r="1.14"/><circle id="Oval-Copy-12" data-name="Oval-Copy" cx="46.43" cy="63.71" r="1.14"/><polygon id="Line-2" data-name="Line" points="40.86 47.57 60 47.57 60 45.57 40.86 45.57 40.86 47.57"/></g><g id="_1" data-name="1"><path id="Rectangle-12-4" data-name="Rectangle-12" class="cls-1" d="M26.86,37V74.72a9.14,9.14,0,0,1-18.29,0V37"/><path id="Rectangle-12-5" data-name="Rectangle-12" d="M28.29,36.29V74A8.14,8.14,0,0,1,12,74V36.29H10V74a10.14,10.14,0,0,0,20.29,0V36.29Z"/><circle id="Oval" cx="17.61" cy="74.44" r="1.11"/><circle id="Oval-2" data-name="Oval" cx="23.57" cy="71.71" r="1.14"/><path id="Rectangle-13-2" data-name="Rectangle-13" d="M8.57,31.43v2.85a1,1,0,0,0,1,1H30.72a1,1,0,0,0,1-1V31.43a1,1,0,0,0-1-1H9.57A1,1,0,0,0,8.57,31.43Zm-2,0a3,3,0,0,1,3-3H30.72a3,3,0,0,1,3,3v2.85a3,3,0,0,1-3,3H9.57a3,3,0,0,1-3-3Z"/><path id="Line-Copy" d="M18,50.93V42.4a1,1,0,0,0-2,0v8.53a1,1,0,0,0,2,0Z"/><polygon id="Line-3" data-name="Line" points="10.57 67 29.71 67 29.71 65 10.57 65 10.57 67"/></g></g></g></g></svg>