<svg id="Layer_1" data-name="Layer 1" xmlns="http://www.w3.org/2000/svg" viewBox="0 0 100 100"><defs><style>.cls-1{fill:#3692cc;fill-opacity:0.5;}</style></defs><title>tile-custom_pizza</title><g id="Icons"><g id="icons-_-mi_pizza" data-name="icons-/-mi_pizza"><g id="pizza"><path id="Oval-29-Copy-4" class="cls-1" d="M30.26,58.4A6.42,6.42,0,1,0,24.62,55,6.42,6.42,0,0,0,30.26,58.4Z"/><path id="Triangle" d="M49.88,12.91,14.49,72.38a4,4,0,0,0,.79,5Q27.38,88,50,88T84.75,77.37a4,4,0,0,0,.78-5Zm.84-2.43,36.5,60.88a5.93,5.93,0,0,1-1.17,7.5Q73.36,90,50,90T14,78.85a5.93,5.93,0,0,1-1.18-7.48L49,10.48A1,1,0,0,1,50.72,10.48Z"/><path id="Line" d="M18.91,64.2q12.58,7,31.1,7t31.1-7l.86-.48L81,62l-.86.48Q68,69.25,50,69.26T19.88,62.47L19,62l-1,1.72Z"/><path id="Line-2" data-name="Line" d="M17.47,69.15q14,7,32.54,7t32.54-7l.88-.44-.88-1.77-.88.44Q68.06,74.19,50,74.2T18.36,67.39l-.88-.44-.88,1.77Z"/><circle id="Oval-29" class="cls-1" cx="50.01" cy="37.16" r="6.42"/><path id="Oval-29-2" data-name="Oval-29" d="M51,42.59a7.41,7.41,0,1,1,7.41-7.41A7.41,7.41,0,0,1,51,42.59Zm0-2a5.43,5.43,0,1,0-5.43-5.43A5.43,5.43,0,0,0,51,40.62Z"/><circle id="Oval-29-Copy-3" class="cls-1" cx="62.85" cy="58.89" r="6.42"/><path id="Oval-29-Copy" d="M24.61,53.29a7.41,7.41,0,1,0,6.64-10.69h-1v2h1a5.43,5.43,0,1,1-4.87,7.84l-.44-.88-1.77.88Z"/><path id="Oval-29-Copy-2" d="M63.84,64.32a7.41,7.41,0,1,1,7.41-7.41A7.41,7.41,0,0,1,63.84,64.32Zm0-2a5.43,5.43,0,1,0-5.43-5.43A5.43,5.43,0,0,0,63.84,62.35Z"/><circle id="Oval-30" cx="20.88" cy="74.2" r="1"/><circle id="Oval-30-Copy" cx="26.8" cy="78.15" r="1"/><circle id="Oval-30-Copy-2" cx="34.7" cy="78.15" r="1"/><circle id="Oval-30-Copy-3" cx="41.62" cy="81.11" r="1"/><circle id="Oval-30-Copy-4" cx="49.52" cy="83.09" r="1"/><circle id="Oval-30-Copy-5" cx="55.44" cy="79.14" r="1"/><circle id="Oval-30-Copy-6" cx="63.35" cy="82.1" r="1"/><circle id="Oval-30-Copy-7" cx="69.27" cy="77.16" r="1"/><circle id="Oval-30-Copy-8" cx="77.17" cy="77.16" r="1"/></g></g></g></svg>