<svg id="Layer_1" data-name="Layer 1" xmlns="http://www.w3.org/2000/svg" viewBox="0 0 100 100"><defs><style>.cls-1{fill:#3692cc;fill-opacity:0.5;}</style></defs><title>tile-custom_sunshine</title><g id="Icons"><g id="icons-_-mi_sunshine" data-name="icons-/-mi_sunshine"><g id="Group"><circle id="Oval-25" class="cls-1" cx="48.16" cy="51.84" r="21.61"/><path id="Oval-25-2" data-name="Oval-25" d="M50,72.53A22.53,22.53,0,1,1,72.53,50,22.53,22.53,0,0,1,50,72.53Zm0-1.84A20.69,20.69,0,1,0,29.31,50,20.69,20.69,0,0,0,50,70.69Z"/><circle id="Oval-Copy-15" cx="42.77" cy="34.92" r="1"/><path id="Path-12" d="M34.13,50.3A16.1,16.1,0,0,1,35.95,43a13.56,13.56,0,0,1,4.48-5.39A1,1,0,1,0,39.36,36a15.45,15.45,0,0,0-5.13,6.13,18,18,0,0,0-2,8.12,1,1,0,1,0,1.92,0Z"/><path id="Line-3" d="M25.15,59.59l-2.67,1.09a1,1,0,0,0,.72,1.78l2.67-1.09a1,1,0,1,0-.72-1.78Z"/><path id="Line-5" d="M25,39,22.33,37.9a1,1,0,0,0-.74,1.77l2.66,1.11A1,1,0,1,0,25,39Z"/><path id="Line-7" d="M40.8,25.37l-1-2.73a1,1,0,1,0-1.81.64L39,26a1,1,0,1,0,1.81-.64Z"/><path id="Line-9" d="M60.94,26l.91-2.73A1,1,0,0,0,60,22.65l-.91,2.73a1,1,0,1,0,1.82.61Z"/><path id="Line-11" d="M76.78,38l-2.66,1.1a1,1,0,1,0,.73,1.78l2.66-1.1A1,1,0,1,0,76.78,38Z"/><path id="Line-13" d="M74.12,61.45l2.66,1.1a1,1,0,0,0,.73-1.78l-2.66-1.1a1,1,0,1,0-.73,1.78Z"/><path id="Line-13-2" data-name="Line-13" d="M59.67,74.86l1.11,2.66a1,1,0,0,0,1.77-.74l-1.11-2.66a1,1,0,1,0-1.77.74Z"/><path id="Line-13-3" data-name="Line-13" d="M38.7,74.13l-1.1,2.66a1,1,0,0,0,1.78.73l1.1-2.66a1,1,0,1,0-1.78-.73Z"/><path id="Triangle-3" d="M50.46,15.31,52.32,24a.92.92,0,1,0,1.8-.39L51.36,10.73a.92.92,0,0,0-1.8,0L46.8,23.6a.92.92,0,1,0,1.8.39Z"/><path id="Triangle-3-Copy-3" d="M69.73,33.34a.92.92,0,1,0,1.48,1.09l11-14.92a.92.92,0,0,0-1.29-1.29L66,29.25a.92.92,0,0,0,1.09,1.48l10-7.39Z"/><path id="Triangle-3-Copy-3-2" data-name="Triangle-3-Copy-3" d="M32.77,30.15a.92.92,0,0,0,1.09-1.48l-14.92-11a.92.92,0,0,0-1.29,1.29l11,14.92a.92.92,0,1,0,1.48-1.09l-7.39-10Z"/><path id="Triangle-3-Copy-3-3" data-name="Triangle-3-Copy-3" d="M66.64,69.25a.92.92,0,1,0-1.09,1.48l14.92,11a.92.92,0,0,0,1.29-1.29l-11-14.92a.92.92,0,1,0-1.48,1.09l7.39,10Z"/><path id="Triangle-3-Copy-3-4" data-name="Triangle-3-Copy-3" d="M23.68,76.64l7.39-10a.92.92,0,1,0-1.48-1.09l-11,14.92a.92.92,0,0,0,1.29,1.29l14.92-11a.92.92,0,1,0-1.09-1.48Z"/><path id="Triangle-3-Copy" d="M48.6,76a.92.92,0,0,0-1.8.39l2.76,12.87a.92.92,0,0,0,1.8,0L54.12,76.4a.92.92,0,0,0-1.8-.39l-1.86,8.68Z"/><path id="Triangle-3-Copy-2" d="M76,52.32a.92.92,0,1,0,.39,1.8l12.87-2.76a.92.92,0,0,0,0-1.8L76.4,46.8A.92.92,0,1,0,76,48.6l8.68,1.86Z"/><path id="Triangle-3-Copy-2-2" data-name="Triangle-3-Copy-2" d="M24,48.6a.92.92,0,1,0-.39-1.8L10.73,49.56a.92.92,0,0,0,0,1.8L23.6,54.12a.92.92,0,1,0,.39-1.8l-8.68-1.86Z"/><circle id="Oval" cx="64.25" cy="47.7" r="1"/><circle id="Oval-Copy" cx="64.25" cy="52.3" r="1"/><circle id="Oval-Copy-2" cx="64.25" cy="56.9" r="1"/><circle id="Oval-Copy-3" cx="59.66" cy="52.3" r="1"/><circle id="Oval-Copy-6" cx="59.66" cy="56.9" r="1"/><circle id="Oval-Copy-7" cx="55.06" cy="52.3" r="1"/><circle id="Oval-Copy-8" cx="59.66" cy="61.49" r="1"/><circle id="Oval-Copy-9" cx="50.46" cy="56.9" r="1"/><circle id="Oval-Copy-10" cx="45.86" cy="61.49" r="1"/><circle id="Oval-Copy-16" cx="45.86" cy="66.09" r="1"/><circle id="Oval-Copy-11" cx="55.06" cy="66.09" r="1"/><circle id="Oval-Copy-13" cx="50.46" cy="61.49" r="1"/><circle id="Oval-Copy-14" cx="50.46" cy="66.09" r="1"/><circle id="Oval-Copy-12" cx="55.06" cy="56.9" r="1"/><circle id="Oval-Copy-5" cx="55.06" cy="61.49" r="1"/><circle id="Oval-Copy-4" cx="59.66" cy="47.7" r="1"/></g></g></g></svg>