<svg width="100" height="100" xmlns="http://www.w3.org/2000/svg"><g transform="translate(11 10)" fill="none" fill-rule="evenodd"><ellipse fill-opacity=".5" fill="#3692CC" cx="37.947" cy="66.133" rx="13.684" ry="13.867"/><ellipse fill="#000" cx="40.053" cy="32" rx="1.053" ry="1.067"/><ellipse fill="#000" cx="64.263" cy="10.667" rx="1.053" ry="1.067"/><ellipse fill="#000" cx="14.789" cy="20.267" rx="1.053" ry="1.067"/><path d="M40.053 80c-8.14 0-14.737-6.686-14.737-14.933 0-8.248 6.598-14.934 14.737-14.934s14.736 6.686 14.736 14.934C54.79 73.314 48.192 80 40.053 80zm0-2.133c6.976 0 12.631-5.731 12.631-12.8 0-7.07-5.655-12.8-12.631-12.8-6.977 0-12.632 5.73-12.632 12.8 0 7.069 5.655 12.8 12.632 12.8zm24.21-32c-8.139 0-14.737-6.686-14.737-14.934C49.526 22.686 56.124 16 64.263 16 72.403 16 79 22.686 79 30.933c0 8.248-6.598 14.934-14.737 14.934zm0-2.134c6.976 0 12.632-5.73 12.632-12.8 0-7.069-5.656-12.8-12.632-12.8s-12.631 5.731-12.631 12.8c0 7.07 5.655 12.8 12.631 12.8zM14.79 54.4C6.651 54.4.053 47.714.053 39.467c0-8.248 6.598-14.934 14.736-14.934 8.14 0 14.737 6.686 14.737 14.934 0 8.247-6.598 14.933-14.737 14.933zm0-2.133c6.977 0 12.632-5.731 12.632-12.8 0-7.07-5.655-12.8-12.632-12.8-6.976 0-12.631 5.73-12.631 12.8 0 7.069 5.655 12.8 12.631 12.8zm-4.21-38.934V1.6A1.06 1.06 0 0 0 9.526.533 1.06 1.06 0 0 0 8.474 1.6v11.733c0 .59.471 1.067 1.052 1.067a1.06 1.06 0 0 0 1.053-1.067zm49.421-8V1.067a1 1 0 0 0-2 0v4.266a1 1 0 0 0 2 0zM35.842 25.6V8.441a1.06 1.06 0 0 0-1.053-1.067 1.06 1.06 0 0 0-1.052 1.067V25.6c0 .59.471 1.067 1.052 1.067a1.06 1.06 0 0 0 1.053-1.067zM21.105 13.333V1.6A1.06 1.06 0 0 0 20.053.533 1.06 1.06 0 0 0 19 1.6v11.733c0 .59.471 1.067 1.053 1.067a1.06 1.06 0 0 0 1.052-1.067zm49.421-8V1.067a1 1 0 0 0-2 0v4.266a1 1 0 1 0 2 0zM46.368 25.6V8.533a1.06 1.06 0 0 0-1.052-1.066 1.06 1.06 0 0 0-1.053 1.066V25.6c0 .59.471 1.067 1.053 1.067a1.06 1.06 0 0 0 1.052-1.067zm-30.526-8.533V3.2a1.06 1.06 0 0 0-1.053-1.067A1.06 1.06 0 0 0 13.737 3.2v13.867c0 .589.471 1.066 1.052 1.066a1.06 1.06 0 0 0 1.053-1.066zm49.474-9.704V3.096a1.06 1.06 0 0 0-1.053-1.066 1.06 1.06 0 0 0-1.052 1.066v4.267c0 .59.47 1.067 1.052 1.067a1.06 1.06 0 0 0 1.053-1.067zM41.106 28.8V10.667A1.06 1.06 0 0 0 40.052 9.6 1.06 1.06 0 0 0 39 10.667V28.8c0 .59.471 1.067 1.053 1.067a1.06 1.06 0 0 0 1.052-1.067z" fill="#000" fill-rule="nonzero"/><path d="M41.105 75.733V54.4a1.06 1.06 0 0 0-1.052-1.067A1.06 1.06 0 0 0 39 54.4v21.333c0 .59.471 1.067 1.053 1.067a1.06 1.06 0 0 0 1.052-1.067zM65.315 41.6V20.267a1.06 1.06 0 0 0-1.052-1.067 1.06 1.06 0 0 0-1.052 1.067V41.6c0 .59.47 1.067 1.052 1.067a1.06 1.06 0 0 0 1.053-1.067zm-49.473 8.533V28.8a1.06 1.06 0 0 0-1.053-1.067 1.06 1.06 0 0 0-1.052 1.067v21.333c0 .59.471 1.067 1.052 1.067a1.06 1.06 0 0 0 1.053-1.067z" fill="#000" fill-rule="nonzero"/><path d="M15.4 40.448c2.874.576 3.695 1.44 3.695 3.008 0 1.632-1.642 2.752-4.169 2.752-2.494 0-3.79-.928-4.358-2.784-.19-.608-.757-.864-1.357-.864-.127 0-.285.032-.443.064-.6.128-1.136.576-1.136 1.216 0 .128.031.256.063.416.82 2.848 3.19 4.48 7.231 4.48 4.421 0 7.01-2.272 7.01-5.344 0-3.36-1.641-4.576-5.747-5.44l-1.957-.416c-2.653-.576-3.253-1.216-3.253-2.688 0-1.344 1.2-2.4 3.758-2.4 1.8 0 3.19.736 3.6 2.176.158.608.726.864 1.295.864.157 0 .347-.032.505-.064.568-.16 1.105-.576 1.105-1.184 0-.128-.031-.256-.063-.384-.79-2.336-3.032-3.84-6.537-3.84-4.074 0-6.537 1.984-6.537 4.896 0 3.04 1.61 4.416 5.495 5.184l1.8.352zm25.263 25.6c2.874.576 3.695 1.44 3.695 3.008 0 1.632-1.642 2.752-4.169 2.752-2.494 0-3.789-.928-4.357-2.784-.19-.608-.758-.864-1.358-.864-.127 0-.285.032-.442.064-.6.128-1.137.576-1.137 1.216 0 .128.031.256.063.416.82 2.848 3.19 4.48 7.231 4.48 4.422 0 7.011-2.272 7.011-5.344 0-3.36-1.642-4.576-5.747-5.44l-1.958-.416c-2.653-.576-3.253-1.216-3.253-2.688 0-1.344 1.2-2.4 3.758-2.4 1.8 0 3.19.736 3.6 2.176.158.608.726.864 1.295.864.158 0 .347-.032.505-.064.568-.16 1.105-.576 1.105-1.184 0-.128-.031-.256-.063-.384-.79-2.336-3.031-3.84-6.537-3.84-4.073 0-6.537 1.984-6.537 4.896 0 3.04 1.61 4.416 5.495 5.184l1.8.352zm24.21-34.133c2.874.576 3.695 1.44 3.695 3.008 0 1.632-1.642 2.752-4.168 2.752-2.495 0-3.79-.928-4.358-2.784-.19-.608-.758-.864-1.358-.864-.126 0-.284.032-.442.064-.6.128-1.137.576-1.137 1.216 0 .128.032.256.063.416.821 2.848 3.19 4.48 7.232 4.48 4.421 0 7.01-2.272 7.01-5.344 0-3.36-1.642-4.576-5.747-5.44l-1.958-.416c-2.652-.576-3.252-1.216-3.252-2.688 0-1.344 1.2-2.4 3.758-2.4 1.8 0 3.189.736 3.6 2.176.157.608.726.864 1.294.864.158 0 .348-.032.506-.064.568-.16 1.105-.576 1.105-1.184 0-.128-.032-.256-.063-.384-.79-2.336-3.032-3.84-6.537-3.84-4.074 0-6.537 1.984-6.537 4.896 0 3.04 1.61 4.416 5.495 5.184l1.8.352z" fill="#000"/></g></svg>