<svg id="Layer_1" data-name="Layer 1" xmlns="http://www.w3.org/2000/svg" viewBox="0 0 100 100"><defs><style>.cls-1{fill:#3692cc;fill-opacity:0.5;}</style></defs><title>tile-custom_gaming</title><g id="Icons"><g id="icons-_-mi_gaming" data-name="icons-/-mi_gaming"><g id="gaming"><rect id="Rectangle-42" class="cls-1" x="24.88" y="18.78" width="45.85" height="38.05" rx="2" ry="2"/><circle id="Oval" cx="47.32" cy="81.22" r="1"/><circle id="Oval-Copy" cx="52.2" cy="81.22" r="1"/><circle id="Oval-Copy-2" cx="67.8" cy="34.39" r="1"/><circle id="Oval-Copy-3" cx="67.8" cy="39.27" r="1"/><circle id="Oval-Copy-4" cx="67.8" cy="44.15" r="1"/><circle id="Oval-Copy-5" cx="67.8" cy="49.02" r="1"/><circle id="Oval-Copy-6" cx="62.93" cy="49.02" r="1"/><circle id="Oval-Copy-7" cx="62.93" cy="44.15" r="1"/><circle id="Oval-Copy-9" cx="58.05" cy="44.15" r="1"/><circle id="Oval-Copy-10" cx="58.05" cy="49.02" r="1"/><circle id="Oval-Copy-11" cx="53.17" cy="49.02" r="1"/><circle id="Oval-Copy-8" cx="62.93" cy="39.27" r="1"/><path id="Rectangle-42-2" data-name="Rectangle-42" d="M22.93,12a1,1,0,0,0-1,1V87.07a1,1,0,0,0,1,1H76.59a1,1,0,0,0,1-1V12.93a1,1,0,0,0-1-1Zm0-2H76.59a2.93,2.93,0,0,1,2.93,2.93V87.07A2.93,2.93,0,0,1,76.59,90H22.93A2.93,2.93,0,0,1,20,87.07V12.93A2.93,2.93,0,0,1,22.93,10Z"/><path id="Rectangle-42-3" data-name="Rectangle-42" d="M28.78,17.8a1,1,0,0,0-1,1V52.93a1,1,0,0,0,1,1h42a1,1,0,0,0,1-1V18.78a1,1,0,0,0-1-1Zm0-2h42a2.93,2.93,0,0,1,2.93,2.93V52.93a2.93,2.93,0,0,1-2.93,2.93h-42a2.93,2.93,0,0,1-2.93-2.93V18.78A2.93,2.93,0,0,1,28.78,15.85Z"/><path id="Rectangle-42-4" data-name="Rectangle-42" d="M28.78,72.44h5.85a1,1,0,0,1,1,1v5.85h2.93V73.41a1,1,0,0,1,1-1h5.85V69.51H39.51a1,1,0,0,1-1-1V62.68H35.61v5.85a1,1,0,0,1-1,1H28.78Zm-1,2a1,1,0,0,1-1-1V68.54a1,1,0,0,1,1-1h5.85V61.71a1,1,0,0,1,1-1h4.88a1,1,0,0,1,1,1v5.85h5.85a1,1,0,0,1,1,1v4.88a1,1,0,0,1-1,1H40.49v5.85a1,1,0,0,1-1,1H34.63a1,1,0,0,1-1-1V74.39Z"/><path id="Oval-27" d="M68.78,68.54a4.88,4.88,0,1,1,4.88-4.88A4.88,4.88,0,0,1,68.78,68.54Zm0-2a2.93,2.93,0,1,0-2.93-2.93A2.93,2.93,0,0,0,68.78,66.59Z"/><path id="Oval-27-Copy" d="M59,77.32a4.88,4.88,0,1,1,4.88-4.88A4.88,4.88,0,0,1,59,77.32Zm0-2a2.93,2.93,0,1,0-2.93-2.93A2.93,2.93,0,0,0,59,75.37Z"/><path id="Line" d="M70,75.08l3.45,3.45a1,1,0,1,0,1.38-1.38L71.42,73.7A1,1,0,0,0,70,75.08Z"/><path id="Line-Copy" d="M66.14,78l3.45,3.45A1,1,0,0,0,71,80.08l-3.45-3.45A1,1,0,1,0,66.14,78Z"/><path id="Line-Copy-2" d="M62.24,80.93l3.45,3.45A1,1,0,1,0,67.07,83l-3.45-3.45a1,1,0,0,0-1.38,1.38Z"/><path id="Line-2" d="M32.4,28.54l6.21-6.21a1,1,0,0,0-1.38-1.38L31,27.16a1,1,0,1,0,1.38,1.38Z"/><path id="Line-2-Copy" d="M34.35,33.41l11-11A1,1,0,0,0,44,21L33,32a1,1,0,0,0,1.38,1.38Z"/></g></g></g></svg>