<svg id="Layer_1" data-name="Layer 1" xmlns="http://www.w3.org/2000/svg" viewBox="0 0 100 100"><defs><style>.cls-1{fill:#3692cc;fill-opacity:0.5;}</style></defs><title>tile-custom_drama</title><g id="Icons"><g id="icons-_-mi_drama" data-name="icons-/-mi_drama"><g id="Group"><g id="dots"><circle id="Oval-24" cx="17.62" cy="17.62" r="1.27"/><circle id="Oval-24-Copy" cx="37.94" cy="31.59" r="1.27"/><circle id="Oval-24-Copy-7" cx="83.65" cy="64.6" r="1.27"/><circle id="Oval-24-Copy-8" cx="60.79" cy="82.38" r="1.27"/><circle id="Oval-24-Copy-2" cx="32.86" cy="21.43" r="2.54"/><circle id="Oval-24-Copy-4" cx="63.33" cy="70.95" r="2.54"/><circle id="Oval-24-Copy-5" cx="78.57" cy="74.76" r="2.54"/><circle id="Oval-24-Copy-6" cx="70.95" cy="86.19" r="2.54"/><circle id="Oval-24-Copy-3" cx="20.16" cy="30.32" r="2.54"/></g><g id="sad"><path id="bg" class="cls-1" d="M77.3,53.17a30.1,30.1,0,0,0-12.06-2.57,40.43,40.43,0,0,0-10.79,1.3h0a7.54,7.54,0,0,1,6.2-8.67q.36-.06.73-.09Q63.31,43,65.24,43q1.18,0,2.36,0h0a10.12,10.12,0,0,1,9.7,10.11Z"/><path id="face" d="M44.29,12.54H87.46V40.48A21.59,21.59,0,0,1,65.87,62.06c-4.77,0-7.87-.77-9.26-2.17a1.27,1.27,0,0,0-1.8,1.8c2,2,5.67,2.91,11.06,2.91A24.13,24.13,0,0,0,90,40.48V11.27A1.27,1.27,0,0,0,88.73,10H43a1.27,1.27,0,0,0-1.27,1.27V37.94a1.27,1.27,0,0,0,2.54,0Z"/><path id="frown" d="M64.44,46.8a23.72,23.72,0,0,0-9.15,1.83A1.27,1.27,0,1,0,56.14,51a21.34,21.34,0,0,1,8.3-1.68A28.84,28.84,0,0,1,76,51.8a1.27,1.27,0,0,0,1.77-1.17A11.39,11.39,0,0,0,66.85,39.25q-1.21,0-2.41,0c-4.35,0-7.44,1-9.21,3a1.27,1.27,0,1,0,1.91,1.67c1.19-1.36,3.61-2.11,7.3-2.11q1.15,0,2.31,0A8.85,8.85,0,0,1,75,48.68,31,31,0,0,0,64.44,46.8Z"/><g id="eyes"><path id="Oval" d="M57,34.13c-3.42,0-6.35-1.47-6.35-3.81s2.93-3.81,6.35-3.81,6.35,1.47,6.35,3.81S60.4,34.13,57,34.13Zm0-2.54A7,7,0,0,0,60,31c.56-.28.79-.55.79-.66s-.23-.38-.79-.66a7.8,7.8,0,0,0-6,0c-.56.28-.79.55-.79.66s.23.38.79.66A7,7,0,0,0,57,31.59Z"/><path id="Oval-Copy" d="M74.76,34.13c-3.42,0-6.35-1.47-6.35-3.81s2.93-3.81,6.35-3.81,6.35,1.47,6.35,3.81S78.18,34.13,74.76,34.13Zm0-2.54a7,7,0,0,0,3-.61c.56-.28.79-.55.79-.66s-.23-.38-.79-.66a7.8,7.8,0,0,0-6,0c-.56.28-.79.55-.79.66s.23.38.79.66A7,7,0,0,0,74.76,31.59Z"/></g></g><g id="happy"><path id="face-2" data-name="face" d="M11.27,39.21V67.14a21.59,21.59,0,1,0,43.17,0V39.21ZM10,36.67H55.71A1.27,1.27,0,0,1,57,37.94V67.14a24.13,24.13,0,0,1-48.25,0V37.94A1.27,1.27,0,0,1,10,36.67Z"/><path id="bg-2" data-name="bg" class="cls-1" d="M20.16,74.76a26.74,26.74,0,0,0,22.86,0h0A10.14,10.14,0,0,1,33.19,84.9l-1.6,0-1.6,0h0a10.14,10.14,0,0,1-9.82-10.13Z"/><path id="smile" d="M42.79,74.22l0,.09Zm0,.09,0-.09a27.75,27.75,0,0,1-19.87,0,8.87,8.87,0,0,0,8.37,6.87l1.57,0,1.57,0A8.87,8.87,0,0,0,42.77,74.31ZM22,71.07a25.47,25.47,0,0,0,21.8,0,1.27,1.27,0,0,1,1.8,1.15A11.41,11.41,0,0,1,34.5,83.63l-1.64,0-1.64,0a11.41,11.41,0,0,1-11.05-11.4A1.27,1.27,0,0,1,22,71.07Z"/><g id="eyes-2" data-name="eyes"><path id="Oval-2" data-name="Oval" d="M24,60.79c-3.42,0-6.35-1.47-6.35-3.81s2.93-3.81,6.35-3.81,6.35,1.47,6.35,3.81S27.38,60.79,24,60.79Zm0-2.54a7,7,0,0,0,3-.61c.56-.28.79-.55.79-.66s-.23-.38-.79-.66a7,7,0,0,0-3-.61,7,7,0,0,0-3,.61c-.56.28-.79.55-.79.66s.23.38.79.66A7,7,0,0,0,24,58.25Z"/><path id="Oval-Copy-2" data-name="Oval-Copy" d="M41.75,60.79c-3.42,0-6.35-1.47-6.35-3.81s2.93-3.81,6.35-3.81S48.1,54.64,48.1,57,45.17,60.79,41.75,60.79Zm0-2.54a7,7,0,0,0,3-.61c.56-.28.79-.55.79-.66s-.23-.38-.79-.66a7.8,7.8,0,0,0-6,0c-.56.28-.79.55-.79.66s.23.38.79.66A7,7,0,0,0,41.75,58.25Z"/></g></g></g></g></g></svg>