<svg width="100" height="100" xmlns="http://www.w3.org/2000/svg"><g transform="translate(11 10)" fill="none" fill-rule="evenodd"><path fill="#000" d="M59.5 8.75L58.0305369 9.52254249 58.3111794 7.88627124 57.1223587 6.72745751 58.7652684 6.48872876 59.5 5 60.2347316 6.48872876 61.8776413 6.72745751 60.6888206 7.88627124 60.9694631 9.52254249z"/><path fill="#000" d="M71.5 13.75L70.0305369 14.5225425 70.3111794 12.8862712 69.1223587 11.7274575 70.7652684 11.4887288 71.5 10 72.2347316 11.4887288 73.8776413 11.7274575 72.6888206 12.8862712 72.9694631 14.5225425z"/><path fill="#000" d="M10.5 50.75L9.03053687 51.5225425 9.31117935 49.8862712 8.12235871 48.7274575 9.76526843 48.4887288 10.5 47 11.2347316 48.4887288 12.8776413 48.7274575 11.6888206 49.8862712 11.9694631 51.5225425z"/><path fill="#000" d="M74.5 71.75L73.0305369 72.5225425 73.3111794 70.8862712 72.1223587 69.7274575 73.7652684 69.4887288 74.5 68 75.2347316 69.4887288 76.8776413 69.7274575 75.6888206 70.8862712 75.9694631 72.5225425z"/><path fill="#000" d="M71.5 3.75L70.0305369 4.52254249 70.3111794 2.88627124 69.1223587 1.72745751 70.7652684 1.48872876 71.5 0 72.2347316 1.48872876 73.8776413 1.72745751 72.6888206 2.88627124 72.9694631 4.52254249z"/><path fill="#000" d="M2.5 44.75L1.03053687 45.5225425 1.31117935 43.8862712 0.122358709 42.7274575 1.76526843 42.4887288 2.5 41 3.23473157 42.4887288 4.87764129 42.7274575 3.68882065 43.8862712 3.96946313 45.5225425z"/><path d="M39.5 61.25L19.252 71.895a1 1 0 0 1-1.451-1.054l3.867-22.547L5.286 32.326a1 1 0 0 1 .555-1.706l22.638-3.29L38.603 6.818a1 1 0 0 1 1.794 0L50.52 27.331l22.638 3.29a1 1 0 0 1 .555 1.705L57.332 48.294 61.2 70.841a1 1 0 0 1-1.45 1.054L39.5 61.25z" fill-opacity=".5" fill="#3692CC"/><path d="M20.786 68.01l20.249-10.645a1 1 0 0 1 .93 0L62.214 68.01l-3.867-22.547a1 1 0 0 1 .287-.885L75.016 28.61l-22.639-3.29a1 1 0 0 1-.753-.547L41.5 4.26 31.376 24.773a1 1 0 0 1-.753.548L7.984 28.61l16.382 15.967a1 1 0 0 1 .287.885L20.786 68.01zm-.863 2.713a1 1 0 0 1-1.45-1.054l4.12-24.026L5.137 28.628a1 1 0 0 1 .555-1.706l24.123-3.505 10.788-21.86a1 1 0 0 1 1.794 0l10.788 21.86 24.123 3.505a1 1 0 0 1 .555 1.706L60.407 45.643l4.12 24.026a1 1 0 0 1-1.45 1.054L41.5 59.38 19.923 70.723z" fill="#000" fill-rule="nonzero"/></g></svg>