<svg width="100" height="100" xmlns="http://www.w3.org/2000/svg"><g transform="translate(10 10)" fill="none" fill-rule="evenodd"><rect fill-opacity=".5" fill="#3692CC" x="2.963" y="69.136" width="72.099" height="9.877" rx="1"/><circle fill-opacity=".5" fill="#3692CC" cx="39.012" cy="15.309" r="6.42"/><path d="M3.95 19.627v5.068h74.075v-5.068L40.988 2.867 3.95 19.627zM41.396.883L79.42 18.09c.353.16.58.512.58.9v6.692a.988.988 0 0 1-.988.988H2.963a.988.988 0 0 1-.988-.988V18.99c0-.388.227-.74.58-.9L40.58.883a.988.988 0 0 1 .815 0zM5.925 76.049H76.05v-7.9H5.926v7.9zm-.987-9.876h72.099c.546 0 .988.442.988.987v9.877a.988.988 0 0 1-.988.988H4.938a.988.988 0 0 1-.987-.988V67.16c0-.545.442-.987.987-.987z" fill="#000" fill-rule="nonzero"/><path d="M.988 78.025H80a.988.988 0 0 0 0-1.976H.988a.988.988 0 1 0 0 1.976z" fill="#000" fill-rule="nonzero"/><g transform="translate(6.914 25.679)" fill-rule="nonzero" fill="#000"><path d="M.988.988v3.95H12.84V.988H.988zM0-.988h13.827c.546 0 .988.443.988.988v5.926a.988.988 0 0 1-.988.988H0a.988.988 0 0 1-.988-.988V0c0-.545.443-.988.988-.988zm.988 41.482H12.84v-3.95H.988v3.95zM0 34.568h13.827c.546 0 .988.442.988.988v5.925a.988.988 0 0 1-.988.988H0a.988.988 0 0 1-.988-.988v-5.925c0-.546.443-.988.988-.988z"/><path d="M3.95 6.914v27.654h5.927V6.914H3.95zm7.902-1.976v31.605H1.975V4.938h9.877z"/></g><g transform="translate(25.02 25.679)" fill-rule="nonzero" fill="#000"><path d="M.988 40.494H12.84v-3.95H.988v3.95zM0 34.568h13.827c.546 0 .988.442.988.988v5.925a.988.988 0 0 1-.988.988H0a.988.988 0 0 1-.988-.988v-5.925c0-.546.443-.988.988-.988zM.988.988v3.95H12.84V.988H.988zM0-.988h13.827c.546 0 .988.443.988.988v5.926a.988.988 0 0 1-.988.988H0a.988.988 0 0 1-.988-.988V0c0-.545.443-.988.988-.988z"/><path d="M3.95 6.914v27.654h5.927V6.914H3.95zm7.902-1.976v31.605H1.975V4.938h9.877z"/></g><g transform="translate(43.128 25.679)" fill-rule="nonzero" fill="#000"><path d="M.988 40.494H12.84v-3.95H.988v3.95zM0 34.568h13.827c.546 0 .988.442.988.988v5.925a.988.988 0 0 1-.988.988H0a.988.988 0 0 1-.988-.988v-5.925c0-.546.443-.988.988-.988zM.988.988v3.95H12.84V.988H.988zM0-.988h13.827c.546 0 .988.443.988.988v5.926a.988.988 0 0 1-.988.988H0a.988.988 0 0 1-.988-.988V0c0-.545.443-.988.988-.988z"/><path d="M3.95 6.914v27.654h5.927V6.914H3.95zm7.902-1.976v31.605H1.975V4.938h9.877z"/></g><g transform="translate(61.235 25.679)" fill-rule="nonzero" fill="#000"><path d="M.988 40.494H12.84v-3.95H.988v3.95zM0 34.568h13.827c.546 0 .988.442.988.988v5.925a.988.988 0 0 1-.988.988H0a.988.988 0 0 1-.988-.988v-5.925c0-.546.443-.988.988-.988zM.988.988v3.95H12.84V.988H.988zM0-.988h13.827c.546 0 .988.443.988.988v5.926a.988.988 0 0 1-.988.988H0a.988.988 0 0 1-.988-.988V0c0-.545.443-.988.988-.988z"/><path d="M3.95 6.914v27.654h5.927V6.914H3.95zm7.902-1.976v31.605H1.975V4.938h9.877z"/></g><path d="M40.988 21.728a7.407 7.407 0 1 1 0-14.814 7.407 7.407 0 0 1 0 14.814zm0-1.975a5.432 5.432 0 1 0 0-10.864 5.432 5.432 0 0 0 0 10.864z" fill="#000" fill-rule="nonzero"/><circle fill="#000" cx="28.148" cy="14.321" r="1.481"/><circle fill="#000" cx="53.827" cy="14.321" r="1.481"/></g></svg>