<svg id="Layer_1" data-name="Layer 1" xmlns="http://www.w3.org/2000/svg" viewBox="0 0 100 100"><defs><style>.cls-1{fill:#3692cc;fill-opacity:0.5;}</style></defs><title>start</title><g id="Icons"><g id="icons-_-mi_date-start" data-name="icons-/-mi_date-start"><g id="Group"><path id="Path-Copy" class="cls-1" d="M46,41.22h6a1,1,0,0,1,1,1V48a1,1,0,0,1-1,1H46a1,1,0,0,1-1-1V42.2A1,1,0,0,1,46,41.22Z"/><path id="Path-Copy-11" class="cls-1" d="M27,41.22h6a1,1,0,0,1,1,1V48a1,1,0,0,1-1,1H27a1,1,0,0,1-1-1V42.2A1,1,0,0,1,27,41.22Z"/><path id="Path-Copy-6" class="cls-1" d="M65,55.85h6a1,1,0,0,1,1,1v5.85a1,1,0,0,1-1,1H65a1,1,0,0,1-1-1V56.83A1,1,0,0,1,65,55.85Z"/><path id="Path-Copy-10" class="cls-1" d="M27,70.49h6a1,1,0,0,1,1,1v5.85a1,1,0,0,1-1,1H27a1,1,0,0,1-1-1V71.46A1,1,0,0,1,27,70.49Z"/><path id="Path-Copy-9" class="cls-1" d="M65,41.22h6a1,1,0,0,1,1,1V48a1,1,0,0,1-1,1H65a1,1,0,0,1-1-1V42.2A1,1,0,0,1,65,41.22Z"/><path id="Rectangle-36" d="M36.44,16.83H64.56v-2H36.44Zm32.81,0H86.13a.86.86,0,0,1,.88.85V87.2a.86.86,0,0,1-.87.85H14.88A.86.86,0,0,1,14,87.2V17.68a.86.86,0,0,1,.88-.85H31.75v-2H14.88A2.84,2.84,0,0,0,12,17.68V87.2A2.84,2.84,0,0,0,14.88,90H86.13A2.84,2.84,0,0,0,89,87.2V17.68a2.84,2.84,0,0,0-2.87-2.8H69.25Z"/><path id="Rectangle-36-2" data-name="Rectangle-36" d="M36.57,21.71H64.43v-2H36.57Zm32.5,0H81.14a.85.85,0,0,1,.86.84V82.33a.85.85,0,0,1-.86.84H19.86a.85.85,0,0,1-.86-.84V22.54a.85.85,0,0,1,.86-.84H31.93v-2H19.86A2.82,2.82,0,0,0,17,22.54V82.33a2.82,2.82,0,0,0,2.86,2.79H81.14A2.82,2.82,0,0,0,84,82.33V22.54a2.82,2.82,0,0,0-2.86-2.79H69.07Z"/><path id="Rectangle-37-Copy" d="M34.18,12a1.34,1.34,0,0,0-1.35,1.32v9.18a1.35,1.35,0,0,0,2.71,0V13.27A1.34,1.34,0,0,0,34.18,12Zm0-2a3.31,3.31,0,0,1,3.35,3.27v9.18a3.35,3.35,0,0,1-6.71,0V13.27A3.31,3.31,0,0,1,34.18,10Z"/><path id="Rectangle-37-Copy-3" d="M67.12,12a1.34,1.34,0,0,0-1.35,1.32v9.18a1.35,1.35,0,0,0,2.71,0V13.27A1.34,1.34,0,0,0,67.12,12Zm0-2a3.31,3.31,0,0,1,3.35,3.27v9.18a3.35,3.35,0,0,1-6.71,0V13.27A3.31,3.31,0,0,1,67.12,10Z"/><polygon id="Line" points="17 34.39 83 34.39 83 32.44 17 32.44 17 34.39"/><path id="Path" d="M29,47.07h6V41.22H29Zm0-7.8h6a2,2,0,0,1,2,2v5.85a2,2,0,0,1-2,2H29a2,2,0,0,1-2-2V41.22A2,2,0,0,1,29,39.27Z"/><path id="Path-Copy-3" d="M29,61.71h6V55.85H29Zm0-7.8h6a2,2,0,0,1,2,2v5.85a2,2,0,0,1-2,2H29a2,2,0,0,1-2-2V55.85A2,2,0,0,1,29,53.9Z"/><path id="Path-Copy-2" data-name="Path-Copy" d="M48,47.07h6V41.22H48Zm0-7.8h6a2,2,0,0,1,2,2v5.85a2,2,0,0,1-2,2H48a2,2,0,0,1-2-2V41.22A2,2,0,0,1,48,39.27Z"/><path id="Path-Copy-4" d="M48,61.71h6V55.85H48Zm0-7.8h6a2,2,0,0,1,2,2v5.85a2,2,0,0,1-2,2H48a2,2,0,0,1-2-2V55.85A2,2,0,0,1,48,53.9Z"/><path id="Path-Copy-2-2" data-name="Path-Copy-2" d="M67,41.22v5.85h6V41.22Zm0-2h6a2,2,0,0,1,2,2v5.85a2,2,0,0,1-2,2H67a2,2,0,0,1-2-2V41.22A2,2,0,0,1,67,39.27Z"/><path id="Path-Copy-5" d="M67,55.85v5.85h6V55.85Zm0-2h6a2,2,0,0,1,2,2v5.85a2,2,0,0,1-2,2H67a2,2,0,0,1-2-2V55.85A2,2,0,0,1,67,53.9Z"/><path id="Path-Copy-8" d="M29,76.34h6V70.49H29Zm0-7.8h6a2,2,0,0,1,2,2v5.85a2,2,0,0,1-2,2H29a2,2,0,0,1-2-2V70.49A2,2,0,0,1,29,68.54Z"/><path id="Path-Copy-7" d="M48,76.34h6V70.49H48Zm0-7.8h6a2,2,0,0,1,2,2v5.85a2,2,0,0,1-2,2H48a2,2,0,0,1-2-2V70.49A2,2,0,0,1,48,68.54Z"/></g></g></g></svg>