<svg id="Layer_1" data-name="Layer 1" xmlns="http://www.w3.org/2000/svg" viewBox="0 0 375 210"><defs><style>.cls-1{fill:#3692cc;fill-opacity:0.5;}</style></defs><title>login</title><g id="Login_Register" data-name="Login/Register"><g id="login_register_-splash_-bg" data-name="login/register,-splash,-bg"><g id="bg_pattern" data-name="bg pattern"><g id="star"><g id="saved"><polygon id="Star-mini" points="124.5 21.75 123.03 22.52 123.31 20.89 122.12 19.73 123.77 19.49 124.5 18 125.23 19.49 126.88 19.73 125.69 20.89 125.97 22.52 124.5 21.75"/><polygon id="Star-mini-2" data-name="Star-mini" points="188.5 42.75 187.03 43.52 187.31 41.89 186.12 40.73 187.76 40.49 188.5 39 189.24 40.49 190.88 40.73 189.69 41.89 189.97 43.52 188.5 42.75"/><polygon id="Star-mini-3" data-name="Star-mini" points="116.5 15.75 115.03 16.52 115.31 14.89 114.12 13.73 115.77 13.49 116.5 12 117.23 13.49 118.88 13.73 117.69 14.89 117.97 16.52 116.5 15.75"/><path id="Star-blue" class="cls-1" d="M153.5,32.25,133.25,42.9h0a1,1,0,0,1-1.45-1.05l3.87-22.55-16.38-16h0a1,1,0,0,1,.55-1.71l22.64-3.29L152.6-22.18h0a1,1,0,0,1,1.34-.45,1,1,0,0,1,.45.45L164.52-1.67l22.64,3.29h0a1,1,0,0,1,.55,1.71l-16.38,16,3.87,22.55h0a1,1,0,0,1-1.45,1.05Z"/></g><path id="Star-2" data-name="Star" d="M134.79,39,155,28.36a1,1,0,0,1,.93,0L176.21,39l-3.87-22.55a1,1,0,0,1,.29-.89L189-.39,166.38-3.68a1,1,0,0,1-.75-.55L155.5-24.74,145.38-4.23a1,1,0,0,1-.75.55L122-.39l16.38,16a1,1,0,0,1,.29.89Zm-.86,2.71a1,1,0,0,1-1.45-1.05l4.12-24-17.46-17a1,1,0,0,1,.55-1.71l24.12-3.51L154.6-27.44a1,1,0,0,1,1.79,0L167.19-5.58l24.12,3.51a1,1,0,0,1,.55,1.71l-17.46,17,4.12,24a1,1,0,0,1-1.45,1.05L155.5,30.38Z"/></g><g id="planet"><circle id="bg" class="cls-1" cx="354.99" cy="13.01" r="31.9"/><path id="Oval-20" d="M357,43.9A32.91,32.91,0,1,1,389.92,11,32.91,32.91,0,0,1,357,43.9Zm0-2A30.89,30.89,0,1,0,326.13,11,30.89,30.89,0,0,0,357,41.87Z"/><path id="Oval-21" d="M327.58,25c-5.1,8.63-7,15.07-4.38,17.74s8.54,1.38,16.32-3.15C346.9,35.31,355.6,28.36,363.93,20,372.6,11.36,379.76,2.3,384-5.24c4.13-7.36,5.27-12.85,2.66-15.46-2.83-2.83-8-2.11-15.22,2.06l1,1.75c6.48-3.76,10.79-4.36,12.77-2.38,1.7,1.7.71,6.44-3,13C378.1,1.13,371,10,362.5,18.6c-8.22,8.22-16.78,15.06-24,19.25-7,4.08-12.09,5.24-13.87,3.47s.12-7.55,4.69-15.28Z"/><path id="Oval-22" d="M345.87,5.42A4.56,4.56,0,1,1,350.43.86,4.56,4.56,0,0,1,345.87,5.42Zm0-2A2.53,2.53,0,1,0,343.34.86,2.53,2.53,0,0,0,345.87,3.39Z"/><path id="Oval-22-Copy" d="M344.35,24.66a3,3,0,1,1,3-3A3,3,0,0,1,344.35,24.66Zm0-2a1,1,0,1,0-1-1A1,1,0,0,0,344.35,22.63Z"/><circle id="Oval-19-Copy-11" cx="330.18" cy="3.39" r="1.01"/><circle id="Oval-19-Copy-14" cx="369.67" cy="31.75" r="1.01"/><circle id="Oval-19-Copy-40" cx="369.67" cy="35.8" r="1.01"/><circle id="Oval-19-Copy-15" cx="369.67" cy="27.7" r="1.01"/><circle id="Oval-19-Copy-16" cx="369.67" cy="23.65" r="1.01"/><circle id="Oval-19-Copy-17" cx="369.67" cy="19.59" r="1.01"/><circle id="Oval-19-Copy-18" cx="373.72" cy="23.65" r="1.01"/><circle id="Oval-19-Copy-21" cx="373.72" cy="27.7" r="1.01"/><circle id="Oval-19-Copy-22" cx="373.72" cy="31.75" r="1.01"/><circle id="Oval-19-Copy-23" cx="365.62" cy="31.75" r="1.01"/><circle id="Oval-19-Copy-26" cx="365.62" cy="35.8" r="1.01"/><circle id="Oval-19-Copy-27" cx="361.57" cy="35.8" r="1.01"/><circle id="Oval-19-Copy-28" cx="357.52" cy="35.8" r="1.01"/><circle id="Oval-19-Copy-44" cx="353.47" cy="35.8" r="1.01"/><circle id="Oval-19-Copy-43" cx="357.52" cy="31.75" r="1.01"/><circle id="Oval-19-Copy-25" cx="365.62" cy="27.7" r="1.01"/><circle id="Oval-19-Copy-41" cx="361.57" cy="27.7" r="1.01"/><circle id="Oval-19-Copy-42" cx="361.57" cy="31.75" r="1.01"/><circle id="Oval-19-Copy-24" cx="365.62" cy="23.65" r="1.01"/><circle id="Oval-19-Copy-39" cx="373.72" cy="15.54" r="1.01"/><circle id="Oval-19-Copy-19" cx="373.72" cy="19.59" r="1.01"/><circle id="Oval-19-Copy-12" cx="332.2" cy="-0.66" r="1.01"/></g><g id="tasks"><g id="clipboard"><rect id="Rectangle-35" class="cls-1" x="112.95" y="77.76" width="45.85" height="66.34" rx="2" ry="2"/><path id="Rectangle" d="M151,71.93h13.66a1,1,0,0,1,1,1V146a1,1,0,0,1-1,1H113a1,1,0,0,1-1-1V72.88a1,1,0,0,1,1-1h13.66v-2H113a3,3,0,0,0-3,3V146a3,3,0,0,0,3,3h51.71a3,3,0,0,0,3-3V72.88a3,3,0,0,0-3-3H151Z"/><path id="Rectangle-Copy" d="M151,76.8h8.78a1,1,0,0,1,1,1V140.2a1,1,0,0,1-1,1h-42a1,1,0,0,1-1-1V77.76a1,1,0,0,1,1-1h8.78v-2h-8.78a3,3,0,0,0-3,3V140.2a3,3,0,0,0,3,3h42a3,3,0,0,0,3-3V77.76a3,3,0,0,0-3-3H151Z"/><path id="Rectangle-34" d="M128.61,69a1,1,0,0,0-1,1v5.76a1,1,0,0,0,1,1H149a1,1,0,0,0,1-1V70a1,1,0,0,0-1-1Zm0-2H149a3,3,0,0,1,3,3v5.76a3,3,0,0,1-3,3H128.61a3,3,0,0,1-3-3V70A3,3,0,0,1,128.61,67Z"/><path id="Line" d="M131.49,73.88h14.63a1,1,0,0,0,0-2H131.49a1,1,0,0,0,0,2Z"/></g><g id="lines"><path id="Line-Copy" d="M123.68,90.46h30.24a1,1,0,1,0,0-2H123.68a1,1,0,0,0,0,2Z"/><path id="Line-Copy-2" d="M123.68,98.27h30.24a1,1,0,1,0,0-2H123.68a1,1,0,1,0,0,2Z"/><path id="Line-Copy-3" d="M123.68,106.07h30.24a1,1,0,1,0,0-2H123.68a1,1,0,1,0,0,2Z"/><path id="Line-Copy-4" d="M123.68,113.88h14.63a1,1,0,0,0,0-2H123.68a1,1,0,0,0,0,2Z"/></g></g><g id="money"><ellipse id="bg-2" data-name="bg" class="cls-1" cx="39.95" cy="86.13" rx="13.68" ry="13.87"/><ellipse id="Oval" cx="42.05" cy="52" rx="1.05" ry="1.07"/><ellipse id="Oval-Copy-2" cx="66.26" cy="30.67" rx="1.05" ry="1.07"/><ellipse id="Oval-Copy" cx="16.79" cy="40.27" rx="1.05" ry="1.07"/><path id="Oval-11" d="M42.05,100A14.93,14.93,0,1,1,56.79,85.07,14.84,14.84,0,0,1,42.05,100Zm0-2.13a12.8,12.8,0,1,0-12.63-12.8A12.72,12.72,0,0,0,42.05,97.87Z"/><path id="Oval-11-Copy" d="M66.26,65.87A14.93,14.93,0,1,1,81,50.93,14.84,14.84,0,0,1,66.26,65.87Zm0-2.13a12.8,12.8,0,1,0-12.63-12.8A12.72,12.72,0,0,0,66.26,63.73Z"/><path id="Oval-11-Copy-2" d="M16.79,74.4a14.93,14.93,0,0,1,0-29.87,14.93,14.93,0,0,1,0,29.87Zm0-2.13a12.8,12.8,0,0,0,0-25.6,12.8,12.8,0,0,0,0,25.6Z"/><path id="Line-2" data-name="Line" d="M12.58,33.33V21.6a1.05,1.05,0,1,0-2.11,0V33.33a1.05,1.05,0,1,0,2.11,0Z"/><path id="Line-Copy-6" d="M62,25.33V21.07a1,1,0,1,0-2,0v4.27a1,1,0,0,0,2,0Z"/><path id="Line-Copy-3-2" data-name="Line-Copy-3" d="M37.84,45.6V28.44a1.05,1.05,0,1,0-2.11,0V45.6a1.05,1.05,0,1,0,2.11,0Z"/><path id="Line-Copy-2-2" data-name="Line-Copy-2" d="M23.11,33.33V21.6a1.05,1.05,0,1,0-2.11,0V33.33a1.05,1.05,0,1,0,2.11,0Z"/><path id="Line-Copy-7" d="M72.53,25.33V21.07a1,1,0,1,0-2,0v4.27a1,1,0,0,0,2,0Z"/><path id="Line-Copy-4-2" data-name="Line-Copy-4" d="M48.37,45.6V28.53a1.05,1.05,0,1,0-2.11,0V45.6a1.05,1.05,0,1,0,2.11,0Z"/><path id="Line-Copy-2-3" data-name="Line-Copy" d="M17.84,37.07V23.2a1.05,1.05,0,1,0-2.11,0V37.07a1.05,1.05,0,1,0,2.11,0Z"/><path id="Line-Copy-8" d="M67.32,27.36V23.1a1.05,1.05,0,1,0-2.11,0v4.27a1.05,1.05,0,1,0,2.11,0Z"/><path id="Line-Copy-5" d="M43.11,48.8V30.67a1.05,1.05,0,1,0-2.11,0V48.8a1.05,1.05,0,1,0,2.11,0Z"/><path id="Line-Copy-9" d="M43.11,95.73V74.4a1.05,1.05,0,1,0-2.11,0V95.73a1.05,1.05,0,1,0,2.11,0Z"/><path id="Line-Copy-9-2" data-name="Line-Copy-9" d="M67.32,61.6V40.27a1.05,1.05,0,1,0-2.11,0V61.6a1.05,1.05,0,1,0,2.11,0Z"/><path id="Line-Copy-9-3" data-name="Line-Copy-9" d="M17.84,70.13V48.8a1.05,1.05,0,1,0-2.11,0V70.13a1.05,1.05,0,1,0,2.11,0Z"/><path id="s" d="M17.4,60.45c2.87.58,3.69,1.44,3.69,3s-1.64,2.75-4.17,2.75-3.79-.93-4.36-2.78a1.31,1.31,0,0,0-1.36-.86,2.45,2.45,0,0,0-.44.06,1.32,1.32,0,0,0-1.14,1.22,2.23,2.23,0,0,0,.06.42c.82,2.85,3.19,4.48,7.23,4.48,4.42,0,7-2.27,7-5.34,0-3.36-1.64-4.58-5.75-5.44l-2-.42C13.58,57,13,56.32,13,54.85s1.2-2.4,3.76-2.4c1.8,0,3.19.74,3.6,2.18a1.24,1.24,0,0,0,1.29.86,2.73,2.73,0,0,0,.51-.06,1.35,1.35,0,0,0,1.11-1.18,1.63,1.63,0,0,0-.06-.38c-.79-2.34-3-3.84-6.54-3.84-4.07,0-6.54,2-6.54,4.9s1.61,4.42,5.49,5.18Z"/><path id="s-copy" d="M42.66,86c2.87.58,3.69,1.44,3.69,3s-1.64,2.75-4.17,2.75S38.4,90.88,37.83,89a1.31,1.31,0,0,0-1.36-.86,2.45,2.45,0,0,0-.44.06,1.32,1.32,0,0,0-1.14,1.22,2.23,2.23,0,0,0,.06.42c.82,2.85,3.19,4.48,7.23,4.48,4.42,0,7-2.27,7-5.34,0-3.36-1.64-4.58-5.75-5.44l-2-.42c-2.65-.58-3.25-1.22-3.25-2.69S39.44,78,42,78c1.8,0,3.19.74,3.6,2.18a1.24,1.24,0,0,0,1.29.86A2.73,2.73,0,0,0,47.4,81a1.35,1.35,0,0,0,1.11-1.18,1.63,1.63,0,0,0-.06-.38c-.79-2.34-3-3.84-6.54-3.84-4.07,0-6.54,2-6.54,4.9S37,84.93,40.86,85.7Z"/><path id="s-copy-2" data-name="s-copy" d="M66.87,51.91c2.87.58,3.69,1.44,3.69,3s-1.64,2.75-4.17,2.75-3.79-.93-4.36-2.78A1.31,1.31,0,0,0,60.68,54a2.45,2.45,0,0,0-.44.06,1.32,1.32,0,0,0-1.14,1.22,2.23,2.23,0,0,0,.06.42c.82,2.85,3.19,4.48,7.23,4.48,4.42,0,7-2.27,7-5.34,0-3.36-1.64-4.58-5.75-5.44l-2-.42c-2.65-.58-3.25-1.22-3.25-2.69s1.2-2.4,3.76-2.4c1.8,0,3.19.74,3.6,2.18a1.24,1.24,0,0,0,1.29.86,2.73,2.73,0,0,0,.51-.06,1.35,1.35,0,0,0,1.11-1.18,1.63,1.63,0,0,0-.06-.38c-.79-2.34-3-3.84-6.54-3.84-4.07,0-6.54,2-6.54,4.9s1.61,4.42,5.49,5.18Z"/></g><g id="airport"><path id="bg-3" data-name="bg" class="cls-1" d="M350.2,92.57l3.61,1.2h0a2,2,0,0,1,1.08.86L371.5,122h-16l-6.59-28.26h0a1,1,0,0,1,1.29-1.18Z"/><path id="bg-4" data-name="bg" class="cls-1" d="M349.2,169.43l3.61-1.2h0a2,2,0,0,0,1.08-.86L370.5,140h-16l-6.59,28.26h0a1,1,0,0,0,1.29,1.18Z"/><circle id="Oval-14-Copy-24" cx="374.5" cy="126" r="1"/><circle id="Oval-14-Copy-28" cx="374.5" cy="134" r="1"/><circle id="Oval-14-Copy-25" cx="369.5" cy="126" r="1"/><circle id="Oval-14-Copy-29" cx="369.5" cy="134" r="1"/><circle id="Oval-14-Copy-26" cx="364.5" cy="126" r="1"/><circle id="Oval-14-Copy-30" cx="364.5" cy="134" r="1"/><path id="Rectangle-2" data-name="Rectangle" d="M341.41,122.41l-.16,0,.08,0Zm.24,2-14.1.61a1,1,0,0,1-.08-2l13.87-.58,10.06-2.06,37.28-.35a9.85,9.85,0,0,1,9.83,9.87V130a9.93,9.93,0,0,1-9.82,10H351.59l-10.24-2.08H327.51a1,1,0,0,1,0-2h13.95L351.69,138h37a7.93,7.93,0,0,0,7.82-8v-.07a7.85,7.85,0,0,0-7.81-7.89l-37,.33Z"/><path id="Line-3" data-name="Line" d="M324,129H314a1,1,0,0,0,0,2h10a1,1,0,0,0,0-2Z"/><g id="Group"><path id="Line-4" data-name="Line" d="M344.5,96h-20a1,1,0,0,0,0,2h20a1,1,0,0,0,0-2Z"/><path id="Line-Copy-3-3" data-name="Line-Copy" d="M344.5,102h-15a1,1,0,0,0,0,2h15a1,1,0,0,0,0-2Z"/></g><g id="Group-2"><path id="Line-Copy-2-4" data-name="Line-Copy-2" d="M344.5,162h-20a1,1,0,0,0,0,2h20a1,1,0,0,0,0-2Z"/><path id="Line-Copy-3-4" data-name="Line-Copy-3" d="M344.5,156h-15a1,1,0,0,0,0,2h15a1,1,0,0,0,0-2Z"/></g><path id="Rectangle-4" d="M356,94.15a1,1,0,0,0-.54-.43l-3.61-1.2L358.29,120h13.43Zm.09-2.33a3,3,0,0,1,1.62,1.29L375.28,122H356.71l-6.77-29a2,2,0,0,1,2.58-2.35Z"/><path id="Rectangle-4-2" data-name="Rectangle-4" d="M356,166.37a1,1,0,0,1-.54.43l-3.61,1.2,6.41-27.49h13.43Zm-3.51,3.53,3.61-1.2a3,3,0,0,0,1.62-1.29l17.54-28.89H356.71l-6.77,29a2,2,0,0,0,2.58,2.35Z"/><path id="Rectangle-5" d="M363.5,105h9a1,1,0,0,1,1,1v3a1,1,0,0,1-1,1h-5v2h5a3,3,0,0,0,3-3v-3a3,3,0,0,0-3-3h-9Z"/><path id="Rectangle-5-2" data-name="Rectangle-5" d="M363.5,155h9a1,1,0,0,0,1-1v-3a1,1,0,0,0-1-1h-5v-2h5a3,3,0,0,1,3,3v3a3,3,0,0,1-3,3h-9Z"/><path id="Rectangle-4-3" data-name="Rectangle-4" d="M318.64,125.71,314.51,112l1.67.33a1,1,0,0,1,.52.3l10,12a1,1,0,0,0,1.53-1.28l-10.06-12a3,3,0,0,0-1.59-.93l-1.68-.37a2,2,0,0,0-2.32,2.62l4.12,13.65a1,1,0,1,0,1.91-.58Z"/><path id="Rectangle-4-4" data-name="Rectangle-4" d="M318.64,135.26,314.51,149l1.67-.33a1,1,0,0,0,.52-.3l10-12a1,1,0,0,1,1.53,1.28l-10.06,12a3,3,0,0,1-1.59.93l-1.68.37a2,2,0,0,1-2.32-2.62l4.12-13.65a1,1,0,1,1,1.91.58Z"/></g><g id="town"><path id="bg-5" data-name="bg" class="cls-1" d="M30,128H54a2,2,0,0,1,2,2v4H28v-4h0A2,2,0,0,1,30,128Z"/><path id="bg-6" data-name="bg" class="cls-1" d="M55.55,162H87.45a1,1,0,0,1,1,.7l3.18,10h0a1,1,0,0,1-1,1.3H52.37a1,1,0,0,1-1-1.3l3.18-10h0A1,1,0,0,1,55.55,162Z"/><path id="Line-3-Copy-3" d="M14.86,201h4.29a1,1,0,0,0,0-2H14.86a1,1,0,0,0,0,2Z"/><path id="Line-3-Copy-4" d="M10.86,198h4.29a1,1,0,0,0,0-2H10.86a1,1,0,0,0,0,2Z"/><g id="building"><path id="Line-Copy-4-3" data-name="Line-Copy" d="M43.73,139.83v-3a1,1,0,0,0-2,0v3a1,1,0,1,0,2,0Z"/><path id="Line-Copy-13" d="M36.81,139.83v-3a1,1,0,0,0-2,0v3a1,1,0,1,0,2,0Z"/><path id="Line-Copy-14" d="M36.81,149.7v-3a1,1,0,1,0-2,0v3a1,1,0,0,0,2,0Z"/><path id="Line-Copy-7-2" data-name="Line-Copy-7" d="M50.64,139.83v-3a1,1,0,1,0-2,0v3a1,1,0,1,0,2,0Z"/><path id="Line-Copy-8-2" data-name="Line-Copy-8" d="M50.64,149.7v-3a1,1,0,1,0-2,0v3a1,1,0,0,0,2,0Z"/><path id="Line-Copy-9-4" data-name="Line-Copy-9" d="M50.64,159.58v-3a1,1,0,1,0-2,0v3a1,1,0,1,0,2,0Z"/><path id="Line-Copy-2-5" data-name="Line-Copy-2" d="M43.73,149.7v-3a1,1,0,1,0-2,0v3a1,1,0,0,0,2,0Z"/></g><polygon id="Line-5" data-name="Line" points="27.93 132.91 57.56 132.91 57.56 130.94 27.93 130.94 27.93 132.91"/><path id="Rectangle-15" d="M28.91,159.93V129h0a1,1,0,0,1,1-1H55.58a1,1,0,0,1,1,1v32.65h2V129a3,3,0,0,0-3-3H29.9a3,3,0,0,0-3,3v31"/><path id="Line-6" data-name="Line" d="M7.14,205H94.86a1,1,0,1,0,0-2H7.14a1,1,0,1,0,0,2Z"/><path id="Rectangle-9" d="M39,167v-5h3v10h2V162a2,2,0,0,0-2-2H39a2,2,0,0,0-2,2v5Z"/><path id="Line-3-2" data-name="Line-3" d="M54,191v12.5a1,1,0,0,0,2,0V191a1,1,0,0,0-2,0Z"/><path id="Line-3-3" data-name="Line-3" d="M54,172v3a1,1,0,0,0,2,0v-3a1,1,0,0,0-2,0Z"/><path id="Rectangle-10" d="M8.91,177.67l19.57-17.46L46.64,176,48,174.49,28.47,157.55,7.58,176.18a2,2,0,0,0-.2,2.78l.68.81a2,2,0,0,0,2.82.17l17.64-15.7,15.1,12.9,1.3-1.52-16.43-14L9.56,178.44Z"/><g id="tree"><path id="Oval-8" d="M50.15,193.16A9.88,9.88,0,1,1,60,183.28,9.88,9.88,0,0,1,50.15,193.16Zm0-2a7.9,7.9,0,1,0-7.9-7.9A7.9,7.9,0,0,0,50.15,191.19Z"/><path id="Line-2-2" data-name="Line-2" d="M49.16,184.27V204a1,1,0,0,0,2,0V184.27a1,1,0,0,0-2,0Z"/><path id="Oval-9" d="M45.21,184.27a4.94,4.94,0,1,0,9.88,0,1,1,0,0,0-2,0,3,3,0,1,1-5.93,0,1,1,0,0,0-2,0Z"/></g><polygon id="Line-4-2" data-name="Line-4" points="10 179 10 205 12 205 12 179 10 179"/><polygon id="Line-4-3" data-name="Line-4" points="91 171 91 204 93 204 93 171 91 171"/><polygon id="Line-4-Copy" points="46 191 46 205 48 205 48 191 46 191"/><path id="Rectangle-23" d="M18,185v8h8v-8Zm0-2h8a2,2,0,0,1,2,2v8a2,2,0,0,1-2,2H18a2,2,0,0,1-2-2v-8A2,2,0,0,1,18,183Z"/><path id="Rectangle-23-Copy" d="M35,191v12h6V191Zm0-2h6a2,2,0,0,1,2,2v12a2,2,0,0,1-2,2H35a2,2,0,0,1-2-2V191A2,2,0,0,1,35,189Z"/><polygon id="Line-5-2" data-name="Line-5" points="21 184.5 21 194.5 23 194.5 23 184.5 21 184.5"/><polygon id="Line-6-2" data-name="Line-6" points="17 190 28 190 28 188 17 188 17 190"/><circle id="Oval-10" cx="39" cy="198" r="1"/><path id="Rectangle-23-Copy-2" data-name="Rectangle-23-Copy" d="M80,189v14h7V189Zm0-2h7a2,2,0,0,1,2,2v14a2,2,0,0,1-2,2H80a2,2,0,0,1-2-2V189A2,2,0,0,1,80,187Z"/><circle id="Oval-10-2" data-name="Oval-10" cx="85" cy="198" r="1"/><path id="Rectangle-24" d="M57.44,163l-2.67,8H92.23l-2.67-8Zm-.72-2H90.28a1,1,0,0,1,.95.68l3.33,10a1,1,0,0,1-.95,1.32H53.39a1,1,0,0,1-.95-1.32l3.33-10A1,1,0,0,1,56.72,161Z"/><path id="Rectangle-25" d="M59,188v8H74v-8Zm0-2H74a2,2,0,0,1,2,2v8a2,2,0,0,1-2,2H59a2,2,0,0,1-2-2v-8A2,2,0,0,1,59,186Z"/><path id="Line-3-Copy-4-2" data-name="Line-3-Copy-4" d="M60.86,191h4.29a1,1,0,0,0,0-2H60.86a1,1,0,0,0,0,2Z"/><path id="Line-3-Copy-3-2" data-name="Line-3-Copy-3" d="M81.86,181h4.29a1,1,0,0,0,0-2H81.86a1,1,0,0,0,0,2Z"/><path id="Line-3-Copy-4-3" data-name="Line-3-Copy-4" d="M87.86,178h4.29a1,1,0,0,0,0-2H87.86a1,1,0,0,0,0,2Z"/></g><g id="search"><circle id="Oval-7" class="cls-1" cx="235.74" cy="150.95" r="22.63"/><path id="Oval-7-2" data-name="Oval-7" d="M238.89,173.53a23.63,23.63,0,1,1,23.63-23.63A23.63,23.63,0,0,1,238.89,173.53Zm0-2a21.63,21.63,0,1,0-21.63-21.63A21.63,21.63,0,0,0,238.89,171.53Z"/><path id="Oval-7-3" data-name="Oval-7" d="M238.89,178.79a28.89,28.89,0,1,1,28.89-28.89A28.89,28.89,0,0,1,238.89,178.79Zm0-2A26.89,26.89,0,1,0,212,149.89,26.89,26.89,0,0,0,238.89,176.79Z"/><path id="Rectangle-14" d="M259.43,167.85l27,27a2.69,2.69,0,0,1-3.8,3.8l-27-27-1.41,1.41,27,27a4.69,4.69,0,0,0,6.62-6.62l-27-27Z"/><polygon id="Line-7" data-name="Line" points="271.31 189.15 277.19 183.27 275.78 181.85 269.9 187.74 271.31 189.15"/><path id="Oval-6" d="M224.87,160.4c2.28,3.89,4.42,5.54,9.29,6.2a1,1,0,1,0,.27-2c-4.2-.57-5.84-1.83-7.83-5.23a1,1,0,0,0-1.73,1Z"/></g><g id="college"><rect id="Rectangle-45" class="cls-1" x="219.96" y="87.14" width="72.1" height="9.88" rx="1" ry="1"/><circle id="Oval-31" class="cls-1" cx="256.01" cy="33.31" r="6.42"/><path id="Rectangle-44" d="M221,37.63v5.07H295V37.63L258,20.87Zm37.44-18.74,38,17.21a1,1,0,0,1,.58.9v6.69a1,1,0,0,1-1,1H220a1,1,0,0,1-1-1V37a1,1,0,0,1,.58-.9l38-17.21A1,1,0,0,1,258.39,18.88Z"/><path id="Rectangle-45-2" data-name="Rectangle-45" d="M222.93,94H293v-7.9H222.93Zm-1-9.88H294a1,1,0,0,1,1,1V95a1,1,0,0,1-1,1h-72.1a1,1,0,0,1-1-1V85.16A1,1,0,0,1,221.94,84.17Z"/><path id="Line-2-3" data-name="Line-2" d="M218,96h79a1,1,0,1,0,0-2H218a1,1,0,1,0,0,2Z"/><g id="Group-4"><path id="Rectangle-2-2" data-name="Rectangle-2" d="M224.9,44.67v4h11.85v-4Zm-1-2h13.83a1,1,0,0,1,1,1V49.6a1,1,0,0,1-1,1H223.91a1,1,0,0,1-1-1V43.68A1,1,0,0,1,223.91,42.69Z"/><path id="Rectangle-2-Copy-4" d="M224.9,84.17h11.85v-4H224.9Zm-1-5.93h13.83a1,1,0,0,1,1,1v5.93a1,1,0,0,1-1,1H223.91a1,1,0,0,1-1-1V79.23A1,1,0,0,1,223.91,78.25Z"/><path id="Rectangle-46" d="M227.86,50.59V78.25h5.93V50.59Zm7.9-2v31.6h-9.88V48.62Z"/></g><g id="Group-2-2" data-name="Group"><path id="Rectangle-2-Copy-5" d="M243,84.17h11.85v-4H243Zm-1-5.93h13.83a1,1,0,0,1,1,1v5.93a1,1,0,0,1-1,1H242a1,1,0,0,1-1-1V79.23A1,1,0,0,1,242,78.25Z"/><path id="Rectangle-2-Copy" d="M243,44.67v4h11.85v-4Zm-1-2h13.83a1,1,0,0,1,1,1V49.6a1,1,0,0,1-1,1H242a1,1,0,0,1-1-1V43.68A1,1,0,0,1,242,42.69Z"/><path id="Rectangle-46-Copy" d="M246,50.59V78.25h5.93V50.59Zm7.9-2v31.6H244V48.62Z"/></g><g id="Group-2-3" data-name="Group-2"><path id="Rectangle-2-Copy-6" d="M261.12,84.17H273v-4H261.12Zm-1-5.93H274a1,1,0,0,1,1,1v5.93a1,1,0,0,1-1,1H260.13a1,1,0,0,1-1-1V79.23A1,1,0,0,1,260.13,78.25Z"/><path id="Rectangle-2-Copy-2" d="M261.12,44.67v4H273v-4Zm-1-2H274a1,1,0,0,1,1,1V49.6a1,1,0,0,1-1,1H260.13a1,1,0,0,1-1-1V43.68A1,1,0,0,1,260.13,42.69Z"/><path id="Rectangle-46-Copy-2" d="M264.08,50.59V78.25H270V50.59Zm7.9-2v31.6H262.1V48.62Z"/></g><g id="Group-3"><path id="Rectangle-2-Copy-7" d="M279.22,84.17h11.85v-4H279.22Zm-1-5.93h13.83a1,1,0,0,1,1,1v5.93a1,1,0,0,1-1,1H278.23a1,1,0,0,1-1-1V79.23A1,1,0,0,1,278.23,78.25Z"/><path id="Rectangle-2-Copy-3" d="M279.22,44.67v4h11.85v-4Zm-1-2h13.83a1,1,0,0,1,1,1V49.6a1,1,0,0,1-1,1H278.23a1,1,0,0,1-1-1V43.68A1,1,0,0,1,278.23,42.69Z"/><path id="Rectangle-46-Copy-3" d="M282.19,50.59V78.25h5.93V50.59Zm7.9-2v31.6h-9.88V48.62Z"/></g><path id="Oval-31-2" data-name="Oval-31" d="M258,39.73a7.41,7.41,0,1,1,7.41-7.41A7.41,7.41,0,0,1,258,39.73Zm0-2a5.43,5.43,0,1,0-5.43-5.43A5.43,5.43,0,0,0,258,37.75Z"/><circle id="Oval-32" cx="245.15" cy="32.32" r="1.48"/><circle id="Oval-32-Copy" cx="270.83" cy="32.32" r="1.48"/></g></g></g></g></svg>