<?xml version="1.0" standalone="no"?><!-- Generator: Gravit.io --><svg xmlns="http://www.w3.org/2000/svg" xmlns:xlink="http://www.w3.org/1999/xlink" style="isolation:isolate" viewBox="0 0 100 100" width="100" height="100"><defs><clipPath id="_clipPath_exT3gse9uXDLNi02p4x8Sbrmn4zu6M8I"><rect width="100" height="100"/></clipPath></defs><g clip-path="url(#_clipPath_exT3gse9uXDLNi02p4x8Sbrmn4zu6M8I)"><clipPath id="_clipPath_03YWbvd0BjVbiJaui15SxXp4reowI7Df"><rect x="0" y="0" width="100" height="100" transform="matrix(1,0,0,1,0,0)" fill="rgb(255,255,255)"/></clipPath><g clip-path="url(#_clipPath_03YWbvd0BjVbiJaui15SxXp4reowI7Df)"><g><clipPath id="_clipPath_95k4OXROZH3AwAcnnfItRsqvu1MbfeAM"><rect x="0" y="0" width="100" height="100" transform="matrix(1,0,0,1,0,0)" fill="rgb(255,255,255)"/></clipPath><g clip-path="url(#_clipPath_95k4OXROZH3AwAcnnfItRsqvu1MbfeAM)"><g><g><path d=" M 62.17 13.93 L 75.83 13.93 C 76.382 13.93 76.83 14.378 76.83 14.93 L 76.83 88 C 76.83 88.552 76.382 89 75.83 89 L 24.17 89 C 23.618 89 23.17 88.552 23.17 88 L 23.17 14.88 C 23.17 14.328 23.618 13.88 24.17 13.88 L 37.78 13.88 L 37.78 11.88 L 24.17 11.88 C 22.513 11.88 21.17 13.223 21.17 14.88 L 21.17 88 C 21.17 89.657 22.513 91 24.17 91 L 75.83 91 C 77.487 91 78.83 89.657 78.83 88 L 78.83 14.88 C 78.83 13.223 77.487 11.88 75.83 11.88 L 62.17 11.88 L 62.17 13.93 L 62.17 13.93 L 62.17 13.93 Z " fill="rgb(0,0,0)"/><path d=" M 62.17 18.8 L 70.95 18.8 C 71.502 18.8 71.95 19.248 71.95 19.8 L 71.95 82.2 C 71.95 82.752 71.502 83.2 70.95 83.2 L 28.95 83.2 C 28.398 83.2 27.95 82.752 27.95 82.2 L 27.95 19.76 C 27.95 19.208 28.398 18.76 28.95 18.76 L 37.73 18.76 L 37.73 16.76 L 29 16.76 C 27.343 16.76 26 18.103 26 19.76 L 26 82.2 C 26 83.857 27.343 85.2 29 85.2 L 71 85.2 C 72.657 85.2 74 83.857 74 82.2 L 74 19.76 C 74 18.103 72.657 16.76 71 16.76 L 62.17 16.76 L 62.17 18.8 L 62.17 18.8 L 62.17 18.8 Z " fill="rgb(0,0,0)"/><path d=" M 39.78 11 C 39.228 11 38.78 11.448 38.78 12 L 38.78 17.76 C 38.78 18.312 39.228 18.76 39.78 18.76 L 60.17 18.76 C 60.722 18.76 61.17 18.312 61.17 17.76 L 61.17 12 C 61.17 11.448 60.722 11 60.17 11 L 39.78 11 L 39.78 11 L 39.78 11 Z  M 39.78 9 L 60.17 9 C 61.827 9 63.17 10.343 63.17 12 L 63.17 17.76 C 63.17 19.417 61.827 20.76 60.17 20.76 L 39.78 20.76 C 38.123 20.76 36.78 19.417 36.78 17.76 L 36.78 12 C 36.78 10.343 38.123 9 39.78 9 Z " fill="rgb(0,0,0)"/><path d=" M 36.78 13.88 L 24.17 13.88 C 23.618 13.88 23.17 14.328 23.17 14.88 L 23.17 88 C 23.17 88.552 23.618 89 24.17 89 L 75.83 89 C 76.382 89 76.83 88.552 76.83 88 L 76.83 14.93 C 76.83 14.378 76.382 13.93 75.83 13.93 L 63.17 13.93 L 63.17 16.76 L 65.926 16.76 L 71 16.76 C 72.657 16.76 74 18.103 74 19.76 L 74 82.2 C 74 83.857 72.657 85.2 71 85.2 L 29 85.2 C 27.343 85.2 26 83.857 26 82.2 L 26 19.76 C 26 18.103 27.343 16.76 29 16.76 L 34.82 16.76 L 36.78 16.76 L 36.78 13.88 L 36.78 13.88 Z " fill="rgb(54,147,205)" fill-opacity="0.22"/><path d=" M 42.66 15.88 L 57.29 15.88 C 57.842 15.88 58.29 15.432 58.29 14.88 C 58.29 14.328 57.842 13.88 57.29 13.88 L 42.66 13.88 C 42.108 13.88 41.66 14.328 41.66 14.88 C 41.66 15.432 42.108 15.88 42.66 15.88 Z " fill="rgb(0,0,0)"/></g></g></g></g></g></g></svg>