<svg id="Layer_1" data-name="Layer 1" xmlns="http://www.w3.org/2000/svg" viewBox="0 0 100 100"><defs><style>.cls-1{fill:#3692cc;fill-opacity:0.5;}</style></defs><title>detail_attachments</title><g id="Icons"><g id="icons-_-mi_empty-attachment" data-name="icons-/-mi_empty-attachment"><g id="Group"><path id="Path-11" class="cls-1" d="M68.26,41.83H37.64a9,9,0,0,0-8.89,9c0,3.85,2,8.79,8.89,8.79H72.21c7.9,0,13.83-4,13.83-13.83S80.11,31,72.21,31H28.75c-10.86,0-19,7.11-18.86,19.85s8,18.67,18.86,18.67H67.27c3,0,4-1,4-2.47s-1-2.47-4-2.47H28.75c-8.89,0-13.83-5.73-13.83-13.73S19.86,35.9,28.75,35.9H72.21c4.94,0,8.89,3,8.89,9.88s-4,8.89-8.89,8.89H37.64c-3,0-4-1.38-4-3.85s1-4,4-4h31.6c2,0,3-1,3-2.47S71.22,41.83,68.26,41.83Z"/><path id="Path-11-2" data-name="Path-11" d="M70.23,38.86c3.24,0,4.94,1.19,4.94,3.46s-1.53,3.46-4,3.46H39.62c-2.19,0-3,.88-3,3.06s.72,2.86,3,2.86H74.19c5.23,0,7.9-2.26,7.9-7.9,0-5.87-3-8.89-7.9-8.89H30.73c-7.8,0-12.84,5.86-12.84,13.93,0,7.77,4.8,12.74,12.84,12.74H69.25c3.24,0,4.94,1.19,4.94,3.46s-1.7,3.46-4.94,3.46H30.73c-12.12,0-19.75-7-19.85-19.65C10.78,36,18.82,28,30.73,28H74.19C83.13,28,89,33.87,89,43.8c0,9.76-5.62,14.81-14.81,14.81H39.62c-6.55,0-9.88-4.2-9.88-9.78a9.89,9.89,0,0,1,9.88-10Zm0,2H39.62a7.93,7.93,0,0,0-7.9,8c0,4.57,2.56,7.8,7.9,7.8H74.19C82.33,56.64,87,52.42,87,43.8,87,35,82,30,74.19,30H30.73c-10.81,0-18,7.16-17.88,18.86.09,11.51,6.81,17.69,17.88,17.69H69.25c2.27,0,3-.49,3-1.48s-.7-1.48-3-1.48H30.73c-9.15,0-14.81-5.87-14.81-14.72,0-9.1,5.85-15.9,14.81-15.9H74.19c6,0,9.88,3.9,9.88,10.86s-3.62,9.88-9.88,9.88H39.62c-3.36,0-4.94-1.67-4.94-4.84s1.6-5,4.94-5h31.6c1.39,0,2-.52,2-1.48S72.5,40.84,70.23,40.84Z"/></g></g></g></svg>