<svg id="Layer_1" data-name="Layer 1" xmlns="http://www.w3.org/2000/svg" viewBox="0 0 100 100"><defs><style>.cls-1{fill:#3692cc;fill-opacity:0.5;}</style></defs><title>detail_notes</title><g id="Icons"><g id="icons-_-mi_empty-notes" data-name="icons-/-mi_empty-notes"><g id="empty-notes"><path id="bg" class="cls-1" d="M12,15.25H84.62a2,2,0,0,1,2,2V64h0a2,2,0,0,1-2,2H75.35V84.63h0a1,1,0,0,1-1.76.64L57.32,66H12a2,2,0,0,1-2-2V17.25h0A2,2,0,0,1,12,15.25Z"/><g id="note"><path id="Rectangle-37" d="M77.73,82.37V63.7a1,1,0,0,1,1-1H88a1,1,0,0,0,1-1V15a1,1,0,0,0-1-1H15.38a1,1,0,0,0-1,1V61.7a1,1,0,0,0,1,1H60.7a1,1,0,0,1,.76.36ZM15.38,64.7a3,3,0,0,1-3-3V15a3,3,0,0,1,3-3H88a3,3,0,0,1,3,3V61.7a3,3,0,0,1-3,3H79.73V85.11a1,1,0,0,1-1.76.64L60.24,64.7Z"/><path id="Line" d="M26.34,26.39H77a1,1,0,0,0,0-2H26.34a1,1,0,0,0,0,2Z"/><path id="Line-Copy" d="M26.34,34.28H77a1,1,0,0,0,0-2H26.34a1,1,0,0,0,0,2Z"/><path id="Line-Copy-2" d="M26.34,42.17H77a1,1,0,0,0,0-2H26.34a1,1,0,1,0,0,2Z"/><path id="Line-Copy-3" d="M26.34,50.06H40.42a1,1,0,1,0,0-2H26.34a1,1,0,1,0,0,2Z"/></g></g></g></g></svg>