<svg width="100" height="100" xmlns="http://www.w3.org/2000/svg"><g transform="translate(22 10)" fill="none" fill-rule="evenodd"><circle fill-opacity=".5" fill="#3692CC" cx="14.634" cy="22.439" r="5.854"/><circle fill-opacity=".5" fill="#3692CC" cx="14.634" cy="37.073" r="5.854"/><g fill-rule="nonzero" fill="#000"><path d="M40 3.927h13.659c.525 0 .95.426.95.951v73.17a.951.951 0 0 1-.95.952H1.95A.951.951 0 0 1 1 78.049V4.878c0-.525.426-.951.951-.951H15.61v-2H1.95A2.951 2.951 0 0 0-1 4.878v73.17A2.951 2.951 0 0 0 1.951 81H53.66a2.951 2.951 0 0 0 2.95-2.951V4.878a2.951 2.951 0 0 0-2.95-2.951H40v2z"/><path d="M40 8.805h8.78c.526 0 .952.426.952.951v62.44a.951.951 0 0 1-.952.95H6.83a.951.951 0 0 1-.952-.95V9.755c0-.525.426-.951.951-.951h8.78v-2H6.83a2.951 2.951 0 0 0-2.951 2.951v62.44a2.951 2.951 0 0 0 2.951 2.95H48.78a2.951 2.951 0 0 0 2.952-2.95V9.755a2.951 2.951 0 0 0-2.952-2.951H40v2z"/><path d="M17.61 1a1 1 0 0 0-1 1v5.756a1 1 0 0 0 1 1H38a1 1 0 0 0 1-1V2a1 1 0 0 0-1-1H17.61zm0-2H38a3 3 0 0 1 3 3v5.756a3 3 0 0 1-3 3H17.61a3 3 0 0 1-3-3V2a3 3 0 0 1 3-3z"/><path d="M20.488 5.878h14.634a1 1 0 1 0 0-2H20.488a1 1 0 1 0 0 2z"/></g><path d="M25.366 21.488h17.56a1 1 0 0 0 0-2h-17.56a1 1 0 1 0 0 2zm0 3.902h12.683a1 1 0 1 0 0-2H25.366a1 1 0 1 0 0 2zm0 8.78h17.56a1 1 0 1 0 0-2h-17.56a1 1 0 1 0 0 2zm0 3.903h5.854a1 1 0 1 0 0-2h-5.854a1 1 0 1 0 0 2zM13.39 21.732a1 1 0 0 0-1.414 1.414l2.927 2.927a1 1 0 0 0 1.414 0l5.854-5.854a1 1 0 0 0-1.415-1.414l-5.146 5.147-2.22-2.22z" fill="#000" fill-rule="nonzero"/><g transform="translate(12.683 32.195)" fill-rule="nonzero" fill="#000"><path d="M-.22 1.195l6.83 6.83A1 1 0 0 0 8.024 6.61L1.194-.22A1 1 0 1 0-.218 1.196z"/><path d="M1.195 8.024l6.83-6.83A1 1 0 0 0 6.61-.218L-.22 6.61a1 1 0 1 0 1.415 1.414z"/></g></g></svg>