<?xml version="1.0" standalone="no"?><!-- Generator: Gravit.io --><svg xmlns="http://www.w3.org/2000/svg" xmlns:xlink="http://www.w3.org/1999/xlink" style="isolation:isolate" viewBox="0 0 100 100" width="100" height="100"><g><rect x="0" y="0" width="100" height="100" transform="matrix(1,0,0,1,0,0)" fill="none"/><g><circle vector-effect="non-scaling-stroke" cx="50.493410509706905" cy="42.112361840332674" r="11.116119493237761" fill="rgb(54,146,204)" fill-opacity="0.5"/><g><path d=" M 62 13.927 L 75.659 13.927 C 75.911 13.927 76.153 14.027 76.331 14.206 C 76.509 14.384 76.609 14.626 76.609 14.878 L 76.609 88.048 C 76.609 88.3 76.509 88.542 76.331 88.721 C 76.153 88.899 75.911 89 75.659 89 L 23.95 89 C 23.425 88.999 23 88.574 23 88.049 L 23 14.878 C 23 14.353 23.426 13.927 23.951 13.927 L 37.61 13.927 L 37.61 11.927 L 23.95 11.927 C 22.321 11.928 21 13.249 21 14.878 L 21 88.048 C 21 88.831 21.311 89.582 21.864 90.135 C 22.417 90.689 23.168 91 23.951 91 L 75.66 91 C 77.289 90.999 78.61 89.678 78.61 88.049 L 78.61 14.878 C 78.61 13.249 77.289 11.928 75.66 11.927 L 62 11.927 L 62 13.927 L 62 13.927 Z " fill="rgb(0,0,0)"/><path d=" M 62 18.805 L 70.78 18.805 C 71.306 18.805 71.732 19.231 71.732 19.756 L 71.732 82.196 C 71.732 82.448 71.631 82.69 71.453 82.868 C 71.274 83.046 71.032 83.146 70.78 83.146 L 28.83 83.146 C 28.578 83.146 28.336 83.046 28.157 82.868 C 27.979 82.69 27.878 82.448 27.878 82.196 L 27.878 19.755 C 27.878 19.23 28.304 18.804 28.829 18.804 L 37.609 18.804 L 37.609 16.804 L 28.83 16.804 C 28.047 16.804 27.297 17.115 26.743 17.668 C 26.19 18.222 25.879 18.972 25.879 19.755 L 25.879 82.195 C 25.88 83.824 27.201 85.145 28.83 85.145 L 70.78 85.145 C 71.563 85.145 72.313 84.835 72.867 84.281 C 73.421 83.728 73.732 82.978 73.732 82.195 L 73.732 19.755 C 73.732 18.972 73.421 18.221 72.867 17.668 C 72.314 17.115 71.563 16.804 70.78 16.804 L 62 16.804 L 62 18.804 L 62 18.805 Z " fill="rgb(0,0,0)"/><path d=" M 39.61 11 C 39.058 11 38.61 11.448 38.61 12 L 38.61 17.756 C 38.61 18.308 39.058 18.756 39.61 18.756 L 60 18.756 C 60.552 18.756 61 18.308 61 17.756 L 61 12 C 61 11.448 60.552 11 60 11 L 39.61 11 L 39.61 11 Z  M 39.61 9 L 60 9 C 61.657 9 63 10.343 63 12 L 63 17.756 C 63 19.413 61.657 20.756 60 20.756 L 39.61 20.756 C 37.953 20.756 36.61 19.413 36.61 17.756 L 36.61 12 C 36.61 10.343 37.953 9 39.61 9 Z " fill="rgb(0,0,0)"/><path d=" M 42.488 15.878 L 57.122 15.878 C 57.674 15.878 58.122 15.43 58.122 14.878 C 58.122 14.326 57.674 13.878 57.122 13.878 L 42.488 13.878 C 41.936 13.878 41.488 14.326 41.488 14.878 C 41.488 15.43 41.936 15.878 42.488 15.878 Z " fill="rgb(0,0,0)"/></g><g><path d=" M 55.46 39.82 L 57.58 35.47 L 53.97 38.04 L 52.94 36.33 L 57.11 33.82 C 58.254 33.057 59.511 34.083 59.06 35.36 L 59.06 35.36 L 57.36 40.46 L 55.46 39.82 Z  M 53.82 46.11 L 57.59 48.22 L 55.48 44.46 L 57.34 43.71 L 58.99 47.84 C 59.498 49.047 58.417 50.128 57.21 49.62 L 57.21 49.62 L 53.08 47.97 L 53.82 46.11 Z  M 45.51 44.46 L 43.4 48.22 L 47.16 46.11 L 47.91 47.97 L 43.78 49.62 C 42.569 50.104 41.483 49.067 42 47.84 L 42 47.84 L 43.65 43.71 L 45.51 44.46 Z  M 47.02 38.04 L 43.41 35.47 L 45.53 39.82 L 43.63 40.46 L 41.93 35.36 C 41.488 34.108 42.729 33.026 43.87 33.82 L 43.87 33.82 L 48.05 36.33 L 47.02 38.04 Z " fill-rule="evenodd" fill="rgb(0,0,0)"/><path d=" M 35.126 41.535 L 45.78 38.34 L 49.807 27.26 C 50.184 26.222 50.797 26.222 51.174 27.259 L 55.21 38.34 L 65.864 41.535 C 66.922 41.853 66.922 42.367 65.864 42.685 L 55.21 45.88 L 51.174 56.961 C 50.797 57.998 50.184 57.998 49.807 56.96 L 45.78 45.88 L 35.126 42.685 C 34.068 42.367 34.068 41.853 35.126 41.535 Z  M 40.17 42.11 L 47.32 39.97 L 50.49 31.24 L 53.67 39.97 L 60.82 42.11 L 53.67 44.26 L 50.49 52.99 L 47.32 44.26 L 40.17 42.11 Z " fill-rule="evenodd" fill="rgb(0,0,0)"/></g></g></g></svg>