<svg width="100" height="100" xmlns="http://www.w3.org/2000/svg"><g fill="none" fill-rule="evenodd"><g transform="translate(22 10)" fill-rule="nonzero" fill="#000"><path d="M40 3.927h13.659c.525 0 .95.426.95.951v73.17a.951.951 0 0 1-.95.952H1.95A.951.951 0 0 1 1 78.049V4.878c0-.525.426-.951.951-.951H15.61v-2H1.95A2.951 2.951 0 0 0-1 4.878v73.17A2.951 2.951 0 0 0 1.951 81H53.66a2.951 2.951 0 0 0 2.95-2.951V4.878a2.951 2.951 0 0 0-2.95-2.951H40v2z"/><path d="M40 8.805h8.78c.526 0 .952.426.952.951v62.44a.951.951 0 0 1-.952.95H6.83a.951.951 0 0 1-.952-.95V9.755c0-.525.426-.951.951-.951h8.78v-2H6.83a2.951 2.951 0 0 0-2.951 2.951v62.44a2.951 2.951 0 0 0 2.951 2.95H48.78a2.951 2.951 0 0 0 2.952-2.95V9.755a2.951 2.951 0 0 0-2.952-2.951H40v2z"/><path d="M17.61 1a1 1 0 0 0-1 1v5.756a1 1 0 0 0 1 1H38a1 1 0 0 0 1-1V2a1 1 0 0 0-1-1H17.61zm0-2H38a3 3 0 0 1 3 3v5.756a3 3 0 0 1-3 3H17.61a3 3 0 0 1-3-3V2a3 3 0 0 1 3-3z"/><path d="M20.488 5.878h14.634a1 1 0 1 0 0-2H20.488a1 1 0 1 0 0 2z"/></g><g transform="translate(38 30)"><ellipse fill-opacity=".5" fill="#3692CC" cx="10.798" cy="12.49" rx="10.594" ry="10.735"/><path d="M12.428 23.226c-6.301 0-11.41-5.176-11.41-11.561C1.019 5.279 6.128.103 12.429.103S23.837 5.28 23.837 11.665c0 6.385-5.108 11.56-11.41 11.56zm0-1.652c5.4 0 9.78-4.437 9.78-9.91 0-5.472-4.38-9.91-9.78-9.91-5.401 0-9.78 4.438-9.78 9.91 0 5.473 4.379 9.91 9.78 9.91z" fill="#000" fill-rule="nonzero"/><path d="M13.243 19.923V3.406a.82.82 0 0 0-.815-.825.82.82 0 0 0-.815.825v16.517a.82.82 0 0 0 .815.825.82.82 0 0 0 .815-.825z" fill="#000" fill-rule="nonzero"/><path d="M12.9 12.424c2.225.446 2.861 1.115 2.861 2.329 0 1.264-1.271 2.13-3.227 2.13-1.932 0-2.934-.718-3.374-2.155-.147-.47-.587-.669-1.051-.669-.098 0-.22.025-.343.05-.464.099-.88.446-.88.941 0 .1.025.199.05.322.635 2.205 2.468 3.469 5.598 3.469 3.423 0 5.427-1.76 5.427-4.138 0-2.6-1.271-3.542-4.45-4.211l-1.515-.322c-2.054-.446-2.518-.942-2.518-2.081 0-1.04.929-1.858 2.91-1.858 1.393 0 2.468.57 2.786 1.684.122.471.563.67 1.003.67.122 0 .269-.026.39-.05.44-.124.856-.446.856-.917 0-.099-.024-.198-.048-.297-.612-1.809-2.347-2.973-5.061-2.973-3.154 0-5.061 1.536-5.061 3.79 0 2.354 1.247 3.42 4.254 4.014l1.394.272z" fill="#000"/></g></g></svg>