<svg width="100" height="100" xmlns="http://www.w3.org/2000/svg"><g transform="translate(22 10)" fill="none" fill-rule="evenodd"><g transform="translate(10.732 22.439)" fill-opacity=".5" fill="#3692CC"><path d="M5.854 6.83l-.976 10.243c1.626-1.626 3.252-2.439 4.878-2.439 1.626 0 3.455.813 5.488 2.44 2.032-1.627 3.862-2.44 5.488-2.44 1.626 0 3.252.813 4.878 2.44L23.415 6.828l-8.78 2.927L5.853 6.83z"/><path d="M0 4.87804878L14.6341463 0 29.2682927 4.87804878 14.6341463 9.75609756z"/></g><g fill-rule="nonzero" fill="#000"><path d="M40 3.927h13.659c.525 0 .95.426.95.951v73.17a.951.951 0 0 1-.95.952H1.95A.951.951 0 0 1 1 78.049V4.878c0-.525.426-.951.951-.951H15.61v-2H1.95A2.951 2.951 0 0 0-1 4.878v73.17A2.951 2.951 0 0 0 1.951 81H53.66a2.951 2.951 0 0 0 2.95-2.951V4.878a2.951 2.951 0 0 0-2.95-2.951H40v2z"/><path d="M40 8.805h8.78c.526 0 .952.426.952.951v62.44a.951.951 0 0 1-.952.95H6.83a.951.951 0 0 1-.952-.95V9.755c0-.525.426-.951.951-.951h8.78v-2H6.83a2.951 2.951 0 0 0-2.951 2.951v62.44a2.951 2.951 0 0 0 2.951 2.95H48.78a2.951 2.951 0 0 0 2.952-2.95V9.755a2.951 2.951 0 0 0-2.952-2.951H40v2z"/><path d="M17.61 1a1 1 0 0 0-1 1v5.756a1 1 0 0 0 1 1H38a1 1 0 0 0 1-1V2a1 1 0 0 0-1-1H17.61zm0-2H38a3 3 0 0 1 3 3v5.756a3 3 0 0 1-3 3H17.61a3 3 0 0 1-3-3V2a3 3 0 0 1 3-3z"/><path d="M20.488 5.878h14.634a1 1 0 1 0 0-2H20.488a1 1 0 1 0 0 2z"/></g><g transform="translate(12.683 21.463)" fill-rule="nonzero" fill="#000"><path d="M.316 5.827L14.95.949a1 1 0 0 0-.632-1.898L-.316 3.93a1 1 0 0 0 .632 1.898zm14.634 2.98L.316 3.93a1 1 0 0 0-.632 1.898l14.634 4.878a1 1 0 0 0 .632-1.898zM28.952 3.93L14.318 8.807a1 1 0 0 0 .632 1.898l14.635-4.878a1 1 0 1 0-.633-1.898zM14.318.95l14.634 4.878a1 1 0 0 0 .633-1.898L14.95-.949A1 1 0 0 0 14.318.95z"/><path d="M.22 5.488v9.756a1 1 0 1 0 2 0V5.488a1 1 0 0 0-2 0zm20.512 8.146c-1.707 0-3.532.739-5.488 2.178-1.957-1.44-3.781-2.178-5.488-2.178-1.228 0-2.434.382-3.615 1.128l.95-8.554-1.987-.22-1.22 10.975c-.104.94 1.033 1.486 1.701.817 1.453-1.453 2.84-2.146 4.171-2.146 1.365 0 2.992.723 4.863 2.22a1 1 0 0 0 1.25 0c1.87-1.497 3.498-2.22 4.863-2.22 1.331 0 2.718.693 4.17 2.146.708.708 1.901.053 1.684-.924l-2.44-10.975-1.951.433 1.834 8.256c-1.079-.62-2.179-.936-3.297-.936z"/></g></g></svg>