<?xml version="1.0" standalone="no"?><!-- Generator: Gravit.io --><svg xmlns="http://www.w3.org/2000/svg" xmlns:xlink="http://www.w3.org/1999/xlink" style="isolation:isolate" viewBox="0 0 100 100" width="100" height="100"><defs><clipPath id="_clipPath_hCrYXyzNEfn4B4qwGkQsOvDR6arSYAmx"><rect width="100" height="100"/></clipPath></defs><g clip-path="url(#_clipPath_hCrYXyzNEfn4B4qwGkQsOvDR6arSYAmx)"><g><path d=" M 40.2 27.5 L 44.3 20.4 C 44.6 19.8 44.7 19.1 44.4 18.5 C 43.9 17.5 42.7 17.1 41.7 17.6 L 38 19.4 L 36.5 17.4 C 36.4 17.2 36.3 17.1 36.1 17 C 35.2 16.3 34 16.5 33.3 17.4 L 31.8 19.4 L 28.1 17.6 C 27.5 17.3 26.8 17.3 26.2 17.7 C 25.3 18.3 24.9 19.5 25.5 20.4 L 29.6 27.5 C 19.5 29.9 12 38.9 12 49.7 L 12 78.3 C 12 79.9 13.3 81.3 15 81.3 L 54.7 81.3 C 56.3 81.3 57.7 80 57.7 78.3 L 57.7 49.7 C 57.8 38.9 50.3 29.9 40.2 27.5 Z  M 27.4 19.4 L 31.8 21.6 C 32.2 21.8 32.8 21.7 33 21.3 L 35 18.7 L 37 21.3 C 37.3 21.7 37.8 21.8 38.2 21.6 L 42.6 19.4 L 38.1 27.1 C 37.1 27 36 26.9 35 26.9 C 33.9 26.9 32.9 27 31.9 27.1 L 27.4 19.4 L 27.4 19.4 Z  M 55.8 78.3 C 55.8 78.8 55.4 79.3 54.8 79.3 L 15.2 79.3 C 14.7 79.3 14.2 78.9 14.2 78.3 L 14.2 49.7 C 14.2 38.2 23.5 28.9 35 28.9 C 46.5 28.9 55.8 38.2 55.8 49.7 L 55.8 78.3 L 55.8 78.3 Z " fill="rgb(0,0,0)"/><g><circle vector-effect="non-scaling-stroke" cx="34.9" cy="9.9" r="1" fill="rgb(0,0,0)"/><path d=" M 35.8 6.9 L 35.8 2.7 C 35.8 2.2 35.4 1.9 35 1.9 C 34.6 1.9 34.1 2.2 34.1 2.7 L 34.1 7 C 34.1 7.5 34.5 7.8 34.9 7.8 C 35.3 7.8 35.8 7.4 35.8 6.9 Z " fill="rgb(0,0,0)"/></g><g><path d=" M 12.209 18.35 C 12.209 18.901 11.761 19.35 11.209 19.35 C 10.658 19.35 10.209 18.901 10.209 18.35 C 10.209 17.798 10.658 17.35 11.209 17.35 C 11.761 17.35 12.209 17.798 12.209 18.35 Z " fill="rgb(0,0,0)"/><path d=" M 9.734 15.588 L 6.764 12.619 C 6.41 12.265 5.916 12.336 5.633 12.619 C 5.35 12.901 5.208 13.467 5.562 13.821 L 8.532 16.791 C 8.885 17.144 9.38 17.073 9.663 16.791 C 9.946 16.508 10.087 15.942 9.734 15.588 Z " fill="rgb(0,0,0)"/></g><g><path d=" M 59.445 18.304 C 59.445 18.856 58.997 19.304 58.445 19.304 C 57.893 19.304 57.445 18.856 57.445 18.304 C 57.445 17.752 57.893 17.304 58.445 17.304 C 58.997 17.304 59.445 17.752 59.445 18.304 Z " fill="rgb(0,0,0)"/><path d=" M 61.228 16.822 L 64.198 13.852 C 64.551 13.498 64.551 12.933 64.198 12.579 C 63.844 12.226 63.349 12.296 62.995 12.65 L 59.955 15.69 C 59.672 15.973 59.601 16.468 59.955 16.822 C 60.308 17.175 60.874 17.175 61.228 16.822 Z " fill="rgb(0,0,0)"/></g><g><path d=" M 61.168 31.156 C 61.168 31.708 60.72 32.156 60.168 32.156 C 59.616 32.156 59.168 31.708 59.168 31.156 C 59.168 30.604 59.616 30.156 60.168 30.156 C 60.72 30.156 61.168 30.604 61.168 31.156 Z " fill="rgb(0,0,0)"/><path d=" M 64.401 29.035 C 64.401 29.587 63.953 30.035 63.401 30.035 C 62.849 30.035 62.401 29.587 62.401 29.035 C 62.401 28.483 62.849 28.035 63.401 28.035 C 63.953 28.035 64.401 28.483 64.401 29.035 Z " fill="rgb(0,0,0)"/><path d=" M 67.634 26.914 C 67.634 27.466 67.186 27.914 66.634 27.914 C 66.083 27.914 65.634 27.466 65.634 26.914 C 65.634 26.362 66.083 25.914 66.634 25.914 C 67.186 25.914 67.634 26.362 67.634 26.914 Z " fill="rgb(0,0,0)"/></g><g><circle vector-effect="non-scaling-stroke" cx="3.1603840000000005" cy="26.830093" r="1" fill="rgb(0,0,0)"/><circle vector-effect="non-scaling-stroke" cx="6.560384" cy="28.630093000000002" r="1" fill="rgb(0,0,0)"/><circle vector-effect="non-scaling-stroke" cx="9.960384" cy="30.330093000000005" r="1" fill="rgb(0,0,0)"/></g><g><path d=" M 21.806 10.416 C 21.806 10.968 21.358 11.416 20.806 11.416 C 20.254 11.416 19.806 10.968 19.806 10.416 C 19.806 9.864 20.254 9.416 20.806 9.416 C 21.358 9.416 21.806 9.864 21.806 10.416 Z " fill="rgb(0,0,0)"/><path d=" M 19.447 6.31 C 19.447 6.862 18.998 7.31 18.447 7.31 C 17.895 7.31 17.447 6.862 17.447 6.31 C 17.447 5.758 17.895 5.31 18.447 5.31 C 18.998 5.31 19.447 5.758 19.447 6.31 Z " fill="rgb(0,0,0)"/></g><g><path d=" M 50.095 10.503 C 50.095 11.055 49.647 11.503 49.095 11.503 C 48.543 11.503 48.095 11.055 48.095 10.503 C 48.095 9.951 48.543 9.503 49.095 9.503 C 49.647 9.503 50.095 9.951 50.095 10.503 Z " fill="rgb(0,0,0)"/><path d=" M 52.454 6.397 C 52.454 6.949 52.006 7.397 51.454 7.397 C 50.902 7.397 50.454 6.949 50.454 6.397 C 50.454 5.845 50.902 5.397 51.454 5.397 C 52.006 5.397 52.454 5.845 52.454 6.397 Z " fill="rgb(0,0,0)"/></g></g><path d=" M 69.7 64.1 L 96.2 90.6 C 97.8 92.2 97.8 94.7 96.2 96.2 L 96.2 96.2 C 94.6 97.8 92.1 97.8 90.6 96.2 L 64.1 69.7 L 69.7 64.1 Z " fill="rgb(255,255,255)"/><circle vector-effect="non-scaling-stroke" cx="48.00000000000001" cy="47.1" r="27.800000000000004" fill="rgb(255,255,255)"/><path d=" M 39.9 51.72 L 40.8 51.9 C 47.1 53.2 50.6 55.4 50.6 61.3 C 50.6 66.356 46.819 70.277 39.9 70.491 L 39.9 72.5 C 39.9 73.3 39.3 73.9 38.5 73.9 C 37.7 73.9 37.1 73.3 37.1 72.5 L 37.1 70.401 C 29.686 69.701 28.016 65.422 27.1 62.4 C 27.1 62.2 27 62 27 61.9 C 27 61 27.7 60.4 28.5 60.2 C 28.7 60.2 28.9 60.1 29.2 60.1 C 30 60.1 30.7 60.5 31 61.3 C 31.618 63.683 32.781 66.377 37.1 66.977 L 37.1 55.006 L 36.6 54.9 C 30.5 53.6 27.7 51.3 27.7 46 C 27.7 41.974 30.505 38.123 37.1 37.649 L 37.1 35.6 C 37.1 34.8 37.7 34.2 38.5 34.2 C 39.3 34.2 39.9 34.8 39.9 35.6 L 39.9 37.651 C 46.127 38.117 48.36 41.694 49.2 44.4 C 49.3 44.6 49.3 44.8 49.3 45 C 49.3 45.9 48.6 46.5 47.8 46.6 C 47.6 46.6 47.4 46.7 47.1 46.7 C 46.4 46.7 45.6 46.4 45.3 45.5 C 44.938 43.508 43.509 41.433 39.9 41.059 L 39.9 51.72 Z  M 39.9 67.071 C 43.975 66.8 46.5 64.666 46.5 61.4 C 46.5 58.1 44.7 56.6 39.9 55.6 L 39.9 67.071 Z  M 37.1 41.098 C 33.499 41.564 31.8 43.627 31.8 46 C 31.8 48.744 33.143 50.235 37.1 51.15 L 37.1 41.098 Z " fill-rule="evenodd" fill="rgb(0,0,0)"/><path d=" M 45.75 25.66 L 44.82 25.31 L 47.45 23.79 C 48.67 24.24 49.83 24.86 50.88 25.64 C 52.04 26.48 53.11 27.44 54.07 28.5 C 56.17 30.79 57.86 33.42 59.06 36.28 C 59.32 36.91 59.53 37.57 59.7 38.23 C 59.89 38.98 60.05 39.74 60.17 40.5 C 60.44 42.27 60.63 44.06 60.72 45.85 C 60.83 47.89 60.9 49.93 60.93 51.96 C 60.95 54.12 60.97 56.27 60.96 58.42 C 60.96 60.94 60.98 63.46 61.03 65.98 L 58.04 67.02 L 58.03 66.02 C 57.98 63.48 57.96 60.95 57.96 58.41 C 57.97 56.27 57.95 54.13 57.93 51.99 C 57.9 49.98 57.84 47.97 57.72 45.96 C 57.63 44.24 57.45 42.52 57.19 40.81 C 57.08 40.11 56.94 39.41 56.76 38.72 C 56.62 38.15 56.44 37.59 56.21 37.05 C 55.1 34.4 53.54 31.97 51.6 29.85 C 50.72 28.89 49.75 28.02 48.7 27.25 C 47.8 26.58 46.8 26.05 45.75 25.66 Z " fill="rgb(0,0,0)"/><circle vector-effect="non-scaling-stroke" cx="47.90000000000002" cy="47.099999999999994" r="25.297773469101507" fill="none" stroke-width="5" stroke="rgb(255,255,255)" stroke-linejoin="miter" stroke-linecap="butt" stroke-miterlimit="4"/><g opacity="0.5"><circle vector-effect="non-scaling-stroke" cx="44.7" cy="48" r="22.5" fill="rgb(54,146,204)"/></g><path d=" M 47.9 70.5 C 34.9 70.5 24.4 60 24.4 47 C 24.4 34 34.9 23.5 47.9 23.5 C 60.9 23.5 71.4 34 71.4 47 C 71.4 60 60.8 70.5 47.9 70.5 Z  M 47.9 68.5 C 59.8 68.5 69.4 58.9 69.4 47 C 69.4 35.1 59.7 25.5 47.9 25.5 C 36.1 25.5 26.4 35.1 26.4 47 C 26.4 58.9 36 68.5 47.9 68.5 Z " fill="rgb(0,0,0)"/><path d=" M 96.6 90.3 L 70.7 64.4 C 74.4 59.6 76.6 53.5 76.6 47 C 76.6 31.1 63.7 18.3 47.9 18.3 C 32.1 18.3 19.1 31.1 19.1 47 C 19.1 62.9 32 75.7 47.8 75.7 C 53.7 75.7 59.3 73.9 63.8 70.8 L 90 96.9 C 91.8 98.7 94.7 98.6 96.5 96.8 C 98.3 95 98.3 92.1 96.6 90.3 Z  M 21.1 47 C 21.1 32.2 33.1 20.3 47.8 20.3 C 62.6 20.3 74.5 32.3 74.5 47 C 74.5 61.8 62.5 73.7 47.8 73.7 C 33.1 73.7 21.1 61.8 21.1 47 Z  M 69.4 66 L 83.4 80 L 79.6 83.8 L 65.5 69.6 C 66.9 68.5 68.2 67.3 69.4 66 Z  M 95.1 95.4 C 94.1 96.4 92.4 96.5 91.4 95.5 L 81 85.1 L 84.8 81.3 L 95.2 91.7 C 96.1 92.7 96.1 94.3 95.1 95.4 Z " fill="rgb(0,0,0)"/></g></svg>