<?xml version="1.0" standalone="no"?><!-- Generator: Gravit.io --><svg xmlns="http://www.w3.org/2000/svg" xmlns:xlink="http://www.w3.org/1999/xlink" style="isolation:isolate" viewBox="0 0 100 100" width="100" height="100"><defs><clipPath id="_clipPath_soo4fh1W58CzrlBsekwJATYOiPitntiz"><rect width="100" height="100"/></clipPath></defs><g clip-path="url(#_clipPath_soo4fh1W58CzrlBsekwJATYOiPitntiz)"><g><path d="M 25.951 19.756 L 67.805 19.756 C 68.909 19.756 69.805 20.652 69.805 21.756 L 69.805 84.097 C 69.805 85.201 68.909 86.097 67.805 86.097 L 25.951 86.097 C 24.847 86.097 23.951 85.201 23.951 84.097 L 23.951 21.756 C 23.951 20.652 24.847 19.756 25.951 19.756 Z" style="stroke:none;fill:#3692CC;stroke-miterlimit:10;opacity:0.5;"/><path d=" M 62 13.927 L 75.659 13.927 C 76.184 13.927 76.609 14.353 76.609 14.878 L 76.609 88.048 C 76.609 88.3 76.509 88.542 76.331 88.721 C 76.153 88.899 75.911 89 75.659 89 L 23.95 89 C 23.425 88.999 23 88.574 23 88.049 L 23 14.878 C 23 14.353 23.426 13.927 23.951 13.927 L 37.61 13.927 L 37.61 11.927 L 23.95 11.927 C 22.321 11.928 21 13.249 21 14.878 L 21 88.048 C 21 88.831 21.311 89.582 21.864 90.135 C 22.417 90.689 23.168 91 23.951 91 L 75.66 91 C 77.289 90.999 78.61 89.678 78.61 88.049 L 78.61 14.878 C 78.61 13.249 77.289 11.928 75.66 11.927 L 62 11.927 L 62 13.927 Z " fill="rgb(0,0,0)"/><path d=" M 62 18.805 L 70.78 18.805 C 71.306 18.805 71.732 19.231 71.732 19.756 L 71.732 82.196 C 71.732 82.448 71.631 82.69 71.453 82.868 C 71.274 83.046 71.032 83.146 70.78 83.146 L 28.83 83.146 C 28.578 83.146 28.336 83.046 28.157 82.868 C 27.979 82.69 27.878 82.448 27.878 82.196 L 27.878 19.755 C 27.878 19.23 28.304 18.804 28.829 18.804 L 37.609 18.804 L 37.609 16.804 L 28.83 16.804 C 28.047 16.804 27.297 17.115 26.743 17.668 C 26.19 18.222 25.879 18.972 25.879 19.755 L 25.879 82.195 C 25.88 83.824 27.201 85.145 28.83 85.145 L 70.78 85.145 C 71.563 85.145 72.313 84.835 72.867 84.281 C 73.421 83.728 73.732 82.978 73.732 82.195 L 73.732 19.755 C 73.732 18.972 73.421 18.221 72.867 17.668 C 72.314 17.115 71.563 16.804 70.78 16.804 L 62 16.804 L 62 18.804 L 62 18.805 Z " fill="rgb(0,0,0)"/><path d=" M 39.61 11 C 39.058 11 38.61 11.448 38.61 12 L 38.61 17.756 C 38.61 18.308 39.058 18.756 39.61 18.756 L 60 18.756 C 60.552 18.756 61 18.308 61 17.756 L 61 12 C 61 11.448 60.552 11 60 11 L 39.61 11 Z  M 39.61 9 L 60 9 C 61.657 9 63 10.343 63 12 L 63 17.756 C 63 19.413 61.657 20.756 60 20.756 L 39.61 20.756 C 37.953 20.756 36.61 19.413 36.61 17.756 L 36.61 12 C 36.61 10.343 37.953 9 39.61 9 Z " fill="rgb(0,0,0)"/><path d=" M 42.488 15.878 L 57.122 15.878 C 57.674 15.878 58.122 15.43 58.122 14.878 C 58.122 14.326 57.674 13.878 57.122 13.878 L 42.488 13.878 C 41.936 13.878 41.488 14.326 41.488 14.878 C 41.488 15.43 41.936 15.878 42.488 15.878 Z " fill="rgb(0,0,0)"/><g><path d=" M 34.683 57.268 L 64.927 57.268 C 65.479 57.268 65.927 56.82 65.927 56.268 C 65.927 55.716 65.479 55.268 64.927 55.268 L 34.683 55.268 C 34.131 55.268 33.683 55.716 33.683 56.268 C 33.683 56.82 34.131 57.268 34.683 57.268 Z  M 34.683 65.073 L 64.927 65.073 C 65.479 65.073 65.927 64.625 65.927 64.073 C 65.927 63.521 65.479 63.073 64.927 63.073 L 34.683 63.073 C 34.131 63.073 33.683 63.521 33.683 64.073 C 33.683 64.625 34.131 65.073 34.683 65.073 Z  M 34.683 72.878 L 49.317 72.878 C 49.869 72.878 50.317 72.43 50.317 71.878 C 50.317 71.326 49.869 70.878 49.317 70.878 L 34.683 70.878 C 34.131 70.878 33.683 71.326 33.683 71.878 C 33.683 72.43 34.131 72.878 34.683 72.878 Z " fill="rgb(0,0,0)"/></g><g><path d=" M 49.268 36.695 L 50.878 37.017 C 54.259 37.714 56.138 38.895 56.138 42.061 C 56.138 44.852 53.991 46.999 50.073 46.999 C 45.082 46.999 44.063 44.423 43.526 42.652 C 43.526 42.544 43.472 42.437 43.472 42.383 C 43.472 41.9 43.848 41.578 44.277 41.471 C 44.385 41.471 44.492 41.417 44.653 41.417 C 45.082 41.417 45.458 41.632 45.619 42.061 C 45.995 43.51 46.746 45.174 49.912 45.174 C 52.381 45.174 53.937 43.993 53.937 42.115 C 53.937 40.344 52.971 39.539 50.395 39.002 L 48.624 38.627 C 45.351 37.929 43.848 36.695 43.848 33.85 C 43.848 31.543 45.565 29.342 49.644 29.342 C 53.562 29.342 54.903 31.435 55.386 32.992 C 55.44 33.099 55.44 33.206 55.44 33.314 C 55.44 33.797 55.064 34.119 54.635 34.172 C 54.528 34.172 54.42 34.226 54.259 34.226 C 53.884 34.226 53.454 34.065 53.293 33.582 C 53.079 32.401 52.166 31.167 49.751 31.167 C 47.229 31.167 46.048 32.401 46.048 33.85 C 46.048 35.407 46.853 36.212 49.268 36.695 Z " fill="rgb(0,0,0)"/><path d=" M 48.893 28.269 C 48.893 27.84 49.215 27.518 49.644 27.518 C 50.073 27.518 50.395 27.84 50.395 28.269 L 50.395 48.072 C 50.395 48.501 50.073 48.823 49.644 48.823 C 49.215 48.823 48.893 48.501 48.893 48.072 L 48.893 28.269 Z " fill="rgb(0,0,0)"/></g></g></g></svg>