<?xml version="1.0" encoding="utf-8"?>
<!-- Generator: Adobe Illustrator 22.1.0, SVG Export Plug-In . SVG Version: 6.00 Build 0)  -->
<svg version="1.1" id="NTE_Welcome_Logo" xmlns="http://www.w3.org/2000/svg" xmlns:xlink="http://www.w3.org/1999/xlink" x="0px"
	 y="0px" viewBox="0 0 361.5 370.9" style="enable-background:new 0 0 361.5 370.9;" xml:space="preserve">
<style type="text/css">
	.st0{fill:#FFFFFF;}
	.st1{fill:#2E7CB8;}
	.st2{fill:#3792CC;}
	.st3{fill:#34B2E3;}
</style>
<title>stacked</title>
<g>
	<circle class="st0" cx="180.8" cy="120.5" r="120.5"/>
	<path class="st1" d="M238.1,110.4H123.4l-11.2,54.5c10.1-6.9,22-10.6,34.2-10.6c12.1,0,24,3.7,34,10.6c0,0,15.6-10.6,34.8-10.6
		c19.2,0,34.1,10.6,34.1,10.6L238.1,110.4z"/>
	<polygon class="st2" points="84.7,100 180.8,132.4 180.8,67.6 	"/>
	<polygon class="st3" points="276.8,100 180.8,67.6 180.8,90.3 171.3,90.3 171.3,106.6 180.8,106.6 180.8,132.4 	"/>
	<circle id="MB-ball" class="st2" cx="98.5" cy="122.1" r="3.5"/>
	<path class="st2" d="M97.4,123.6c-1.2-11.7,0.4-16.2,2-18c0.7-0.8,1.7-1.3,2.8-1.2c0.8,0,1.6,0.2,2.4,0.5c-0.3-0.1-0.6-0.1-0.9-0.1
		c-1.2,0-2.3,0.5-3.1,1.4c-2.2,2.5-2.9,8.2-2,17.3L97.4,123.6z"/>
	<polygon class="st2" points="100.9,122.1 96.2,122.1 89.3,174.5 92.4,169 95.6,174.5 98.8,169 102,174.5 105.2,169 108.4,174.5 	
		"/>
</g>
<g>
	<g>
		<path class="st0" d="M51.5,328.3h-7.7l-31.7-52.8v52.6H4.8v-65.8h7.3l32.3,54.7v-54.7h7L51.5,328.3z"/>
		<path class="st0" d="M101.2,306.2h-30c0,6,1.4,10.3,4.3,12.8c3,2.6,6.8,3.9,10.8,3.8c1.5,0.1,3.1-0.1,4.6-0.3
			c0.9-0.2,1.7-0.4,2.5-0.7c0.8-0.2,1.3-0.4,1.6-0.5c1.6-0.4,2.9-0.8,4-1.2l1.1,5.5c-6.3,2.2-11.2,3.3-14.7,3.3
			c-6.5,0-11.6-2-15.5-5.9c-3.9-3.9-5.8-9.8-5.7-17.7c0-7.9,1.8-14,5.5-18.4c3.4-4.2,8.5-6.7,13.9-6.6c5.6,0,10,1.8,13.1,5.5
			c3.1,3.6,4.7,8.6,4.7,14.8C101.4,302.2,101.3,304.1,101.2,306.2z M71.7,300.8h22.9c0-4.7-0.8-8.2-2.4-10.7
			c-1.6-2.5-4.5-3.7-8.5-3.8c-4,0-7,1.3-8.9,4C72.8,293.5,71.7,297.1,71.7,300.8L71.7,300.8z"/>
		<path class="st0" d="M116.6,281.1l9.9,16.6l9.9-16.6h7.8l-13.8,23.1l14.4,24H137l-10.4-18.6l-10.4,18.6h-7.8l14.4-24l-13.8-23.1
			H116.6z"/>
		<path class="st0" d="M156.7,318v-31.2h-6.4v-5.6h6.5v-13.4h7.1v13.5h11.5v5.6h-11.6v29.9c0,4.2,2.1,6.3,6.4,6.3
			c1.5-0.1,3.1-0.2,4.6-0.6l1,5.1c-2.6,0.8-5.2,1.2-7.9,1.2c-2.7,0-5.4-0.9-7.6-2.5C157.9,324.6,156.7,321.8,156.7,318z"/>
		<path class="st0" d="M220.4,322.5v5.6h-28.7v-5.6l9.4-1.9v-50.8h-12.2l-2.4,9.4h-6.1v-16.9h51.2v16.9h-6.1l-2.4-9.4H211v50.8
			L220.4,322.5z"/>
		<path class="st0" d="M253.8,278.4v42.3l7,2.4v5.2h-24.4V323l8-2.4v-34.8l-8-1.9v-5.2L253.8,278.4z M248.7,256.3
			c4.1,0,6.1,2.3,6.1,7c0.1,1.8-0.7,3.4-2.1,4.5c-1.2,1-2.8,1.6-4.4,1.6c-1.6,0.1-3.1-0.6-4.1-1.7c-1.1-1.3-1.7-3.1-1.6-4.8
			c-0.1-1.8,0.5-3.5,1.7-4.8C245.4,256.8,247,256.2,248.7,256.3L248.7,256.3z"/>
		<path class="st0" d="M310.2,304.5l-32.4,0.2c0,5.1,1.2,9.2,3.7,12.3c2.4,3,6.1,4.7,9.9,4.6c1.4,0,2.8-0.1,4.1-0.4
			c1.3-0.2,2.6-0.5,3.9-0.9c1.2-0.4,2.3-0.8,3.4-1.3c0.9-0.4,1.7-0.9,2.5-1.4l1.9-1.2l3.3,4.9c-1.8,1.5-3.8,2.8-5.9,4
			c-2,1.1-4.1,1.9-6.3,2.6c-2.5,0.8-5.2,1.2-7.9,1.2c-7.4,0-13-2.2-16.8-6.7c-3.8-4.5-5.7-10.6-5.7-18.4c0-3.6,0.5-7.3,1.7-10.7
			c1-3.1,2.6-5.9,4.8-8.4c4.2-4.8,10.2-7.6,16.6-7.5c13.2,0,19.7,7.4,19.8,22.1L310.2,304.5z M278.2,297.6h22.6
			c0.1-3.3-0.7-6.5-2.4-9.3c-1.6-2.4-4.3-3.6-7.9-3.6c-3.3-0.1-6.4,1.2-8.6,3.6C279.7,291,278.4,294.2,278.2,297.6z"/>
		<path class="st0" d="M333.3,278.4l0.9,6.9c4.7-5.2,9.4-7.8,14.2-7.8c2.5,0,5,0.4,7.4,1.1l1,0.3l-0.5,13.6h-6.1l-1.4-7
			c-5.4,0-9.9,2.4-13.6,7.3v27.9l9.4,2.4v5.2h-26.8V323l8-2.4v-34.8l-8-1.9v-5.2L333.3,278.4z"/>
	</g>
	<g id="EDUCATION">
		<path class="st0" d="M81.9,369.2c-0.1,0.9-1,1.5-1.9,1.4h-8.3c-0.9,0-1.7-0.7-1.7-1.6c0-0.1,0-0.2,0-0.3v-17.1l0.2-0.2h11.2
			c0.1,0.4,0.1,0.8,0.1,1.2c0,0.5-0.1,0.9-0.2,1.3h-8.4v5.7h7c0.2,0.8,0.2,1.6,0,2.5h-7v6c0.6-0.1,1.2-0.1,1.8-0.1H82
			C82,368.5,81.9,368.8,81.9,369.2z"/>
		<path class="st0" d="M107.3,369.3c-1.4,1-3.1,1.5-4.8,1.4c-2.3,0-3.7-0.1-6.1-0.1l-0.2-0.2v-18.7l0.2-0.2c2.4-0.1,3.9-0.1,6.1-0.1
			c1.7,0,3.4,0.5,4.8,1.4c2.5,2.1,3,5,3,8.2S109.8,367.2,107.3,369.3z M102.4,353.8h-3.3v14.5h3.3c4.1,0,4.7-4,4.7-7.2
			S106.6,353.8,102.4,353.8z"/>
		<path class="st0" d="M138.4,363.9c0,4.6-2.8,7.1-7.1,7.1s-7-2.4-7-7.1v-12.3l0.2-0.2h1.1c1.2,0,1.7,0.6,1.7,1.9v10.6
			c0,3.1,1.4,4.7,4.1,4.7s4.1-1.6,4.1-4.7v-12.4c0.5-0.1,1-0.1,1.4-0.1c0.5,0,1,0,1.5,0.1L138.4,363.9z"/>
		<path class="st0" d="M159.9,353.5c-2.9,0-4.5,2.6-4.5,7.6c0,4.6,1.7,7.2,4.6,7.2c1.9-0.1,3.6-0.8,5-2.1c0.7,0.5,1.2,1.1,1.5,1.9
			c-1.9,1.8-4.4,2.8-7,2.8c-5.3,0-7.2-4.9-7.2-9.8c0-7,3.5-10,7.6-10s6.7,2.6,6.7,5.4c0.1,0.8-0.5,1.6-1.3,1.7c-0.1,0-0.3,0-0.4,0
			c-0.4,0-0.8-0.1-1.2-0.2C163.9,356,162.9,353.5,159.9,353.5z"/>
		<path class="st0" d="M183,365.9l-1.5,4.7c-0.4,0.1-0.9,0.1-1.3,0.1c-0.5,0-1-0.1-1.4-0.2l-0.1-0.1l6.3-18.9
			c0.6-0.1,1.1-0.1,1.7-0.1c0.6,0,1.1,0,1.7,0.1l6.2,18.9c-0.5,0.3-1.1,0.4-1.7,0.4c-0.9,0-1.4-0.3-1.8-1.6l-1-3.3L183,365.9
			L183,365.9z M183.7,363.5h5.6l-1.3-4c-0.5-1.6-1.1-3.6-1.5-5h-0.1c-0.3,1.3-0.8,3-1.1,4L183.7,363.5z"/>
		<path class="st0" d="M209.2,356v-2.1h-4.9c-0.2-0.8-0.2-1.7,0-2.5h12.8c0.1,0.4,0.2,0.8,0.2,1.2c0,1-0.5,1.3-1.7,1.3h-3.4v16.6
			c-0.5,0.1-1,0.1-1.5,0.1c-0.5,0-1,0-1.5-0.1L209.2,356z"/>
		<path class="st0" d="M230.5,351.5c0.5-0.1,1-0.1,1.5-0.1c0.5,0,1,0,1.5,0.1v19.1c-0.5,0.1-1,0.1-1.5,0.1c-0.5,0-1,0-1.5-0.1V351.5
			z"/>
		<path class="st0" d="M250.8,352.8c2.8-2.2,6.8-2.2,9.6,0c2.2,1.9,3,5.2,3,8.2s-0.8,6.3-3,8.2c-2.8,2.2-6.8,2.2-9.6,0
			c-2.2-1.9-3-5.2-3-8.2S248.6,354.7,250.8,352.8z M255.6,368.5c3.9,0,4.7-4.2,4.7-7.5s-0.8-7.5-4.7-7.5c-3.9,0-4.7,4.1-4.7,7.5
			S251.7,368.5,255.6,368.5L255.6,368.5z"/>
		<path class="st0" d="M291.5,351.5v19c-0.6,0.1-1.2,0.1-1.8,0.1c-0.6,0-1.2,0-1.8-0.1l-6-11.7c-0.7-1.4-1.3-2.7-1.8-3.9h-0.1
			c0.1,1.9,0.2,4.7,0.2,6.8v8.7c-0.5,0.1-0.9,0.1-1.4,0.1c-0.5,0-0.9,0-1.4-0.1v-19c0.6-0.1,1.2-0.1,1.8-0.1c0.6,0,1.2,0,1.8,0.1
			l5.9,11.7c0.7,1.5,1.3,2.9,1.8,4h0.1c-0.1-2.2-0.2-5.1-0.2-7v-7c0-1.3,0.4-1.8,1.6-1.8h1L291.5,351.5z"/>
	</g>
</g>
</svg>
