<?xml version="1.0" standalone="no"?><!-- Generator: Gravit.io --><svg xmlns="http://www.w3.org/2000/svg" xmlns:xlink="http://www.w3.org/1999/xlink" style="isolation:isolate" viewBox="0 0 100 100" width="100" height="100"><defs><clipPath id="_clipPath_xR4w2p3IOSVVlN4475u01euUtDXL7rAQ"><rect width="100" height="100"/></clipPath></defs><g clip-path="url(#_clipPath_xR4w2p3IOSVVlN4475u01euUtDXL7rAQ)"><clipPath id="_clipPath_Qy8dmq5UULsAB24sHcXTDOKaUQwWdn4r"><rect x="0" y="0" width="100" height="100" transform="matrix(1,0,0,1,0,0)" fill="rgb(255,255,255)"/></clipPath><g clip-path="url(#_clipPath_Qy8dmq5UULsAB24sHcXTDOKaUQwWdn4r)"><g><linearGradient id="_lgradient_0" x1="0.4489974286546671" y1="-0.024295347353408547" x2="0.44899742865466713" y2="1.0531695294809404" gradientTransform="matrix(80.988,0,0,77.23,10,10.795)" gradientUnits="userSpaceOnUse"><stop offset="1.7391304347826086%" stop-opacity="1" style="stop-color:rgb(0,0,0)"/><stop offset="2.1739130434782608%" stop-opacity="0.5761973875181422" style="stop-color:rgb(0,255,251)"/><stop offset="100%" stop-opacity="1" style="stop-color:rgb(28,109,195)"/></linearGradient><path d=" M 73.21 42.593 L 71.235 42.593 C 70.689 42.593 70.247 42.151 70.247 41.605 L 70.247 36.67 L 67.943 36.67 L 67.943 41.605 C 67.943 42.151 67.501 42.593 66.955 42.593 L 64.98 42.593 L 64.98 70.247 L 64.98 70.247 L 66.955 70.247 C 67.501 70.247 67.943 70.689 67.943 71.235 L 67.943 76.173 L 70.247 76.173 L 70.247 76.173 L 70.247 71.235 C 70.247 70.689 70.69 70.247 71.235 70.247 L 71.235 70.247 L 73.21 70.247 L 73.21 42.593 L 73.21 42.593 L 73.21 42.593 L 73.21 42.593 L 73.21 42.593 Z  M 47.86 76.173 L 36.008 76.173 L 36.008 72.223 L 47.86 72.223 L 47.86 76.173 L 47.86 76.173 L 47.86 76.173 L 47.86 76.173 L 47.86 76.173 L 47.86 76.173 L 47.86 76.173 L 47.86 76.173 L 47.86 76.173 L 47.86 76.173 Z  M 36.008 36.67 L 47.86 36.67 L 47.86 36.67 L 47.86 40.617 L 36.008 40.617 L 36.008 36.67 L 36.008 36.67 L 36.008 36.67 L 36.008 36.67 L 36.008 36.67 L 36.008 36.67 L 36.008 36.67 L 36.008 36.67 L 36.008 36.67 L 36.008 36.67 Z  M 86.05 86.049 L 86.05 78.149 L 15.926 78.149 L 15.926 86.049 L 86.05 86.049 L 86.05 86.049 L 86.05 86.049 L 86.05 86.049 L 86.05 86.049 L 86.05 86.049 L 86.05 86.049 L 86.05 86.049 L 86.05 86.049 L 86.05 86.049 L 86.05 86.049 L 86.05 86.049 L 86.05 86.049 Z  M 29.754 36.67 L 17.902 36.67 L 17.902 40.617 L 29.754 40.617 L 29.754 36.67 L 29.754 36.67 L 29.754 36.67 L 29.754 36.67 L 29.754 36.67 L 29.754 36.67 L 29.754 36.67 L 29.754 36.67 L 29.754 36.67 L 29.754 36.67 L 29.754 36.67 L 29.754 36.67 L 29.754 36.67 Z  M 84.075 36.67 L 72.223 36.67 L 72.223 40.617 L 84.075 40.617 L 84.075 36.67 L 84.075 36.67 L 84.075 36.67 L 84.075 36.67 L 84.075 36.67 L 84.075 36.67 L 84.075 36.67 Z  M 50.988 29.753 C 53.988 29.753 56.42 27.321 56.42 24.321 C 56.42 21.321 53.988 18.889 50.988 18.889 C 47.988 18.889 45.556 21.321 45.556 24.321 C 45.556 27.321 47.988 29.753 50.988 29.753 L 50.988 29.753 L 50.988 29.753 L 50.988 29.753 L 50.988 29.753 Z  M 44.897 42.593 L 38.97 42.593 L 38.97 70.247 L 44.897 70.247 L 44.897 42.593 L 44.897 42.593 L 44.897 42.593 L 44.897 42.593 L 44.897 42.593 L 44.897 42.593 L 44.897 42.593 L 44.897 42.593 L 44.897 42.593 Z  M 55.103 70.247 L 53.128 70.247 L 53.128 70.247 C 52.583 70.247 52.14 70.689 52.14 71.235 L 52.14 76.173 L 49.835 76.173 L 49.835 76.173 L 49.835 71.235 C 49.835 70.689 49.393 70.247 48.847 70.247 L 46.872 70.247 L 46.872 42.593 L 46.872 42.593 L 48.847 42.593 C 49.393 42.593 49.835 42.151 49.835 41.605 L 49.835 36.67 L 52.14 36.67 L 52.14 36.67 L 52.14 41.605 C 52.14 42.151 52.582 42.593 53.128 42.593 L 55.103 42.593 L 55.103 70.247 L 55.103 70.247 L 55.103 70.247 L 55.103 70.247 L 55.103 70.247 L 55.103 70.247 L 55.103 70.247 Z  M 75.185 42.593 L 81.112 42.593 L 81.112 70.247 L 75.185 70.247 L 75.185 42.593 L 75.185 42.593 L 75.185 42.593 L 75.185 42.593 L 75.185 42.593 Z  M 29.754 76.173 L 17.902 76.173 L 17.902 72.223 L 29.754 72.223 L 29.754 76.173 L 29.754 76.173 L 29.754 76.173 L 29.754 76.173 L 29.754 76.173 L 29.754 76.173 L 29.754 76.173 L 29.754 76.173 L 29.754 76.173 L 29.754 76.173 L 29.754 76.173 L 29.754 76.173 Z  M 72.223 76.173 L 84.075 76.173 L 84.075 72.223 L 72.223 72.223 L 72.223 76.173 L 72.223 76.173 L 72.223 76.173 L 72.223 76.173 L 72.223 76.173 L 72.223 76.173 Z  M 65.968 76.173 L 54.116 76.173 L 54.116 72.223 L 65.968 72.223 L 65.968 76.173 L 65.968 76.173 L 65.968 76.173 L 65.968 76.173 L 65.968 76.173 L 65.968 76.173 L 65.968 76.173 L 65.968 76.173 Z  M 57.078 70.247 L 63.005 70.247 L 63.005 42.593 L 57.078 42.593 L 57.078 70.247 L 57.078 70.247 L 57.078 70.247 L 57.078 70.247 L 57.078 70.247 L 57.078 70.247 L 57.078 70.247 Z  M 36.995 42.593 L 35.02 42.593 C 34.474 42.593 34.032 42.151 34.032 41.605 L 34.032 36.67 L 31.729 36.67 L 31.729 36.67 L 31.729 41.605 C 31.729 42.151 31.287 42.593 30.741 42.593 L 28.766 42.593 L 28.766 70.247 L 30.741 70.247 C 31.287 70.247 31.729 70.689 31.729 71.235 L 31.729 76.173 L 31.729 76.173 L 34.032 76.173 L 34.032 71.235 C 34.032 70.689 34.475 70.247 35.02 70.247 L 35.02 70.247 L 36.995 70.247 L 36.995 42.593 L 36.995 42.593 L 36.995 42.593 L 36.995 42.593 L 36.995 42.593 L 36.995 42.593 L 36.995 42.593 L 36.995 42.593 L 36.995 42.593 Z  M 54.116 36.67 L 65.968 36.67 L 65.968 36.67 L 65.968 40.617 L 54.116 40.617 L 54.116 36.67 L 54.116 36.67 L 54.116 36.67 L 54.116 36.67 L 54.116 36.67 L 54.116 36.67 L 54.116 36.67 L 54.116 36.67 Z  M 20.864 70.247 L 26.791 70.247 L 26.791 42.593 L 20.864 42.593 L 20.864 70.247 L 20.864 70.247 L 20.864 70.247 L 20.864 70.247 L 20.864 70.247 L 20.864 70.247 L 20.864 70.247 L 20.864 70.247 L 20.864 70.247 L 20.864 70.247 L 20.864 70.247 Z  M 36.667 24.321 C 36.667 23.504 37.331 22.84 38.148 22.84 C 38.965 22.84 39.629 23.504 39.629 24.321 C 39.629 25.138 38.965 25.802 38.148 25.802 C 37.331 25.802 36.667 25.138 36.667 24.321 L 36.667 24.321 L 36.667 24.321 Z  M 50.988 31.728 C 46.897 31.728 43.581 28.412 43.581 24.321 C 43.581 20.23 46.897 16.914 50.988 16.914 C 55.079 16.914 58.395 20.23 58.395 24.321 C 58.395 28.412 55.079 31.728 50.988 31.728 L 50.988 31.728 L 50.988 31.728 L 50.988 31.728 L 50.988 31.728 Z  M 85.151 34.695 L 88.025 34.695 L 88.025 29.627 L 73.571 23.086 L 50.988 12.867 L 13.95 29.627 L 13.95 29.627 L 13.95 29.627 L 13.95 34.695 L 16.825 34.695 L 16.825 34.695 L 16.825 34.695 C 16.854 34.692 16.884 34.691 16.914 34.691 L 16.914 34.691 L 30.741 34.691 C 30.771 34.691 30.801 34.692 30.83 34.695 L 34.931 34.695 C 34.96 34.692 34.99 34.691 35.02 34.691 L 35.02 34.691 L 48.847 34.691 C 48.877 34.691 48.907 34.692 48.936 34.695 L 48.936 34.695 L 48.936 34.695 L 53.039 34.695 L 53.039 34.695 L 53.039 34.695 C 53.068 34.692 53.098 34.691 53.128 34.691 L 53.128 34.691 L 66.955 34.691 C 66.985 34.691 67.015 34.692 67.044 34.695 L 71.146 34.695 C 71.175 34.692 71.205 34.691 71.235 34.691 L 71.235 34.691 L 85.062 34.691 C 85.092 34.691 85.122 34.692 85.151 34.695 L 85.151 34.695 L 85.151 34.695 L 85.151 34.695 L 85.151 34.695 Z  M 83.087 42.593 L 85.062 42.593 C 85.608 42.593 86.05 42.151 86.05 41.605 L 86.05 36.67 L 89.012 36.67 C 89.558 36.67 90 36.228 90 35.682 L 90 28.99 C 90 28.602 89.773 28.25 89.42 28.09 L 51.396 10.883 L 51.396 10.883 L 51.396 10.883 L 51.395 10.883 C 51.136 10.766 50.839 10.766 50.58 10.883 L 12.555 28.09 C 12.202 28.25 11.975 28.602 11.975 28.99 L 11.975 35.682 C 11.975 36.228 12.417 36.67 12.963 36.67 L 15.926 36.67 L 15.926 41.605 C 15.926 42.151 16.368 42.593 16.914 42.593 L 18.889 42.593 L 18.889 70.247 L 18.889 70.247 L 16.914 70.247 L 16.914 70.247 C 16.369 70.247 15.926 70.689 15.926 71.235 L 15.926 76.173 L 14.938 76.173 L 14.938 76.173 C 14.393 76.173 13.951 76.615 13.951 77.16 L 13.951 86.049 L 10.988 86.049 C 10.635 86.049 10.309 86.237 10.132 86.543 C 9.956 86.849 9.956 87.225 10.132 87.531 C 10.309 87.837 10.635 88.025 10.988 88.025 L 10.988 88.025 L 14.938 88.025 L 14.938 88.025 L 87.037 88.025 L 87.037 88.025 L 90 88.025 C 90.546 88.025 90.988 87.583 90.988 87.037 C 90.988 86.491 90.546 86.049 90 86.049 L 88.025 86.049 L 88.025 86.049 L 88.025 77.16 C 88.025 76.615 87.583 76.173 87.037 76.173 L 86.05 76.173 L 86.05 71.235 C 86.05 70.689 85.608 70.247 85.062 70.247 L 83.087 70.247 L 83.087 42.593 L 83.087 42.593 L 83.087 42.593 L 83.087 42.593 L 83.087 42.593 Z  M 62.346 24.321 C 62.346 23.504 63.01 22.84 63.827 22.84 C 64.644 22.84 65.308 23.504 65.308 24.321 C 65.308 25.138 64.644 25.802 63.827 25.802 C 63.01 25.802 62.346 25.138 62.346 24.321 Z " fill-rule="evenodd" fill="url(#_lgradient_0)"/></g></g></g></svg>