<?xml version="1.0" standalone="no"?><!-- Generator: Gravit.io --><svg xmlns="http://www.w3.org/2000/svg" xmlns:xlink="http://www.w3.org/1999/xlink" style="isolation:isolate" viewBox="0 0 100 100" width="100" height="100"><defs><clipPath id="_clipPath_BYwQj4hdmjdwZIkMQKrFSvnic3W45z1T"><rect width="100" height="100"/></clipPath></defs><g clip-path="url(#_clipPath_BYwQj4hdmjdwZIkMQKrFSvnic3W45z1T)"><clipPath id="_clipPath_jV4HPvCPhOHDfudlnxsaudrvNk83QU4G"><rect x="0" y="0" width="100" height="100" transform="matrix(1,0,0,1,0,0)" fill="rgb(255,255,255)"/></clipPath><g clip-path="url(#_clipPath_jV4HPvCPhOHDfudlnxsaudrvNk83QU4G)"><g><g><g><g opacity="0.5"><path d=" M 25.95 19.76 L 67.8 19.76 C 68.904 19.76 69.8 20.656 69.8 21.76 L 69.8 84.1 C 69.8 85.204 68.904 86.1 67.8 86.1 L 25.95 86.1 C 24.846 86.1 23.95 85.204 23.95 84.1 L 23.95 21.76 C 23.95 20.656 24.846 19.76 25.95 19.76 Z " fill="rgb(54,146,204)"/></g><path d=" M 62 13.93 L 75.66 13.93 C 76.212 13.93 76.66 14.378 76.66 14.93 L 76.66 88 C 76.66 88.552 76.212 89 75.66 89 L 24 89 C 23.448 89 23 88.552 23 88 L 23 14.88 C 23 14.328 23.448 13.88 24 13.88 L 37.61 13.88 L 37.61 11.88 L 24 11.88 C 22.343 11.88 21 13.223 21 14.88 L 21 88 C 21 89.657 22.343 91 24 91 L 75.66 91 C 77.317 91 78.66 89.657 78.66 88 L 78.66 14.88 C 78.66 13.223 77.317 11.88 75.66 11.88 L 62 11.88 L 62 13.93 L 62 13.93 Z " fill="rgb(0,0,0)"/><path d=" M 62 18.8 L 70.78 18.8 C 71.332 18.8 71.78 19.248 71.78 19.8 L 71.78 82.2 C 71.78 82.752 71.332 83.2 70.78 83.2 L 28.78 83.2 C 28.228 83.2 27.78 82.752 27.78 82.2 Q 27.78 67.325 27.78 57.804 C 22.583 51.102 22.593 43.097 27.78 33.76 L 27.78 19.76 C 27.78 19.208 28.228 18.76 28.78 18.76 L 37.56 18.76 L 37.56 16.76 L 28.83 16.76 C 27.173 16.76 25.83 18.103 25.83 19.76 L 25.83 36.436 C 23.095 43.842 23.105 49.925 25.83 54.655 Q 25.83 65.405 25.83 82.2 C 25.83 83.857 27.173 85.2 28.83 85.2 L 70.83 85.2 C 72.487 85.2 73.83 83.857 73.83 82.2 L 73.83 19.76 C 73.83 18.103 72.487 16.76 70.83 16.76 L 62 16.76 L 62 18.8 Z " fill="rgb(0,0,0)"/><path d=" M 39.61 11 C 39.058 11 38.61 11.448 38.61 12 L 38.61 17.76 C 38.61 18.312 39.058 18.76 39.61 18.76 L 60 18.76 C 60.552 18.76 61 18.312 61 17.76 L 61 12 C 61 11.448 60.552 11 60 11 L 39.61 11 L 39.61 11 Z  M 39.61 9 L 60 9 C 61.657 9 63 10.343 63 12 L 63 17.76 C 63 19.417 61.657 20.76 60 20.76 L 39.61 20.76 C 37.953 20.76 36.61 19.417 36.61 17.76 L 36.61 12 C 36.61 10.343 37.953 9 39.61 9 Z " fill="rgb(0,0,0)"/><path d=" M 42.49 15.88 L 57.12 15.88 C 57.672 15.88 58.12 15.432 58.12 14.88 C 58.12 14.328 57.672 13.88 57.12 13.88 L 42.49 13.88 C 41.938 13.88 41.49 14.328 41.49 14.88 C 41.49 15.432 41.938 15.88 42.49 15.88 Z " fill="rgb(0,0,0)"/></g><g><path d=" M 32.199 30.703 L 67.411 30.703 C 68.054 30.703 68.575 30.182 68.575 29.539 C 68.575 28.896 68.054 28.375 67.411 28.375 L 32.199 28.375 C 31.556 28.375 31.035 28.896 31.035 29.539 C 31.035 30.182 31.556 30.703 32.199 30.703 Z " fill="rgb(0,0,0)"/><path d=" M 32.199 39.794 L 67.411 39.794 C 68.054 39.794 68.575 39.273 68.575 38.63 C 68.575 37.988 68.054 37.466 67.411 37.466 L 32.199 37.466 C 31.556 37.466 31.035 37.988 31.035 38.63 C 31.035 39.273 31.556 39.794 32.199 39.794 Z " fill="rgb(0,0,0)"/><path d=" M 32.199 48.874 L 67.411 48.874 C 68.054 48.874 68.575 48.352 68.575 47.71 C 68.575 47.067 68.054 46.546 67.411 46.546 L 32.199 46.546 C 31.556 46.546 31.035 47.067 31.035 47.71 C 31.035 48.352 31.556 48.874 32.199 48.874 Z " fill="rgb(0,0,0)"/><path d=" M 32.199 57.965 L 49.24 57.965 C 49.883 57.965 50.404 57.444 50.404 56.801 C 50.404 56.158 49.883 55.637 49.24 55.637 L 32.199 55.637 C 31.556 55.637 31.035 56.158 31.035 56.801 C 31.035 57.444 31.556 57.965 32.199 57.965 Z " fill="rgb(0,0,0)"/></g></g><g><path d=" M 68.888 63.112 L 95.56 89.783 C 97.122 91.345 97.122 93.878 95.56 95.44 C 93.998 97.002 91.465 97.002 89.903 95.44 L 63.231 68.77 L 68.888 63.113 L 68.888 63.112 L 68.888 63.112 Z " fill-rule="evenodd" fill="rgb(255,255,255)"/><path d=" M 19 46 C 19 30.546 31.546 18 47 18 C 62.454 18 75 30.546 75 46 C 75 61.454 62.454 74 47 74 C 31.546 74 19 61.454 19 46 Z  M 46.895 67.526 C 58.842 67.526 68.526 57.842 68.526 45.895 C 68.526 33.948 58.842 24.263 46.895 24.263 C 34.948 24.263 25.263 33.948 25.263 45.895 C 25.263 57.842 34.948 67.526 46.895 67.526 Z " fill-rule="evenodd" fill="rgb(255,255,255)"/><circle vector-effect="non-scaling-stroke" cx="43.736999999999995" cy="46.947" r="22.632000000000005" fill="rgb(54,147,205)" fill-opacity="0.4980392156862745"/><path d=" M 67.434 63.847 L 94.47 90.883 C 95.443 91.856 95.404 93.505 94.35 94.559 C 93.298 95.611 91.644 95.649 90.674 94.679 L 63.638 67.643 L 62.224 69.057 L 89.26 96.093 C 91.025 97.858 93.945 97.793 95.764 95.973 C 97.584 94.153 97.654 91.239 95.884 89.469 L 68.848 62.433 L 67.434 63.847 L 67.434 63.847 Z " fill="rgb(0,0,0)"/><path d=" M 79.312 85.149 L 85.192 79.269 L 83.778 77.855 L 77.898 83.735 L 79.312 85.149 L 79.312 85.149 Z " fill="rgb(0,0,0)"/><path d=" M 46.895 69.526 C 33.843 69.526 23.263 58.946 23.263 45.895 C 23.263 32.843 33.843 22.263 46.895 22.263 C 59.946 22.263 70.526 32.843 70.526 45.895 C 70.526 58.946 59.946 69.526 46.895 69.526 Z  M 46.895 67.526 C 58.842 67.526 68.526 57.842 68.526 45.895 C 68.526 33.948 58.842 24.263 46.895 24.263 C 34.948 24.263 25.263 33.948 25.263 45.895 C 25.263 57.842 34.948 67.526 46.895 67.526 Z " fill="rgb(0,0,0)"/><path d=" M 46.895 74.79 C 30.937 74.79 18 61.852 18 45.894 C 18 29.936 30.937 17 46.895 17 C 62.853 17 75.789 29.937 75.789 45.895 C 75.789 61.853 62.853 74.789 46.895 74.789 L 46.895 74.79 L 46.895 74.79 Z  M 46.895 72.79 C 61.748 72.79 73.789 60.748 73.789 45.895 C 73.79 31.04 61.75 19 46.895 19 C 32.04 19 20 31.041 20 45.895 C 20 60.748 32.041 72.789 46.895 72.789 L 46.895 72.79 L 46.895 72.79 Z " fill="rgb(0,0,0)"/></g></g></g></g></svg>