<?xml version="1.0" standalone="no"?><!-- Generator: Gravit.io --><svg xmlns="http://www.w3.org/2000/svg" xmlns:xlink="http://www.w3.org/1999/xlink" style="isolation:isolate" viewBox="0 0 100 100" width="100" height="100"><defs><clipPath id="_clipPath_cOnGYI2v792oota0H4NC9a1U4UBszGcm"><rect width="100" height="100"/></clipPath></defs><g clip-path="url(#_clipPath_cOnGYI2v792oota0H4NC9a1U4UBszGcm)"><g><g><g><g><g><circle vector-effect="non-scaling-stroke" cx="45.41983894582721" cy="56.40867496339678" r="39.05563689604686" fill="rgb(54,146,204)" fill-opacity="0.5"/><path d=" M 60.403 32.691 L 77.73 23.288 L 70.628 42.059 M 70.628 57.906 L 77.73 74.232 L 60.403 67.131 M 39.633 67.131 L 22.306 74.232 L 29.407 57.906 M 29.407 42.059 L 22.306 23.288 L 39.633 32.691" fill="none" vector-effect="non-scaling-stroke" stroke-width="2" stroke="rgb(0,0,0)" stroke-linejoin="bevel" stroke-linecap="butt" stroke-miterlimit="4"/><path d=" M 1.5 50.018 L 36.153 39.615 L 50 1.518 L 63.883 39.615 L 98.5 50.018 L 63.883 60.385 L 50 98.482 L 36.153 60.385 L 1.5 50.018 L 1.5 50.018 Z " fill="none" vector-effect="non-scaling-stroke" stroke-width="2" stroke="rgb(0,0,0)" stroke-linejoin="round" stroke-linecap="round" stroke-miterlimit="4"/><path d=" M 53.835 87.902 C 71.847 86.073 86.09 71.829 87.919 53.817 M 87.919 46.716 C 86.413 28.372 72.009 13.729 53.693 11.921 M 46.236 11.921 C 27.907 13.713 13.483 28.36 11.974 46.716 M 11.974 53.817 C 13.858 71.898 28.244 86.134 46.343 87.831" fill="none" vector-effect="non-scaling-stroke" stroke-width="2" stroke="rgb(0,0,0)" stroke-linejoin="miter" stroke-linecap="butt" stroke-miterlimit="4"/></g></g></g></g></g></g></svg>