<?xml version="1.0" standalone="no"?><!-- Generator: Gravit.io --><svg xmlns="http://www.w3.org/2000/svg" xmlns:xlink="http://www.w3.org/1999/xlink" style="isolation:isolate" viewBox="0 0 100 100" width="100" height="100"><defs><clipPath id="_clipPath_vSILpDm4mmOFNWfDnwh0Fh9vCq7umUMT"><rect width="100" height="100"/></clipPath></defs><g clip-path="url(#_clipPath_vSILpDm4mmOFNWfDnwh0Fh9vCq7umUMT)"><g><g><path d=" M 51.679 97.939 C 32.238 98.191 14.569 86.676 6.95 68.788 C -0.67 50.9 3.269 30.181 16.922 16.338 C 30.574 2.494 51.236 -1.733 69.228 5.636 C 87.221 13.005 98.98 30.512 98.999 49.955 C 99.087 62.593 94.151 74.749 85.277 83.747 C 76.403 92.746 64.317 97.851 51.679 97.939 L 51.679 97.939 L 51.679 97.939 Z  M 51.598 85.695 L 51.598 85.695 Z  M 51.598 91.685 C 34.683 91.904 19.31 81.886 12.681 66.322 C 6.052 50.759 9.479 32.733 21.358 20.688 C 33.236 8.643 51.213 4.965 66.867 11.377 C 82.521 17.789 92.753 33.02 92.769 49.937 C 92.846 60.933 88.551 71.509 80.83 79.338 C 73.109 87.167 62.594 91.609 51.598 91.685 L 51.598 91.685 L 51.598 91.685 Z " fill-rule="evenodd" fill="rgb(0,0,0)"/><ellipse vector-effect="non-scaling-stroke" cx="44.9190717979109" cy="53.39740970920205" rx="43.9190717979109" ry="44.541154967852975" fill="rgb(54,146,204)" fill-opacity="0.5"/><path d=" M 55.038 84.211 L 55.038 15.741 C 55.182 14.444 54.571 13.179 53.466 12.485 C 52.361 11.792 50.956 11.792 49.851 12.485 C 48.745 13.179 48.134 14.444 48.278 15.741 L 48.278 84.211 C 48.134 85.508 48.745 86.773 49.851 87.467 C 50.956 88.16 52.361 88.16 53.466 87.467 C 54.571 86.773 55.182 85.508 55.038 84.211 Z " fill="rgb(0,0,0)"/><path d=" M 53.628 53.107 C 62.835 54.973 65.489 57.711 65.489 62.77 C 65.489 67.83 60.222 71.604 52.094 71.604 C 43.965 71.604 39.942 68.618 38.118 62.646 C 37.491 60.818 35.685 59.666 33.763 59.867 C 33.294 59.825 32.822 59.825 32.353 59.867 C 30.35 60.106 28.81 61.751 28.703 63.765 C 28.662 64.207 28.662 64.651 28.703 65.093 C 31.358 74.216 38.947 79.483 51.928 79.483 C 66.485 79.732 74.779 72.433 74.779 62.563 C 74.779 51.78 69.512 47.882 56.324 45.103 L 49.896 43.776 C 41.394 41.91 39.445 39.877 39.445 35.15 C 39.445 30.422 43.302 27.436 51.513 27.436 C 56.524 26.772 61.327 29.664 63.084 34.403 C 63.692 36.151 65.384 37.284 67.231 37.182 C 67.769 37.232 68.311 37.232 68.849 37.182 C 70.79 36.912 72.277 35.321 72.415 33.366 C 72.465 32.953 72.465 32.535 72.415 32.122 C 69.885 24.616 62.669 19.681 51.43 19.681 C 38.366 19.681 30.445 26.067 30.445 35.398 C 30.445 44.73 35.629 49.582 48.071 51.987 L 53.628 53.107 Z " fill="rgb(0,0,0)"/></g></g></g></svg>