<?xml version="1.0" standalone="no"?><!-- Generator: Gravit.io --><svg xmlns="http://www.w3.org/2000/svg" xmlns:xlink="http://www.w3.org/1999/xlink" style="isolation:isolate" viewBox="0 0 100 100" width="100" height="100"><defs><clipPath id="_clipPath_xmnlsDmfEtsCAfXXQNKisFq974Z5KbXn"><rect width="100" height="100"/></clipPath></defs><g clip-path="url(#_clipPath_xmnlsDmfEtsCAfXXQNKisFq974Z5KbXn)"><g><g><g><g><path d=" M 19.144 47.755 L 16.133 78.587 C 19.836 74.252 25.136 71.601 30.826 71.241 Q 38.173 71.241 47.356 78.587 Q 56.389 71.241 63.886 71.241 C 69.576 71.601 74.877 74.252 78.579 78.587 L 71.955 47.755 L 45.58 56.577 L 19.144 47.755 Z " fill="rgb(54,146,204)" fill-opacity="0.5"/></g><path d=" M 1.5 41.884 Q 1.835 41.772 2.359 41.598 L 45.58 27.191 L 89.629 41.884 L 45.58 56.577 L 2.401 42.185 L 1.5 41.884 Q 1.165 41.996 1.5 41.884 Z " fill="rgb(54,146,204)" fill-opacity="0.5"/></g><g><path d=" M 8.335 41.794 L 52.384 27.101 C 53.964 26.577 54.82 24.871 54.296 23.292 C 53.773 21.712 52.067 20.856 50.488 21.38 L 6.438 36.073 C 4.858 36.597 4.002 38.302 4.526 39.882 C 5.05 41.462 6.755 42.318 8.335 41.794 Z  M 52.384 50.827 L 8.335 36.073 C 6.755 35.549 5.05 36.405 4.526 37.985 C 4.002 39.565 4.858 41.27 6.438 41.794 L 50.488 56.487 C 52.067 57.011 53.773 56.155 54.296 54.575 C 54.82 52.995 53.964 51.29 52.384 50.766 L 52.384 50.827 Z  M 94.537 36.133 L 50.488 50.766 C 48.908 51.29 48.052 52.995 48.576 54.575 C 49.099 56.155 50.805 57.011 52.384 56.487 L 96.434 41.794 C 98.014 41.27 98.87 39.565 98.346 37.985 C 97.822 36.405 96.117 35.549 94.537 36.073 L 94.537 36.133 Z  M 50.488 27.101 L 94.537 41.794 C 96.117 42.318 97.822 41.462 98.346 39.882 C 98.87 38.302 98.014 36.597 96.434 36.073 L 52.384 21.38 C 50.805 20.856 49.099 21.712 48.576 23.292 C 48.052 24.871 48.908 26.577 50.488 27.101 Z " fill="rgb(0,0,0)"/><path d=" M 8.034 40.921 L 8.034 70.307 C 8.034 71.97 9.382 73.318 11.045 73.318 C 12.707 73.318 14.056 71.97 14.056 70.307 L 14.056 40.921 C 14.056 39.258 12.707 37.91 11.045 37.91 C 9.382 37.91 8.034 39.258 8.034 40.921 Z " fill="rgb(0,0,0)"/><path d=" M 69.788 65.309 C 63.719 65.681 57.928 67.98 53.258 71.873 C 48.587 67.98 42.796 65.681 36.728 65.309 C 32.843 65.372 29.059 66.553 25.828 68.711 L 28.839 42.968 L 22.817 42.306 L 19.144 75.426 C 19.001 76.697 19.676 77.919 20.828 78.475 C 21.98 79.031 23.357 78.798 24.263 77.895 C 27.413 74.144 31.935 71.812 36.818 71.421 C 40.943 71.421 45.851 73.589 51.451 78.105 C 52.551 78.986 54.115 78.986 55.215 78.105 C 60.845 73.589 65.753 71.421 69.848 71.421 C 74.73 71.812 79.253 74.144 82.403 77.895 C 83.35 78.827 84.797 79.029 85.962 78.391 C 87.128 77.752 87.738 76.425 87.462 75.125 L 80.115 42.005 L 74.093 43.299 L 79.724 68.019 C 76.709 66.253 73.281 65.318 69.788 65.309 Z " fill="rgb(0,0,0)"/></g></g></g></g></svg>