<?xml version="1.0" standalone="no"?><!-- Generator: Gravit.io --><svg xmlns="http://www.w3.org/2000/svg" xmlns:xlink="http://www.w3.org/1999/xlink" style="isolation:isolate" viewBox="0 0 100 100" width="100" height="100"><defs><clipPath id="_clipPath_s2Z7RCCcSmdvCVKb9yVOv884wAiZhDPE"><rect width="100" height="100"/></clipPath></defs><g clip-path="url(#_clipPath_s2Z7RCCcSmdvCVKb9yVOv884wAiZhDPE)"><g><g><circle vector-effect="non-scaling-stroke" cx="17.64366998577526" cy="29.8135135135135" r="16.143669985775247" fill="rgb(54,146,204)" fill-opacity="0.5"/><circle vector-effect="non-scaling-stroke" cx="17.64366998577526" cy="70.18648648648652" r="16.143669985775247" fill="rgb(54,146,204)" fill-opacity="0.5"/><path d=" M 47.282 27.192 L 95.74 27.192 C 97.264 27.192 98.5 25.956 98.5 24.432 C 98.5 22.908 97.264 21.673 95.74 21.673 L 47.282 21.673 C 45.758 21.673 44.522 22.908 44.522 24.432 C 44.522 25.956 45.758 27.192 47.282 27.192 Z " fill="rgb(0,0,0)"/><path d=" M 47.282 37.954 L 82.136 37.954 C 83.66 37.954 84.895 36.719 84.895 35.195 C 84.895 33.671 83.66 32.435 82.136 32.435 L 47.282 32.435 C 45.758 32.435 44.522 33.671 44.522 35.195 C 44.522 36.719 45.758 37.954 47.282 37.954 Z " fill="rgb(0,0,0)"/><path d=" M 47.282 62.184 L 95.74 62.184 C 97.264 62.184 98.5 60.948 98.5 59.424 C 98.5 57.9 97.264 56.664 95.74 56.664 L 47.282 56.664 C 45.758 56.664 44.522 57.9 44.522 59.424 C 44.522 60.948 45.758 62.184 47.282 62.184 Z " fill="rgb(0,0,0)"/><path d=" M 47.282 72.946 L 63.425 72.946 C 64.95 72.946 66.185 71.711 66.185 70.186 C 66.185 68.662 64.95 67.427 63.425 67.427 L 47.282 67.427 C 45.758 67.427 44.522 68.662 44.522 70.186 C 44.522 71.711 45.758 72.946 47.282 72.946 Z " fill="rgb(0,0,0)"/><path d=" M 14.222 27.854 C 13.114 26.993 11.537 27.1 10.556 28.102 C 9.574 29.105 9.501 30.684 10.386 31.773 L 18.472 39.858 C 19.548 40.928 21.286 40.928 22.363 39.858 L 38.506 23.715 C 39.444 22.62 39.381 20.988 38.362 19.968 C 37.342 18.949 35.71 18.886 34.615 19.824 L 20.348 34.118 L 14.222 27.854 Z " fill="rgb(0,0,0)"/><g><path d=" M 11.655 60.031 L 30.503 78.879 C 31.598 79.817 33.23 79.754 34.25 78.735 C 35.269 77.715 35.332 76.083 34.394 74.988 L 15.574 56.195 C 14.479 55.258 12.847 55.321 11.828 56.34 C 10.808 57.359 10.745 58.991 11.683 60.086 L 11.655 60.031 Z " fill="rgb(0,0,0)"/><path d=" M 15.574 78.879 L 34.422 60.031 C 35.283 58.924 35.177 57.346 34.174 56.365 C 33.172 55.384 31.592 55.311 30.503 56.195 L 11.655 75.043 C 10.718 76.138 10.781 77.77 11.8 78.79 C 12.819 79.809 14.451 79.872 15.546 78.934 L 15.574 78.879 Z " fill="rgb(0,0,0)"/></g></g></g></g></svg>