<svg id="Layer_1" data-name="Layer 1" xmlns="http://www.w3.org/2000/svg" viewBox="0 0 230 230"><defs><style>.cls-1{fill:#fff;}.cls-2{fill:#34b2e3;}.cls-3,.cls-4{fill:#3792cc;}.cls-4{stroke:#fff;stroke-miterlimit:10;stroke-width:5px;}</style></defs><title>group</title><g id="Layer_2" data-name="Layer 2"><g id="Student_Icon_Thumbnail_List-3" data-name="Student Icon Thumbnail List-3"><path class="cls-1" d="M230,115h0A115,115,0,1,0,115,230,115,115,0,0,0,230,115Z"/><path class="cls-2" d="M195.8,120.2c-28.3-8.1-32.9-18.7-32.9-18.7a5.12,5.12,0,0,1-4.1-1c3.5-1.5,2.6-9.1,2.6-9.1,1.6,0,4.6-4.6,4.6-4.6,4.6-4.1,2-16.7,2-16.7,2-15.2-3-21.7-3-21.7,0-3.5-10.1-7.1-10.1-7.1,0-3-6.4-3.2-9.7-3.1a12.75,12.75,0,0,0-1.9.1c-8.6,0-9.6,2.5-9.6,2.5-3,0-9.1,5.6-9.1,5.6C119,54.5,122,70.1,122,70.1c-2,10.1,1,13.6,1,13.6,0,4.1,4.6,5,4.6,5a13.75,13.75,0,0,0,4.6,11.6c0,2.6-5,2-5,2,0,8.6-29.7,16.7-29.7,16.7-18.2,6.5-12.6,25.2-12.6,25.2l60.3,19,60.6-19C206,124.2,195.8,120.2,195.8,120.2Z"/><path class="cls-3" d="M135.8,120.2c-28.3-8.1-32.9-18.7-32.9-18.7a5.12,5.12,0,0,1-4.1-1c3.5-1.5,2.6-9.1,2.6-9.1,1.6,0,4.6-4.6,4.6-4.6,4.6-4.1,2-16.7,2-16.7,2-15.2-3-21.7-3-21.7,0-3.4-10-7-10-7,0-3-6.4-3.2-9.7-3.1a12.75,12.75,0,0,0-1.9.1c-8.6,0-9.6,2.5-9.6,2.5-3,0-9.1,5.6-9.1,5.6-5.6,8.1-2.6,23.7-2.6,23.7-2,10.1,1,13.6,1,13.6,0,4.1,4.6,5,4.6,5a13.75,13.75,0,0,0,4.6,11.6c0,2.6-5,2-5,2,0,8.6-29.7,16.7-29.7,16.7C19.4,125.6,25,144.3,25,144.3l60.3,19,60.6-19C146,124.2,135.8,120.2,135.8,120.2Z"/><path class="cls-4" d="M172.6,142.8c-32.1-9.2-37.3-21.2-37.3-21.2a5.84,5.84,0,0,1-4.6-1.1c4-1.7,2.9-10.3,2.9-10.3,1.8,0,5.2-5.2,5.2-5.2,5.2-4.6,2.3-18.9,2.3-18.9,2.3-17.2-3.4-24.6-3.4-24.6,0-4-11.4-8-11.4-8,0-3.4-7.3-3.6-11-3.5a14.77,14.77,0,0,0-2.1.1c-9.8,0-10.9,2.8-10.9,2.8-3.4,0-10.3,6.3-10.3,6.3-6.3,9.2-2.9,26.9-2.9,26.9-2.3,11.4,1.1,15.4,1.1,15.4,0,4.6,5.2,5.7,5.2,5.7a16.07,16.07,0,0,0,5.2,13.2c0,2.9-5.7,2.3-5.7,2.3,0,9.8-33.7,18.9-33.7,18.9-20.6,7.4-14.3,28.6-14.3,28.6l68.4,21.5L184,170.2C184.1,147.3,172.6,142.8,172.6,142.8Z"/><path class="cls-2" d="M115.3,50V191.7L46.9,170.2S40.6,149,61.2,141.6c0,0,33.7-9.1,33.7-18.9,0,0,5.7.6,5.7-2.3a16.07,16.07,0,0,1-5.2-13.2s-5.2-1.1-5.2-5.7c0,0-3.4-4-1.1-15.4,0,0-3.4-17.7,2.9-26.9,0,0,6.9-6.3,10.3-6.3,0,0,1.1-2.8,10.9-2.8A14.77,14.77,0,0,1,115.3,50Z"/><path class="cls-3" d="M184,170.2l-68.7,21.5V50c3.7-.1,11,.1,11,3.5,0,0,11.4,4,11.4,8,0,0,5.7,7.4,3.4,24.6,0,0,2.9,14.3-2.3,18.9,0,0-3.4,5.2-5.2,5.2,0,0,1.1,8.6-2.9,10.3a5.84,5.84,0,0,0,4.6,1.1s5.2,12,37.3,21.2C172.6,142.8,184.1,147.3,184,170.2Z"/></g></g></svg>