<?xml version="1.0" encoding="utf-8"?>
<!-- Generator: Adobe Illustrator 21.1.0, SVG Export Plug-In . SVG Version: 6.00 Build 0)  -->
<svg version="1.1" id="Layer_1" xmlns="http://www.w3.org/2000/svg" xmlns:xlink="http://www.w3.org/1999/xlink" x="0px" y="0px"
	 viewBox="0 0 230 230" style="enable-background:new 0 0 230 230;" xml:space="preserve">
<style type="text/css">
	.st0{fill:#FFFFFF;}
	.st1{opacity:0.5;fill:#36C6F4;enable-background:new    ;}
	.st2{opacity:0.75;fill:#36C6F4;enable-background:new    ;}
	.st3{fill:#3692CC;}
</style>
<title>student-badge</title>
<g id="Layer_2">
	<g id="Student_Icon_Thumbnail_List-3">
		<path class="st0" d="M230,115L230,115C230,51.5,178.5,0,115,0S0,51.5,0,115s51.5,115,115,115S230,178.5,230,115z"/>
		<g>
			<path class="st1" d="M121.8,107.5l-3.2-1.1c-16-4.3-21.3-9.6-21.3-17.1c0-7.5,8.5-14.9,21.3-14.9h1.1c14.9,0,20.3,7.5,21.3,17.1
				h18.1c0-16-11.7-28.8-26.7-32V41.4h-25.6v18.1C89.8,63.8,77,73.4,77,90.5c0,19.2,18.1,28.8,41.6,34.1l0,0
				c19.2,5.3,23.5,11.7,23.5,19.2c0,5.3-4.3,14.9-22.4,14.9h-1.1c-17.1,0-23.5-7.5-24.5-17.1H75.9c1.1,17.1,13.9,29.9,30.9,32v18.1
				h25.6v-17.1c16-3.2,29.9-12.8,29.9-29.9C161.3,120.3,141,112.9,121.8,107.5z"/>
			<path class="st1" d="M114.3,104.3l-3.2-1.1c-16-4.3-21.3-9.6-21.3-17.1c0-7.5,8.5-14.9,21.3-14.9h1.1c14.9,0,20.3,7.5,21.3,18.1
				h18.1c0-16-11.7-28.8-26.7-32V38.2H99.4v18.1c-16,3.2-29.9,13.9-29.9,29.9c0,19.2,18.1,28.8,41.6,34.1l0,0
				c19.2,5.3,23.5,11.7,23.5,19.2c0,5.3-4.3,14.9-22.4,14.9h-1.1c-17.1,0-23.5-7.5-24.5-17.1H68.5c1.1,17.1,13.9,29.9,30.9,32v18.1
				H125v-17.1c16-3.2,29.9-12.8,29.9-29.9C153.8,117.1,133.5,108.6,114.3,104.3z"/>
			<path class="st2" d="M114.3,107.5l-3.2-1.1c-16-4.3-21.3-9.6-21.3-17.1c0-7.5,8.5-14.9,21.3-14.9h1.1c14.9,0,20.3,7.5,21.3,17.1
				h18.1c0-16-11.7-28.8-26.7-32V41.4H99.4v18.1c-16,3.2-29.9,13.9-29.9,30.9c0,19.2,16,28.8,39.5,34.1l0,0
				c19.2,5.3,25.6,11.7,25.6,19.2c0,5.3-4.3,14.9-22.4,14.9h-1.1c-17.1,0-23.5-7.5-24.5-17.1H68.5c1.1,17.1,13.9,29.9,30.9,32v18.1
				H125v-17.1c16-3.2,29.9-12.8,29.9-29.9C153.8,120.3,133.5,112.9,114.3,107.5z"/>
			<path class="st2" d="M121.8,104.3l-3.2-1.1c-16-4.3-21.3-9.6-21.3-17.1c0-7.5,8.5-14.9,21.3-14.9h1.1c14.9,0,20.3,7.5,21.3,18.1
				h18.1c0-16-11.7-28.8-26.7-32V38.2h-25.6v18.1C89.8,59.5,77,70.2,77,86.2c0,19.2,18.1,28.8,41.6,34.1l0,0
				c19.2,5.3,23.5,11.7,23.5,19.2c0,5.3-4.3,14.9-22.4,14.9h-1.1c-17.1,0-23.5-7.5-24.5-17.1H75.9c1.1,17.1,13.9,29.9,30.9,32v18.1
				h25.6v-17.1c16-3.2,29.9-12.8,29.9-29.9C161.3,117.1,141,108.6,121.8,104.3z"/>
			<path class="st3" d="M117.5,105.4l-3.2-1.1c-16-4.3-21.3-9.6-21.3-17.1s7.5-14.9,21.3-14.9h1.1c14.9,0,20.3,7.5,21.3,17.1h18.1
				c0-16-11.7-28.8-26.7-32V39.2h-25.6v18.1c-16,4.3-28.8,14.9-28.8,30.9c0,19.2,16,28.8,39.5,34.1l0,0
				c19.2,5.3,25.6,11.7,25.6,19.2c0,5.3-4.3,14.9-22.4,14.9h-1.1c-17.1,0-23.5-7.5-24.5-17.1H71.7c1.1,17.1,13.9,29.9,30.9,32v18.1
				h25.6v-17.1c16-3.2,29.9-12.8,29.9-29.9C157,119.3,136.7,110.7,117.5,105.4z"/>
		</g>
	</g>
</g>
</svg>
