<svg id="Layer_1" data-name="Layer 1" xmlns="http://www.w3.org/2000/svg" viewBox="0 0 162.64 162.64"><defs><style>.cls-1{fill:#fff;}.cls-2{fill:#31ba82;}</style></defs><title>scholarship-green</title><path class="cls-1" d="M81.32,156.32a75,75,0,1,0-75-75A75,75,0,0,0,81.32,156.32Z"/><path class="cls-2" d="M81.32,162.64a81.32,81.32,0,1,1,81.32-81.32h0A81.41,81.41,0,0,1,81.32,162.64Zm0-150A68.68,68.68,0,1,0,150,81.32,68.68,68.68,0,0,0,81.32,12.64Z"/><path class="cls-2" d="M82.55,77.84C75.38,76,73.07,74,73.07,71c0-3.44,3.19-5.85,8.53-5.85,5.62,0,7.71,2.69,7.9,6.64h7a12.52,12.52,0,0,0-10.14-12v-7h-9.5v6.83C70.73,61,65.8,65,65.8,71.12c0,7.3,6,10.93,14.85,13.05,7.9,1.9,9.48,4.68,9.48,7.62,0,2.18-1.55,5.66-8.53,5.66-6.51,0-9.07-2.91-9.42-6.64h-7c.38,6.92,5.56,10.81,11.63,12.1v6.86h9.51V103c6.16-1.17,11.06-4.74,11.06-11.22C97.4,82.77,89.73,79.71,82.55,77.84Z"/></svg>