<svg id="Layer_1" data-name="Layer 1" xmlns="http://www.w3.org/2000/svg" viewBox="0 0 230 230"><defs><style>.cls-1{fill:#fff;}.cls-2{fill:#34b2e3;}.cls-3{fill:#3792cc;}</style></defs><title>student</title><g id="Layer_2" data-name="Layer 2"><g id="S"><g id="Student_Icon_Thumbnail_List-3" data-name="Student Icon Thumbnail List-3"><path class="cls-1" d="M230,115h0A115,115,0,1,0,115,230,115,115,0,0,0,230,115Z"/><path class="cls-2" d="M115,46.2V187.9L46.6,166.4s-6.3-21.2,14.3-28.6c0,0,33.7-9.1,33.7-18.9,0,0,5.7.6,5.7-2.3a16.07,16.07,0,0,1-5.2-13.2s-5.2-1.1-5.2-5.7c0,0-3.4-4-1.1-15.4,0,0-3.4-17.7,2.9-26.9,0,0,6.9-6.3,10.3-6.3,0,0,1.1-2.8,10.9-2.8A18.74,18.74,0,0,1,115,46.2Z"/><path class="cls-3" d="M183.7,166.4,115,187.9V46.2c3.7-.1,11,.1,11,3.5,0,0,11.4,4,11.4,8,0,0,5.7,7.4,3.4,24.6,0,0,2.9,14.3-2.3,18.9,0,0-3.4,5.2-5.2,5.2,0,0,1.1,8.6-2.9,10.3a5.84,5.84,0,0,0,4.6,1.1s5.2,12,37.3,21.2C172.3,139,183.8,143.5,183.7,166.4Z"/></g></g></g></svg>