<svg id="Layer_1" data-name="Layer 1" xmlns="http://www.w3.org/2000/svg" viewBox="0 0 100 100"><defs><style>.cls-1{fill:#3692cc;fill-opacity:0.5;}</style></defs><title>phone</title><g id="Icons"><g id="icons-_-mi_phone" data-name="icons-/-mi_phone"><g id="phone"><path id="bg" class="cls-1" d="M18.85,19.39l4.24-4.24h0a4,4,0,0,1,5.66,0L41.48,27.87h0a4,4,0,0,1,0,5.66l-4.24,4.24Z"/><path id="bg-2" data-name="bg" class="cls-1" d="M66.94,67.47l4.24-4.24h0a4,4,0,0,1,5.66,0L89.56,76h0a4,4,0,0,1,0,5.66l-4.24,4.24Z"/><path id="Oval-6" d="M17.16,33.56c-1.18,3.3-1.1,5.44.94,8.67a1.08,1.08,0,0,0,1.83-1.16c-1.65-2.61-1.71-4.07-.74-6.79a1.08,1.08,0,1,0-2-.72Z"/><path id="Rectangle-30" d="M23.09,16.56,38.65,32.12l2.83-2.83a2,2,0,0,0,0-2.83L28.75,13.73a2,2,0,0,0-2.83,0Zm-2.83,0,4.24-4.24a4,4,0,0,1,5.66,0L42.89,25a4,4,0,0,1,0,5.66l-4.24,4.24Z"/><path id="Rectangle-30-2" data-name="Rectangle-30" d="M86.73,80.2l2.83-2.83a2,2,0,0,0,0-2.83L76.83,61.81a2,2,0,0,0-2.83,0l-2.83,2.83ZM68.35,64.64l4.24-4.24a4,4,0,0,1,5.66,0L91,73.13a4,4,0,0,1,0,5.66L86.73,83Z"/><path id="Rectangle-31" d="M45.66,57.51l.12.12-.06-.06Zm0,0,.12.12-.06-.06Zm10.62,9.73A7,7,0,0,0,66,67l6.63-6.63L74,61.81l-6.63,6.63a9,9,0,0,1-12.45.27L44.31,59,34.57,48.37a9,9,0,0,1,.27-12.45l6.63-6.63,1.41,1.41-6.63,6.63A7,7,0,0,0,36,47l9.67,10.55Z"/><path id="Rectangle-31-2" data-name="Rectangle-31" d="M45.66,57.51l.12.12-.06-.06Zm0,0,.12.12-.06-.06Zm10.62,9.73A7,7,0,0,0,66,67l6.63-6.63L74,61.81l-6.63,6.63a9,9,0,0,1-12.45.27L44.31,59,34.57,48.37a9,9,0,0,1,.27-12.45l6.63-6.63,1.41,1.41-6.63,6.63A7,7,0,0,0,36,47l9.67,10.55Z"/><path id="Rectangle-29" d="M88.86,78.08,84,83a24,24,0,0,1-31.83,1.88Q37.16,73,33.7,69.59T18.44,51.16a24,24,0,0,1,1.88-31.83l4.9-4.9L23.8,13l-4.9,4.9a26,26,0,0,0-2,34.48Q28.75,67.48,32.29,71t18.6,15.42a26,26,0,0,0,34.48-2l4.9-4.9Z"/><path id="Rectangle-31-3" data-name="Rectangle-31" d="M45.66,57.51l.12.12-.06-.06Zm0,0,.12.12-.06-.06Zm10.62,9.73A7,7,0,0,0,66,67l6.63-6.63L74,61.81l-6.63,6.63a9,9,0,0,1-12.45.27L44.31,59,34.57,48.37a9,9,0,0,1,.27-12.45l6.63-6.63,1.41,1.41-6.63,6.63A7,7,0,0,0,36,47l9.67,10.55Z"/><path id="Rectangle-29-2" data-name="Rectangle-29" d="M88.86,78.08,84,83a24,24,0,0,1-31.83,1.88Q37.16,73,33.7,69.59T18.44,51.16a24,24,0,0,1,1.88-31.83l4.9-4.9L23.8,13l-4.9,4.9a26,26,0,0,0-2,34.48Q28.75,67.48,32.29,71t18.6,15.42a26,26,0,0,0,34.48-2l4.9-4.9Z"/><path id="Line-7-Copy" d="M65.32,49.24l17-9.9a1,1,0,0,0-1-1.73l-17,9.9a1,1,0,1,0,1,1.73Z"/><path id="Line-7-Copy-2" data-name="Line-7-Copy" d="M55.8,38.94,65,21.26a1,1,0,1,0-1.77-.92L54,38a1,1,0,0,0,1.77.92Z"/><path id="Line-7-Copy-2-2" data-name="Line-7-Copy-2" d="M65.74,55.72,78.43,52.9a1,1,0,0,0-.43-2L65.3,53.77a1,1,0,1,0,.43,2Z"/><path id="Line-7-Copy-3" d="M48.8,37.35l3.54-12a1,1,0,0,0-1.92-.56l-3.54,12a1,1,0,1,0,1.92.56Z"/><path id="Line-7" d="M61.63,43.08l9.19-9.19a1,1,0,1,0-1.41-1.41l-9.19,9.19a1,1,0,1,0,1.41,1.41Z"/></g></g></g></svg>