<svg id="Layer_1" data-name="Layer 1" xmlns="http://www.w3.org/2000/svg" viewBox="0 0 100 100"><defs><style>.cls-1{fill:#3692cc;fill-opacity:0.5;}</style></defs><title>website</title><g id="Icons"><g id="icons-_-mi_website" data-name="icons-/-mi_website"><g id="website"><rect id="bg" class="cls-1" x="13" y="21" width="70" height="41" rx="2" ry="2"/><circle id="Oval-14-Copy-26" cx="50" cy="70" r="1"/><path id="Rectangle-28" d="M12,15a1,1,0,0,0-1,1V71.51a1,1,0,0,0,1,1H88a1,1,0,0,0,1-1V16a1,1,0,0,0-1-1Zm0-2H88a3,3,0,0,1,3,3V71.51a3,3,0,0,1-3,3H12a3,3,0,0,1-3-3V16A3,3,0,0,1,12,13Z"/><path id="Rectangle-28-2" data-name="Rectangle-28" d="M17,20a1,1,0,0,0-1,1V58a1,1,0,0,0,1,1H83a1,1,0,0,0,1-1V21a1,1,0,0,0-1-1Zm0-2H83a3,3,0,0,1,3,3V58a3,3,0,0,1-3,3H17a3,3,0,0,1-3-3V21A3,3,0,0,1,17,18Z"/><g id="Group"><path id="Line" d="M79,25H59a1,1,0,0,0,0,2H79a1,1,0,0,0,0-2Z"/><path id="Line-Copy" d="M79,31H64a1,1,0,0,0,0,2H79a1,1,0,0,0,0-2Z"/></g><polygon id="Line-2" data-name="Line" points="9.5 67 90.5 67 90.5 65 9.5 65 9.5 67"/><path id="Line-2-2" data-name="Line-2" d="M35.5,87h30a1,1,0,0,0,0-2h-30a1,1,0,0,0,0,2Z"/><polygon id="Line-3" points="41.27 86.69 44.19 73.23 42.23 72.81 39.31 86.27 41.27 86.69"/><polygon id="Line-3-2" data-name="Line-3" points="61.23 85.7 57.7 72.77 55.77 73.3 59.3 86.23 61.23 85.7"/></g></g></g></svg>